<?xml version="1.0" encoding="utf-8" standalone="no"?>
<!DOCTYPE svg PUBLIC "-//W3C//DTD SVG 1.1//EN"
  "http://www.w3.org/Graphics/SVG/1.1/DTD/svg11.dtd">
<svg xmlns:xlink="http://www.w3.org/1999/xlink" width="1474.56pt" height="850.752pt" viewBox="0 0 1474.56 850.752" xmlns="http://www.w3.org/2000/svg" version="1.1">
 <metadata>
  <rdf:RDF xmlns:dc="http://purl.org/dc/elements/1.1/" xmlns:cc="http://creativecommons.org/ns#" xmlns:rdf="http://www.w3.org/1999/02/22-rdf-syntax-ns#">
   <cc:Work>
    <dc:type rdf:resource="http://purl.org/dc/dcmitype/StillImage"/>
    <dc:date>2022-07-20T23:40:55.398352</dc:date>
    <dc:format>image/svg+xml</dc:format>
    <dc:creator>
     <cc:Agent>
      <dc:title>Matplotlib v3.5.2, https://matplotlib.org/</dc:title>
     </cc:Agent>
    </dc:creator>
   </cc:Work>
  </rdf:RDF>
 </metadata>
 <defs>
  <style type="text/css">*{stroke-linejoin: round; stroke-linecap: butt}</style>
 </defs>
 <g id="figure_1">
  <g id="patch_1">
   <path d="M 0 850.752 
L 1474.56 850.752 
L 1474.56 0 
L 0 0 
z
" style="fill: #ffffff"/>
  </g>
  <g id="axes_1">
   <g id="patch_2">
    <path d="M 184.32 757.16928 
L 703.767273 757.16928 
L 703.767273 102.09024 
L 184.32 102.09024 
z
" style="fill: #ffffff"/>
   </g>
   <g id="matplotlib.axis_1">
    <g id="xtick_1">
     <g id="line2d_1">
      <path d="M 207.93124 757.16928 
L 207.93124 102.09024 
" clip-path="url(#pf434cecae4)" style="fill: none; stroke: #b0b0b0; stroke-width: 0.8; stroke-linecap: square"/>
     </g>
     <g id="line2d_2">
      <defs>
       <path id="m9a34b785e7" d="M 0 0 
L 0 3.5 
" style="stroke: #000000; stroke-width: 0.8"/>
      </defs>
      <g>
       <use xlink:href="#m9a34b785e7" x="207.93124" y="757.16928" style="stroke: #000000; stroke-width: 0.8"/>
      </g>
     </g>
     <g id="text_1">
      <!-- 0 -->
      <g transform="translate(204.74999 771.767718)scale(0.1 -0.1)">
       <defs>
        <path id="DejaVuSans-30" d="M 2034 4250 
Q 1547 4250 1301 3770 
Q 1056 3291 1056 2328 
Q 1056 1369 1301 889 
Q 1547 409 2034 409 
Q 2525 409 2770 889 
Q 3016 1369 3016 2328 
Q 3016 3291 2770 3770 
Q 2525 4250 2034 4250 
z
M 2034 4750 
Q 2819 4750 3233 4129 
Q 3647 3509 3647 2328 
Q 3647 1150 3233 529 
Q 2819 -91 2034 -91 
Q 1250 -91 836 529 
Q 422 1150 422 2328 
Q 422 3509 836 4129 
Q 1250 4750 2034 4750 
z
" transform="scale(0.015625)"/>
       </defs>
       <use xlink:href="#DejaVuSans-30"/>
      </g>
     </g>
    </g>
    <g id="xtick_2">
     <g id="line2d_3">
      <path d="M 302.376198 757.16928 
L 302.376198 102.09024 
" clip-path="url(#pf434cecae4)" style="fill: none; stroke: #b0b0b0; stroke-width: 0.8; stroke-linecap: square"/>
     </g>
     <g id="line2d_4">
      <g>
       <use xlink:href="#m9a34b785e7" x="302.376198" y="757.16928" style="stroke: #000000; stroke-width: 0.8"/>
      </g>
     </g>
     <g id="text_2">
      <!-- 20 -->
      <g transform="translate(296.013698 771.767718)scale(0.1 -0.1)">
       <defs>
        <path id="DejaVuSans-32" d="M 1228 531 
L 3431 531 
L 3431 0 
L 469 0 
L 469 531 
Q 828 903 1448 1529 
Q 2069 2156 2228 2338 
Q 2531 2678 2651 2914 
Q 2772 3150 2772 3378 
Q 2772 3750 2511 3984 
Q 2250 4219 1831 4219 
Q 1534 4219 1204 4116 
Q 875 4013 500 3803 
L 500 4441 
Q 881 4594 1212 4672 
Q 1544 4750 1819 4750 
Q 2544 4750 2975 4387 
Q 3406 4025 3406 3419 
Q 3406 3131 3298 2873 
Q 3191 2616 2906 2266 
Q 2828 2175 2409 1742 
Q 1991 1309 1228 531 
z
" transform="scale(0.015625)"/>
       </defs>
       <use xlink:href="#DejaVuSans-32"/>
       <use xlink:href="#DejaVuSans-30" x="63.623047"/>
      </g>
     </g>
    </g>
    <g id="xtick_3">
     <g id="line2d_5">
      <path d="M 396.821157 757.16928 
L 396.821157 102.09024 
" clip-path="url(#pf434cecae4)" style="fill: none; stroke: #b0b0b0; stroke-width: 0.8; stroke-linecap: square"/>
     </g>
     <g id="line2d_6">
      <g>
       <use xlink:href="#m9a34b785e7" x="396.821157" y="757.16928" style="stroke: #000000; stroke-width: 0.8"/>
      </g>
     </g>
     <g id="text_3">
      <!-- 40 -->
      <g transform="translate(390.458657 771.767718)scale(0.1 -0.1)">
       <defs>
        <path id="DejaVuSans-34" d="M 2419 4116 
L 825 1625 
L 2419 1625 
L 2419 4116 
z
M 2253 4666 
L 3047 4666 
L 3047 1625 
L 3713 1625 
L 3713 1100 
L 3047 1100 
L 3047 0 
L 2419 0 
L 2419 1100 
L 313 1100 
L 313 1709 
L 2253 4666 
z
" transform="scale(0.015625)"/>
       </defs>
       <use xlink:href="#DejaVuSans-34"/>
       <use xlink:href="#DejaVuSans-30" x="63.623047"/>
      </g>
     </g>
    </g>
    <g id="xtick_4">
     <g id="line2d_7">
      <path d="M 491.266116 757.16928 
L 491.266116 102.09024 
" clip-path="url(#pf434cecae4)" style="fill: none; stroke: #b0b0b0; stroke-width: 0.8; stroke-linecap: square"/>
     </g>
     <g id="line2d_8">
      <g>
       <use xlink:href="#m9a34b785e7" x="491.266116" y="757.16928" style="stroke: #000000; stroke-width: 0.8"/>
      </g>
     </g>
     <g id="text_4">
      <!-- 60 -->
      <g transform="translate(484.903616 771.767718)scale(0.1 -0.1)">
       <defs>
        <path id="DejaVuSans-36" d="M 2113 2584 
Q 1688 2584 1439 2293 
Q 1191 2003 1191 1497 
Q 1191 994 1439 701 
Q 1688 409 2113 409 
Q 2538 409 2786 701 
Q 3034 994 3034 1497 
Q 3034 2003 2786 2293 
Q 2538 2584 2113 2584 
z
M 3366 4563 
L 3366 3988 
Q 3128 4100 2886 4159 
Q 2644 4219 2406 4219 
Q 1781 4219 1451 3797 
Q 1122 3375 1075 2522 
Q 1259 2794 1537 2939 
Q 1816 3084 2150 3084 
Q 2853 3084 3261 2657 
Q 3669 2231 3669 1497 
Q 3669 778 3244 343 
Q 2819 -91 2113 -91 
Q 1303 -91 875 529 
Q 447 1150 447 2328 
Q 447 3434 972 4092 
Q 1497 4750 2381 4750 
Q 2619 4750 2861 4703 
Q 3103 4656 3366 4563 
z
" transform="scale(0.015625)"/>
       </defs>
       <use xlink:href="#DejaVuSans-36"/>
       <use xlink:href="#DejaVuSans-30" x="63.623047"/>
      </g>
     </g>
    </g>
    <g id="xtick_5">
     <g id="line2d_9">
      <path d="M 585.711074 757.16928 
L 585.711074 102.09024 
" clip-path="url(#pf434cecae4)" style="fill: none; stroke: #b0b0b0; stroke-width: 0.8; stroke-linecap: square"/>
     </g>
     <g id="line2d_10">
      <g>
       <use xlink:href="#m9a34b785e7" x="585.711074" y="757.16928" style="stroke: #000000; stroke-width: 0.8"/>
      </g>
     </g>
     <g id="text_5">
      <!-- 80 -->
      <g transform="translate(579.348574 771.767718)scale(0.1 -0.1)">
       <defs>
        <path id="DejaVuSans-38" d="M 2034 2216 
Q 1584 2216 1326 1975 
Q 1069 1734 1069 1313 
Q 1069 891 1326 650 
Q 1584 409 2034 409 
Q 2484 409 2743 651 
Q 3003 894 3003 1313 
Q 3003 1734 2745 1975 
Q 2488 2216 2034 2216 
z
M 1403 2484 
Q 997 2584 770 2862 
Q 544 3141 544 3541 
Q 544 4100 942 4425 
Q 1341 4750 2034 4750 
Q 2731 4750 3128 4425 
Q 3525 4100 3525 3541 
Q 3525 3141 3298 2862 
Q 3072 2584 2669 2484 
Q 3125 2378 3379 2068 
Q 3634 1759 3634 1313 
Q 3634 634 3220 271 
Q 2806 -91 2034 -91 
Q 1263 -91 848 271 
Q 434 634 434 1313 
Q 434 1759 690 2068 
Q 947 2378 1403 2484 
z
M 1172 3481 
Q 1172 3119 1398 2916 
Q 1625 2713 2034 2713 
Q 2441 2713 2670 2916 
Q 2900 3119 2900 3481 
Q 2900 3844 2670 4047 
Q 2441 4250 2034 4250 
Q 1625 4250 1398 4047 
Q 1172 3844 1172 3481 
z
" transform="scale(0.015625)"/>
       </defs>
       <use xlink:href="#DejaVuSans-38"/>
       <use xlink:href="#DejaVuSans-30" x="63.623047"/>
      </g>
     </g>
    </g>
    <g id="xtick_6">
     <g id="line2d_11">
      <path d="M 680.156033 757.16928 
L 680.156033 102.09024 
" clip-path="url(#pf434cecae4)" style="fill: none; stroke: #b0b0b0; stroke-width: 0.8; stroke-linecap: square"/>
     </g>
     <g id="line2d_12">
      <g>
       <use xlink:href="#m9a34b785e7" x="680.156033" y="757.16928" style="stroke: #000000; stroke-width: 0.8"/>
      </g>
     </g>
     <g id="text_6">
      <!-- 100 -->
      <g transform="translate(670.612283 771.767718)scale(0.1 -0.1)">
       <defs>
        <path id="DejaVuSans-31" d="M 794 531 
L 1825 531 
L 1825 4091 
L 703 3866 
L 703 4441 
L 1819 4666 
L 2450 4666 
L 2450 531 
L 3481 531 
L 3481 0 
L 794 0 
L 794 531 
z
" transform="scale(0.015625)"/>
       </defs>
       <use xlink:href="#DejaVuSans-31"/>
       <use xlink:href="#DejaVuSans-30" x="63.623047"/>
       <use xlink:href="#DejaVuSans-30" x="127.246094"/>
      </g>
     </g>
    </g>
    <g id="text_7">
     <!-- Cache Size(%) -->
     <g transform="translate(407.988168 785.445843)scale(0.1 -0.1)">
      <defs>
       <path id="DejaVuSans-43" d="M 4122 4306 
L 4122 3641 
Q 3803 3938 3442 4084 
Q 3081 4231 2675 4231 
Q 1875 4231 1450 3742 
Q 1025 3253 1025 2328 
Q 1025 1406 1450 917 
Q 1875 428 2675 428 
Q 3081 428 3442 575 
Q 3803 722 4122 1019 
L 4122 359 
Q 3791 134 3420 21 
Q 3050 -91 2638 -91 
Q 1578 -91 968 557 
Q 359 1206 359 2328 
Q 359 3453 968 4101 
Q 1578 4750 2638 4750 
Q 3056 4750 3426 4639 
Q 3797 4528 4122 4306 
z
" transform="scale(0.015625)"/>
       <path id="DejaVuSans-61" d="M 2194 1759 
Q 1497 1759 1228 1600 
Q 959 1441 959 1056 
Q 959 750 1161 570 
Q 1363 391 1709 391 
Q 2188 391 2477 730 
Q 2766 1069 2766 1631 
L 2766 1759 
L 2194 1759 
z
M 3341 1997 
L 3341 0 
L 2766 0 
L 2766 531 
Q 2569 213 2275 61 
Q 1981 -91 1556 -91 
Q 1019 -91 701 211 
Q 384 513 384 1019 
Q 384 1609 779 1909 
Q 1175 2209 1959 2209 
L 2766 2209 
L 2766 2266 
Q 2766 2663 2505 2880 
Q 2244 3097 1772 3097 
Q 1472 3097 1187 3025 
Q 903 2953 641 2809 
L 641 3341 
Q 956 3463 1253 3523 
Q 1550 3584 1831 3584 
Q 2591 3584 2966 3190 
Q 3341 2797 3341 1997 
z
" transform="scale(0.015625)"/>
       <path id="DejaVuSans-63" d="M 3122 3366 
L 3122 2828 
Q 2878 2963 2633 3030 
Q 2388 3097 2138 3097 
Q 1578 3097 1268 2742 
Q 959 2388 959 1747 
Q 959 1106 1268 751 
Q 1578 397 2138 397 
Q 2388 397 2633 464 
Q 2878 531 3122 666 
L 3122 134 
Q 2881 22 2623 -34 
Q 2366 -91 2075 -91 
Q 1284 -91 818 406 
Q 353 903 353 1747 
Q 353 2603 823 3093 
Q 1294 3584 2113 3584 
Q 2378 3584 2631 3529 
Q 2884 3475 3122 3366 
z
" transform="scale(0.015625)"/>
       <path id="DejaVuSans-68" d="M 3513 2113 
L 3513 0 
L 2938 0 
L 2938 2094 
Q 2938 2591 2744 2837 
Q 2550 3084 2163 3084 
Q 1697 3084 1428 2787 
Q 1159 2491 1159 1978 
L 1159 0 
L 581 0 
L 581 4863 
L 1159 4863 
L 1159 2956 
Q 1366 3272 1645 3428 
Q 1925 3584 2291 3584 
Q 2894 3584 3203 3211 
Q 3513 2838 3513 2113 
z
" transform="scale(0.015625)"/>
       <path id="DejaVuSans-65" d="M 3597 1894 
L 3597 1613 
L 953 1613 
Q 991 1019 1311 708 
Q 1631 397 2203 397 
Q 2534 397 2845 478 
Q 3156 559 3463 722 
L 3463 178 
Q 3153 47 2828 -22 
Q 2503 -91 2169 -91 
Q 1331 -91 842 396 
Q 353 884 353 1716 
Q 353 2575 817 3079 
Q 1281 3584 2069 3584 
Q 2775 3584 3186 3129 
Q 3597 2675 3597 1894 
z
M 3022 2063 
Q 3016 2534 2758 2815 
Q 2500 3097 2075 3097 
Q 1594 3097 1305 2825 
Q 1016 2553 972 2059 
L 3022 2063 
z
" transform="scale(0.015625)"/>
       <path id="DejaVuSans-20" transform="scale(0.015625)"/>
       <path id="DejaVuSans-53" d="M 3425 4513 
L 3425 3897 
Q 3066 4069 2747 4153 
Q 2428 4238 2131 4238 
Q 1616 4238 1336 4038 
Q 1056 3838 1056 3469 
Q 1056 3159 1242 3001 
Q 1428 2844 1947 2747 
L 2328 2669 
Q 3034 2534 3370 2195 
Q 3706 1856 3706 1288 
Q 3706 609 3251 259 
Q 2797 -91 1919 -91 
Q 1588 -91 1214 -16 
Q 841 59 441 206 
L 441 856 
Q 825 641 1194 531 
Q 1563 422 1919 422 
Q 2459 422 2753 634 
Q 3047 847 3047 1241 
Q 3047 1584 2836 1778 
Q 2625 1972 2144 2069 
L 1759 2144 
Q 1053 2284 737 2584 
Q 422 2884 422 3419 
Q 422 4038 858 4394 
Q 1294 4750 2059 4750 
Q 2388 4750 2728 4690 
Q 3069 4631 3425 4513 
z
" transform="scale(0.015625)"/>
       <path id="DejaVuSans-69" d="M 603 3500 
L 1178 3500 
L 1178 0 
L 603 0 
L 603 3500 
z
M 603 4863 
L 1178 4863 
L 1178 4134 
L 603 4134 
L 603 4863 
z
" transform="scale(0.015625)"/>
       <path id="DejaVuSans-7a" d="M 353 3500 
L 3084 3500 
L 3084 2975 
L 922 459 
L 3084 459 
L 3084 0 
L 275 0 
L 275 525 
L 2438 3041 
L 353 3041 
L 353 3500 
z
" transform="scale(0.015625)"/>
       <path id="DejaVuSans-28" d="M 1984 4856 
Q 1566 4138 1362 3434 
Q 1159 2731 1159 2009 
Q 1159 1288 1364 580 
Q 1569 -128 1984 -844 
L 1484 -844 
Q 1016 -109 783 600 
Q 550 1309 550 2009 
Q 550 2706 781 3412 
Q 1013 4119 1484 4856 
L 1984 4856 
z
" transform="scale(0.015625)"/>
       <path id="DejaVuSans-25" d="M 4653 2053 
Q 4381 2053 4226 1822 
Q 4072 1591 4072 1178 
Q 4072 772 4226 539 
Q 4381 306 4653 306 
Q 4919 306 5073 539 
Q 5228 772 5228 1178 
Q 5228 1588 5073 1820 
Q 4919 2053 4653 2053 
z
M 4653 2450 
Q 5147 2450 5437 2106 
Q 5728 1763 5728 1178 
Q 5728 594 5436 251 
Q 5144 -91 4653 -91 
Q 4153 -91 3862 251 
Q 3572 594 3572 1178 
Q 3572 1766 3864 2108 
Q 4156 2450 4653 2450 
z
M 1428 4353 
Q 1159 4353 1004 4120 
Q 850 3888 850 3481 
Q 850 3069 1003 2837 
Q 1156 2606 1428 2606 
Q 1700 2606 1854 2837 
Q 2009 3069 2009 3481 
Q 2009 3884 1853 4118 
Q 1697 4353 1428 4353 
z
M 4250 4750 
L 4750 4750 
L 1831 -91 
L 1331 -91 
L 4250 4750 
z
M 1428 4750 
Q 1922 4750 2215 4408 
Q 2509 4066 2509 3481 
Q 2509 2891 2217 2550 
Q 1925 2209 1428 2209 
Q 931 2209 642 2551 
Q 353 2894 353 3481 
Q 353 4063 643 4406 
Q 934 4750 1428 4750 
z
" transform="scale(0.015625)"/>
       <path id="DejaVuSans-29" d="M 513 4856 
L 1013 4856 
Q 1481 4119 1714 3412 
Q 1947 2706 1947 2009 
Q 1947 1309 1714 600 
Q 1481 -109 1013 -844 
L 513 -844 
Q 928 -128 1133 580 
Q 1338 1288 1338 2009 
Q 1338 2731 1133 3434 
Q 928 4138 513 4856 
z
" transform="scale(0.015625)"/>
      </defs>
      <use xlink:href="#DejaVuSans-43"/>
      <use xlink:href="#DejaVuSans-61" x="69.824219"/>
      <use xlink:href="#DejaVuSans-63" x="131.103516"/>
      <use xlink:href="#DejaVuSans-68" x="186.083984"/>
      <use xlink:href="#DejaVuSans-65" x="249.462891"/>
      <use xlink:href="#DejaVuSans-20" x="310.986328"/>
      <use xlink:href="#DejaVuSans-53" x="342.773438"/>
      <use xlink:href="#DejaVuSans-69" x="406.25"/>
      <use xlink:href="#DejaVuSans-7a" x="434.033203"/>
      <use xlink:href="#DejaVuSans-65" x="486.523438"/>
      <use xlink:href="#DejaVuSans-28" x="548.046875"/>
      <use xlink:href="#DejaVuSans-25" x="587.060547"/>
      <use xlink:href="#DejaVuSans-29" x="682.080078"/>
     </g>
    </g>
   </g>
   <g id="matplotlib.axis_2">
    <g id="ytick_1">
     <g id="line2d_13">
      <path d="M 184.32 727.39296 
L 703.767273 727.39296 
" clip-path="url(#pf434cecae4)" style="fill: none; stroke: #b0b0b0; stroke-width: 0.8; stroke-linecap: square"/>
     </g>
     <g id="line2d_14">
      <defs>
       <path id="m6f5dc3fa5e" d="M 0 0 
L -3.5 0 
" style="stroke: #000000; stroke-width: 0.8"/>
      </defs>
      <g>
       <use xlink:href="#m6f5dc3fa5e" x="184.32" y="727.39296" style="stroke: #000000; stroke-width: 0.8"/>
      </g>
     </g>
     <g id="text_8">
      <!-- 0 -->
      <g transform="translate(170.9575 731.192179)scale(0.1 -0.1)">
       <use xlink:href="#DejaVuSans-30"/>
      </g>
     </g>
    </g>
    <g id="ytick_2">
     <g id="line2d_15">
      <path d="M 184.32 608.28768 
L 703.767273 608.28768 
" clip-path="url(#pf434cecae4)" style="fill: none; stroke: #b0b0b0; stroke-width: 0.8; stroke-linecap: square"/>
     </g>
     <g id="line2d_16">
      <g>
       <use xlink:href="#m6f5dc3fa5e" x="184.32" y="608.28768" style="stroke: #000000; stroke-width: 0.8"/>
      </g>
     </g>
     <g id="text_9">
      <!-- 20 -->
      <g transform="translate(164.595 612.086899)scale(0.1 -0.1)">
       <use xlink:href="#DejaVuSans-32"/>
       <use xlink:href="#DejaVuSans-30" x="63.623047"/>
      </g>
     </g>
    </g>
    <g id="ytick_3">
     <g id="line2d_17">
      <path d="M 184.32 489.1824 
L 703.767273 489.1824 
" clip-path="url(#pf434cecae4)" style="fill: none; stroke: #b0b0b0; stroke-width: 0.8; stroke-linecap: square"/>
     </g>
     <g id="line2d_18">
      <g>
       <use xlink:href="#m6f5dc3fa5e" x="184.32" y="489.1824" style="stroke: #000000; stroke-width: 0.8"/>
      </g>
     </g>
     <g id="text_10">
      <!-- 40 -->
      <g transform="translate(164.595 492.981619)scale(0.1 -0.1)">
       <use xlink:href="#DejaVuSans-34"/>
       <use xlink:href="#DejaVuSans-30" x="63.623047"/>
      </g>
     </g>
    </g>
    <g id="ytick_4">
     <g id="line2d_19">
      <path d="M 184.32 370.07712 
L 703.767273 370.07712 
" clip-path="url(#pf434cecae4)" style="fill: none; stroke: #b0b0b0; stroke-width: 0.8; stroke-linecap: square"/>
     </g>
     <g id="line2d_20">
      <g>
       <use xlink:href="#m6f5dc3fa5e" x="184.32" y="370.07712" style="stroke: #000000; stroke-width: 0.8"/>
      </g>
     </g>
     <g id="text_11">
      <!-- 60 -->
      <g transform="translate(164.595 373.876339)scale(0.1 -0.1)">
       <use xlink:href="#DejaVuSans-36"/>
       <use xlink:href="#DejaVuSans-30" x="63.623047"/>
      </g>
     </g>
    </g>
    <g id="ytick_5">
     <g id="line2d_21">
      <path d="M 184.32 250.97184 
L 703.767273 250.97184 
" clip-path="url(#pf434cecae4)" style="fill: none; stroke: #b0b0b0; stroke-width: 0.8; stroke-linecap: square"/>
     </g>
     <g id="line2d_22">
      <g>
       <use xlink:href="#m6f5dc3fa5e" x="184.32" y="250.97184" style="stroke: #000000; stroke-width: 0.8"/>
      </g>
     </g>
     <g id="text_12">
      <!-- 80 -->
      <g transform="translate(164.595 254.771059)scale(0.1 -0.1)">
       <use xlink:href="#DejaVuSans-38"/>
       <use xlink:href="#DejaVuSans-30" x="63.623047"/>
      </g>
     </g>
    </g>
    <g id="ytick_6">
     <g id="line2d_23">
      <path d="M 184.32 131.86656 
L 703.767273 131.86656 
" clip-path="url(#pf434cecae4)" style="fill: none; stroke: #b0b0b0; stroke-width: 0.8; stroke-linecap: square"/>
     </g>
     <g id="line2d_24">
      <g>
       <use xlink:href="#m6f5dc3fa5e" x="184.32" y="131.86656" style="stroke: #000000; stroke-width: 0.8"/>
      </g>
     </g>
     <g id="text_13">
      <!-- 100 -->
      <g transform="translate(158.2325 135.665779)scale(0.1 -0.1)">
       <use xlink:href="#DejaVuSans-31"/>
       <use xlink:href="#DejaVuSans-30" x="63.623047"/>
       <use xlink:href="#DejaVuSans-30" x="127.246094"/>
      </g>
     </g>
    </g>
    <g id="text_14">
     <!-- Hit Rate[3] (%) -->
     <g transform="translate(160.152812 467.114916)rotate(-90)scale(0.1 -0.1)">
      <defs>
       <path id="DejaVuSans-48" d="M 628 4666 
L 1259 4666 
L 1259 2753 
L 3553 2753 
L 3553 4666 
L 4184 4666 
L 4184 0 
L 3553 0 
L 3553 2222 
L 1259 2222 
L 1259 0 
L 628 0 
L 628 4666 
z
" transform="scale(0.015625)"/>
       <path id="DejaVuSans-74" d="M 1172 4494 
L 1172 3500 
L 2356 3500 
L 2356 3053 
L 1172 3053 
L 1172 1153 
Q 1172 725 1289 603 
Q 1406 481 1766 481 
L 2356 481 
L 2356 0 
L 1766 0 
Q 1100 0 847 248 
Q 594 497 594 1153 
L 594 3053 
L 172 3053 
L 172 3500 
L 594 3500 
L 594 4494 
L 1172 4494 
z
" transform="scale(0.015625)"/>
       <path id="DejaVuSans-52" d="M 2841 2188 
Q 3044 2119 3236 1894 
Q 3428 1669 3622 1275 
L 4263 0 
L 3584 0 
L 2988 1197 
Q 2756 1666 2539 1819 
Q 2322 1972 1947 1972 
L 1259 1972 
L 1259 0 
L 628 0 
L 628 4666 
L 2053 4666 
Q 2853 4666 3247 4331 
Q 3641 3997 3641 3322 
Q 3641 2881 3436 2590 
Q 3231 2300 2841 2188 
z
M 1259 4147 
L 1259 2491 
L 2053 2491 
Q 2509 2491 2742 2702 
Q 2975 2913 2975 3322 
Q 2975 3731 2742 3939 
Q 2509 4147 2053 4147 
L 1259 4147 
z
" transform="scale(0.015625)"/>
       <path id="DejaVuSans-5b" d="M 550 4863 
L 1875 4863 
L 1875 4416 
L 1125 4416 
L 1125 -397 
L 1875 -397 
L 1875 -844 
L 550 -844 
L 550 4863 
z
" transform="scale(0.015625)"/>
       <path id="DejaVuSans-33" d="M 2597 2516 
Q 3050 2419 3304 2112 
Q 3559 1806 3559 1356 
Q 3559 666 3084 287 
Q 2609 -91 1734 -91 
Q 1441 -91 1130 -33 
Q 819 25 488 141 
L 488 750 
Q 750 597 1062 519 
Q 1375 441 1716 441 
Q 2309 441 2620 675 
Q 2931 909 2931 1356 
Q 2931 1769 2642 2001 
Q 2353 2234 1838 2234 
L 1294 2234 
L 1294 2753 
L 1863 2753 
Q 2328 2753 2575 2939 
Q 2822 3125 2822 3475 
Q 2822 3834 2567 4026 
Q 2313 4219 1838 4219 
Q 1578 4219 1281 4162 
Q 984 4106 628 3988 
L 628 4550 
Q 988 4650 1302 4700 
Q 1616 4750 1894 4750 
Q 2613 4750 3031 4423 
Q 3450 4097 3450 3541 
Q 3450 3153 3228 2886 
Q 3006 2619 2597 2516 
z
" transform="scale(0.015625)"/>
       <path id="DejaVuSans-5d" d="M 1947 4863 
L 1947 -844 
L 622 -844 
L 622 -397 
L 1369 -397 
L 1369 4416 
L 622 4416 
L 622 4863 
L 1947 4863 
z
" transform="scale(0.015625)"/>
      </defs>
      <use xlink:href="#DejaVuSans-48"/>
      <use xlink:href="#DejaVuSans-69" x="75.195312"/>
      <use xlink:href="#DejaVuSans-74" x="102.978516"/>
      <use xlink:href="#DejaVuSans-20" x="142.1875"/>
      <use xlink:href="#DejaVuSans-52" x="173.974609"/>
      <use xlink:href="#DejaVuSans-61" x="241.207031"/>
      <use xlink:href="#DejaVuSans-74" x="302.486328"/>
      <use xlink:href="#DejaVuSans-65" x="341.695312"/>
      <use xlink:href="#DejaVuSans-5b" x="403.21875"/>
      <use xlink:href="#DejaVuSans-33" x="442.232422"/>
      <use xlink:href="#DejaVuSans-5d" x="505.855469"/>
      <use xlink:href="#DejaVuSans-20" x="544.869141"/>
      <use xlink:href="#DejaVuSans-28" x="576.65625"/>
      <use xlink:href="#DejaVuSans-25" x="615.669922"/>
      <use xlink:href="#DejaVuSans-29" x="710.689453"/>
     </g>
    </g>
   </g>
   <g id="line2d_25">
    <path d="M 231.542479 372.55987 
L 240.986975 331.771671 
L 255.153719 288.087427 
L 278.764959 240.158272 
L 302.376198 209.154572 
L 349.598678 175.307233 
L 396.821157 161.189684 
L 444.043636 153.937959 
L 491.266116 149.210671 
L 585.711074 143.656792 
L 632.933554 137.833139 
L 680.156033 131.86656 
" clip-path="url(#pf434cecae4)" style="fill: none; stroke: #4169e1; stroke-width: 1.5; stroke-linecap: square"/>
   </g>
   <g id="line2d_26">
    <path d="M 231.542479 373.156587 
L 240.986975 332.610172 
L 255.153719 289.639369 
L 278.764959 242.839331 
L 302.376198 212.81825 
L 349.598678 177.557728 
L 396.821157 159.543649 
L 444.043636 150.614922 
L 491.266116 145.901926 
L 585.711074 141.068634 
L 632.933554 138.760374 
L 680.156033 131.86656 
" clip-path="url(#pf434cecae4)" style="fill: none; stroke-dasharray: 1.5,2.475; stroke-dashoffset: 0; stroke: #4169e1; stroke-width: 1.5"/>
   </g>
   <g id="line2d_27">
    <path d="M 231.542479 465.629926 
L 240.986975 422.93247 
L 255.153719 375.289167 
L 278.764959 319.37162 
L 302.376198 280.856546 
L 349.598678 229.182125 
L 396.821157 198.379117 
L 444.043636 178.564763 
L 491.266116 166.573839 
L 585.711074 148.105969 
L 632.933554 139.343394 
L 680.156033 131.86656 
" clip-path="url(#pf434cecae4)" style="fill: none; stroke: #d2691e; stroke-width: 1.5; stroke-linecap: square"/>
   </g>
   <g id="line2d_28">
    <path d="M 231.542479 373.455541 
L 240.986975 328.524861 
L 255.153719 281.569391 
L 278.764959 237.281879 
L 302.376198 216.009081 
L 349.598678 188.396308 
L 396.821157 173.757078 
L 444.043636 163.94459 
L 491.266116 156.574355 
L 585.711074 145.706594 
L 632.933554 138.644841 
L 680.156033 131.86656 
" clip-path="url(#pf434cecae4)" style="fill: none; stroke-dasharray: 1.5,2.475; stroke-dashoffset: 0; stroke: #d2691e; stroke-width: 1.5"/>
   </g>
   <g id="line2d_29">
    <path d="M 231.542479 467.975705 
L 240.986975 425.912484 
L 255.153719 375.354675 
L 278.764959 319.318618 
L 302.376198 277.744325 
L 349.598678 231.96621 
L 396.821157 202.995638 
L 444.043636 178.118118 
L 491.266116 167.432588 
L 585.711074 147.842747 
L 632.933554 139.550637 
L 680.156033 131.86656 
" clip-path="url(#pf434cecae4)" style="fill: none; stroke: #6b8e23; stroke-width: 1.5; stroke-linecap: square"/>
   </g>
   <g id="line2d_30">
    <path d="M 231.542479 370.163471 
L 240.986975 328.54094 
L 255.153719 283.517358 
L 278.764959 234.532334 
L 302.376198 205.716598 
L 349.598678 179.289518 
L 396.821157 166.794183 
L 444.043636 158.832591 
L 491.266116 152.760604 
L 585.711074 144.967545 
L 632.933554 137.94212 
L 680.156033 131.86656 
" clip-path="url(#pf434cecae4)" style="fill: none; stroke-dasharray: 1.5,2.475; stroke-dashoffset: 0; stroke: #6b8e23; stroke-width: 1.5"/>
   </g>
   <g id="line2d_31">
    <path d="M 231.542479 456.597577 
L 240.986975 414.80413 
L 255.153719 368.138086 
L 278.764959 313.43184 
L 302.376198 275.865439 
L 349.598678 226.566573 
L 396.821157 197.695453 
L 444.043636 178.865503 
L 491.266116 165.502487 
L 585.711074 148.326314 
L 632.933554 138.96047 
L 680.156033 131.86656 
" clip-path="url(#pf434cecae4)" style="fill: none; stroke: #00bfff; stroke-width: 1.5; stroke-linecap: square"/>
   </g>
   <g id="line2d_32">
    <path d="M 231.542479 415.694442 
L 240.986975 379.270857 
L 255.153719 339.651081 
L 278.764959 293.994454 
L 302.376198 261.961684 
L 349.598678 218.525775 
L 396.821157 188.465985 
L 444.043636 177.394553 
L 491.266116 162.399794 
L 585.711074 150.489266 
L 632.933554 148.308448 
L 680.156033 131.86656 
" clip-path="url(#pf434cecae4)" style="fill: none; stroke-dasharray: 1.5,2.475; stroke-dashoffset: 0; stroke: #00bfff; stroke-width: 1.5"/>
   </g>
   <g id="line2d_33">
    <path d="M 231.542479 372.985075 
L 240.986975 332.314195 
L 255.153719 289.087316 
L 278.764959 241.805498 
L 302.376198 211.287152 
L 349.598678 175.794374 
L 396.821157 159.731836 
L 444.043636 152.12339 
L 491.266116 147.692674 
L 585.711074 141.990509 
L 632.933554 138.303605 
L 680.156033 131.86656 
" clip-path="url(#pf434cecae4)" style="fill: none; stroke: #c0c0c0; stroke-width: 1.5; stroke-linecap: square"/>
   </g>
   <g id="line2d_34">
    <path d="M 207.93124 727.39296 
L 208.056153 687.828652 
L 208.390186 650.011685 
L 208.896532 616.839777 
L 209.571846 587.023994 
L 210.397726 560.092385 
L 211.381421 535.180496 
L 212.526834 511.724194 
L 213.803853 490.112954 
L 215.175114 470.556439 
L 216.69973 451.973849 
L 218.350374 434.58283 
L 220.082435 418.618695 
L 221.955024 403.395997 
L 223.967026 388.880206 
L 226.020851 375.607962 
L 228.234722 362.764773 
L 230.459188 351.13246 
L 232.829201 339.880049 
L 235.207021 329.592371 
L 237.676296 319.838645 
L 240.282195 310.423201 
L 243.00297 301.414321 
L 245.796797 292.909233 
L 248.494708 285.334301 
L 251.587993 277.319842 
L 254.584804 270.146988 
L 257.963049 262.681752 
L 261.058007 256.34734 
L 264.557819 249.697024 
L 268.384414 243.002534 
L 271.60317 237.784573 
L 275.330503 232.1459 
L 279.434808 226.40002 
L 283.951216 220.59151 
L 287.299347 216.595481 
L 291.032257 212.413134 
L 295.182847 208.070817 
L 299.757808 203.629253 
L 304.89265 199.03162 
L 310.733477 194.244844 
L 317.428624 189.269508 
L 320.91561 186.882779 
L 324.698151 184.431673 
L 328.85376 181.890176 
L 333.382994 179.288047 
L 338.326562 176.632548 
L 343.654351 173.972857 
L 349.72716 171.165887 
L 356.363754 168.351876 
L 363.908202 165.437923 
L 372.589699 162.414251 
L 382.426089 159.36672 
L 394.066477 156.205636 
L 407.958656 152.968222 
L 425.536345 149.547472 
L 448.741281 145.927623 
L 482.144522 142.010009 
L 539.160898 137.53611 
L 680.156033 131.86656 
L 680.156033 131.86656 
" clip-path="url(#pf434cecae4)" style="fill: none; stroke: #c0c0c0; stroke-width: 1.5; stroke-linecap: square"/>
   </g>
   <g id="patch_3">
    <path d="M 184.32 757.16928 
L 184.32 102.09024 
" style="fill: none; stroke: #000000; stroke-width: 0.8; stroke-linejoin: miter; stroke-linecap: square"/>
   </g>
   <g id="patch_4">
    <path d="M 703.767273 757.16928 
L 703.767273 102.09024 
" style="fill: none; stroke: #000000; stroke-width: 0.8; stroke-linejoin: miter; stroke-linecap: square"/>
   </g>
   <g id="patch_5">
    <path d="M 184.32 757.16928 
L 703.767273 757.16928 
" style="fill: none; stroke: #000000; stroke-width: 0.8; stroke-linejoin: miter; stroke-linecap: square"/>
   </g>
   <g id="patch_6">
    <path d="M 184.32 102.09024 
L 703.767273 102.09024 
" style="fill: none; stroke: #000000; stroke-width: 0.8; stroke-linejoin: miter; stroke-linecap: square"/>
   </g>
   <g id="text_15">
    <!-- ad -->
    <g transform="translate(436.557699 96.09024)scale(0.12 -0.12)">
     <defs>
      <path id="DejaVuSans-64" d="M 2906 2969 
L 2906 4863 
L 3481 4863 
L 3481 0 
L 2906 0 
L 2906 525 
Q 2725 213 2448 61 
Q 2172 -91 1784 -91 
Q 1150 -91 751 415 
Q 353 922 353 1747 
Q 353 2572 751 3078 
Q 1150 3584 1784 3584 
Q 2172 3584 2448 3432 
Q 2725 3281 2906 2969 
z
M 947 1747 
Q 947 1113 1208 752 
Q 1469 391 1925 391 
Q 2381 391 2643 752 
Q 2906 1113 2906 1747 
Q 2906 2381 2643 2742 
Q 2381 3103 1925 3103 
Q 1469 3103 1208 2742 
Q 947 2381 947 1747 
z
" transform="scale(0.015625)"/>
     </defs>
     <use xlink:href="#DejaVuSans-61"/>
     <use xlink:href="#DejaVuSans-64" x="61.279297"/>
    </g>
   </g>
   <g id="legend_1">
    <g id="patch_7">
     <path d="M 620.19696 752.16928 
L 696.767273 752.16928 
Q 698.767273 752.16928 698.767273 750.16928 
L 698.767273 604.38803 
Q 698.767273 602.38803 696.767273 602.38803 
L 620.19696 602.38803 
Q 618.19696 602.38803 618.19696 604.38803 
L 618.19696 750.16928 
Q 618.19696 752.16928 620.19696 752.16928 
z
" style="fill: #ffffff; opacity: 0.8; stroke: #cccccc; stroke-linejoin: miter"/>
    </g>
    <g id="line2d_35">
     <path d="M 622.19696 610.486468 
L 632.19696 610.486468 
L 642.19696 610.486468 
" style="fill: none; stroke: #4169e1; stroke-width: 1.5; stroke-linecap: square"/>
    </g>
    <g id="text_16">
     <!-- ALFU2 -->
     <g transform="translate(650.19696 613.986468)scale(0.1 -0.1)">
      <defs>
       <path id="DejaVuSans-41" d="M 2188 4044 
L 1331 1722 
L 3047 1722 
L 2188 4044 
z
M 1831 4666 
L 2547 4666 
L 4325 0 
L 3669 0 
L 3244 1197 
L 1141 1197 
L 716 0 
L 50 0 
L 1831 4666 
z
" transform="scale(0.015625)"/>
       <path id="DejaVuSans-4c" d="M 628 4666 
L 1259 4666 
L 1259 531 
L 3531 531 
L 3531 0 
L 628 0 
L 628 4666 
z
" transform="scale(0.015625)"/>
       <path id="DejaVuSans-46" d="M 628 4666 
L 3309 4666 
L 3309 4134 
L 1259 4134 
L 1259 2759 
L 3109 2759 
L 3109 2228 
L 1259 2228 
L 1259 0 
L 628 0 
L 628 4666 
z
" transform="scale(0.015625)"/>
       <path id="DejaVuSans-55" d="M 556 4666 
L 1191 4666 
L 1191 1831 
Q 1191 1081 1462 751 
Q 1734 422 2344 422 
Q 2950 422 3222 751 
Q 3494 1081 3494 1831 
L 3494 4666 
L 4128 4666 
L 4128 1753 
Q 4128 841 3676 375 
Q 3225 -91 2344 -91 
Q 1459 -91 1007 375 
Q 556 841 556 1753 
L 556 4666 
z
" transform="scale(0.015625)"/>
      </defs>
      <use xlink:href="#DejaVuSans-41"/>
      <use xlink:href="#DejaVuSans-4c" x="68.408203"/>
      <use xlink:href="#DejaVuSans-46" x="124.121094"/>
      <use xlink:href="#DejaVuSans-55" x="181.640625"/>
      <use xlink:href="#DejaVuSans-32" x="254.833984"/>
     </g>
    </g>
    <g id="line2d_36">
     <path d="M 622.19696 625.164593 
L 632.19696 625.164593 
L 642.19696 625.164593 
" style="fill: none; stroke-dasharray: 1.5,2.475; stroke-dashoffset: 0; stroke: #4169e1; stroke-width: 1.5"/>
    </g>
    <g id="text_17">
     <!-- ALFU0 -->
     <g transform="translate(650.19696 628.664593)scale(0.1 -0.1)">
      <use xlink:href="#DejaVuSans-41"/>
      <use xlink:href="#DejaVuSans-4c" x="68.408203"/>
      <use xlink:href="#DejaVuSans-46" x="124.121094"/>
      <use xlink:href="#DejaVuSans-55" x="181.640625"/>
      <use xlink:href="#DejaVuSans-30" x="254.833984"/>
     </g>
    </g>
    <g id="line2d_37">
     <path d="M 622.19696 639.842718 
L 632.19696 639.842718 
L 642.19696 639.842718 
" style="fill: none; stroke: #d2691e; stroke-width: 1.5; stroke-linecap: square"/>
    </g>
    <g id="text_18">
     <!-- ALFU100 -->
     <g transform="translate(650.19696 643.342718)scale(0.1 -0.1)">
      <use xlink:href="#DejaVuSans-41"/>
      <use xlink:href="#DejaVuSans-4c" x="68.408203"/>
      <use xlink:href="#DejaVuSans-46" x="124.121094"/>
      <use xlink:href="#DejaVuSans-55" x="181.640625"/>
      <use xlink:href="#DejaVuSans-31" x="254.833984"/>
      <use xlink:href="#DejaVuSans-30" x="318.457031"/>
      <use xlink:href="#DejaVuSans-30" x="382.080078"/>
     </g>
    </g>
    <g id="line2d_38">
     <path d="M 622.19696 654.520843 
L 632.19696 654.520843 
L 642.19696 654.520843 
" style="fill: none; stroke-dasharray: 1.5,2.475; stroke-dashoffset: 0; stroke: #d2691e; stroke-width: 1.5"/>
    </g>
    <g id="text_19">
     <!-- ALFU10 -->
     <g transform="translate(650.19696 658.020843)scale(0.1 -0.1)">
      <use xlink:href="#DejaVuSans-41"/>
      <use xlink:href="#DejaVuSans-4c" x="68.408203"/>
      <use xlink:href="#DejaVuSans-46" x="124.121094"/>
      <use xlink:href="#DejaVuSans-55" x="181.640625"/>
      <use xlink:href="#DejaVuSans-31" x="254.833984"/>
      <use xlink:href="#DejaVuSans-30" x="318.457031"/>
     </g>
    </g>
    <g id="line2d_39">
     <path d="M 622.19696 669.198968 
L 632.19696 669.198968 
L 642.19696 669.198968 
" style="fill: none; stroke: #6b8e23; stroke-width: 1.5; stroke-linecap: square"/>
    </g>
    <g id="text_20">
     <!-- ALFU500 -->
     <g transform="translate(650.19696 672.698968)scale(0.1 -0.1)">
      <defs>
       <path id="DejaVuSans-35" d="M 691 4666 
L 3169 4666 
L 3169 4134 
L 1269 4134 
L 1269 2991 
Q 1406 3038 1543 3061 
Q 1681 3084 1819 3084 
Q 2600 3084 3056 2656 
Q 3513 2228 3513 1497 
Q 3513 744 3044 326 
Q 2575 -91 1722 -91 
Q 1428 -91 1123 -41 
Q 819 9 494 109 
L 494 744 
Q 775 591 1075 516 
Q 1375 441 1709 441 
Q 2250 441 2565 725 
Q 2881 1009 2881 1497 
Q 2881 1984 2565 2268 
Q 2250 2553 1709 2553 
Q 1456 2553 1204 2497 
Q 953 2441 691 2322 
L 691 4666 
z
" transform="scale(0.015625)"/>
      </defs>
      <use xlink:href="#DejaVuSans-41"/>
      <use xlink:href="#DejaVuSans-4c" x="68.408203"/>
      <use xlink:href="#DejaVuSans-46" x="124.121094"/>
      <use xlink:href="#DejaVuSans-55" x="181.640625"/>
      <use xlink:href="#DejaVuSans-35" x="254.833984"/>
      <use xlink:href="#DejaVuSans-30" x="318.457031"/>
      <use xlink:href="#DejaVuSans-30" x="382.080078"/>
     </g>
    </g>
    <g id="line2d_40">
     <path d="M 622.19696 683.877093 
L 632.19696 683.877093 
L 642.19696 683.877093 
" style="fill: none; stroke-dasharray: 1.5,2.475; stroke-dashoffset: 0; stroke: #6b8e23; stroke-width: 1.5"/>
    </g>
    <g id="text_21">
     <!-- ALFU5 -->
     <g transform="translate(650.19696 687.377093)scale(0.1 -0.1)">
      <use xlink:href="#DejaVuSans-41"/>
      <use xlink:href="#DejaVuSans-4c" x="68.408203"/>
      <use xlink:href="#DejaVuSans-46" x="124.121094"/>
      <use xlink:href="#DejaVuSans-55" x="181.640625"/>
      <use xlink:href="#DejaVuSans-35" x="254.833984"/>
     </g>
    </g>
    <g id="line2d_41">
     <path d="M 622.19696 698.555218 
L 632.19696 698.555218 
L 642.19696 698.555218 
" style="fill: none; stroke: #00bfff; stroke-width: 1.5; stroke-linecap: square"/>
    </g>
    <g id="text_22">
     <!-- ALFU50 -->
     <g transform="translate(650.19696 702.055218)scale(0.1 -0.1)">
      <use xlink:href="#DejaVuSans-41"/>
      <use xlink:href="#DejaVuSans-4c" x="68.408203"/>
      <use xlink:href="#DejaVuSans-46" x="124.121094"/>
      <use xlink:href="#DejaVuSans-55" x="181.640625"/>
      <use xlink:href="#DejaVuSans-35" x="254.833984"/>
      <use xlink:href="#DejaVuSans-30" x="318.457031"/>
     </g>
    </g>
    <g id="line2d_42">
     <path d="M 622.19696 713.233343 
L 632.19696 713.233343 
L 642.19696 713.233343 
" style="fill: none; stroke-dasharray: 1.5,2.475; stroke-dashoffset: 0; stroke: #00bfff; stroke-width: 1.5"/>
    </g>
    <g id="text_23">
     <!-- ARC -->
     <g transform="translate(650.19696 716.733343)scale(0.1 -0.1)">
      <use xlink:href="#DejaVuSans-41"/>
      <use xlink:href="#DejaVuSans-52" x="68.408203"/>
      <use xlink:href="#DejaVuSans-43" x="132.890625"/>
     </g>
    </g>
    <g id="line2d_43">
     <path d="M 622.19696 727.911468 
L 632.19696 727.911468 
L 642.19696 727.911468 
" style="fill: none; stroke: #c0c0c0; stroke-width: 1.5; stroke-linecap: square"/>
    </g>
    <g id="text_24">
     <!-- ALFU1 -->
     <g transform="translate(650.19696 731.411468)scale(0.1 -0.1)">
      <use xlink:href="#DejaVuSans-41"/>
      <use xlink:href="#DejaVuSans-4c" x="68.408203"/>
      <use xlink:href="#DejaVuSans-46" x="124.121094"/>
      <use xlink:href="#DejaVuSans-55" x="181.640625"/>
      <use xlink:href="#DejaVuSans-31" x="254.833984"/>
     </g>
    </g>
    <g id="line2d_44">
     <path d="M 622.19696 742.589593 
L 632.19696 742.589593 
L 642.19696 742.589593 
" style="fill: none; stroke: #c0c0c0; stroke-width: 1.5; stroke-linecap: square"/>
    </g>
    <g id="text_25">
     <!-- dist -->
     <g transform="translate(650.19696 746.089593)scale(0.1 -0.1)">
      <defs>
       <path id="DejaVuSans-73" d="M 2834 3397 
L 2834 2853 
Q 2591 2978 2328 3040 
Q 2066 3103 1784 3103 
Q 1356 3103 1142 2972 
Q 928 2841 928 2578 
Q 928 2378 1081 2264 
Q 1234 2150 1697 2047 
L 1894 2003 
Q 2506 1872 2764 1633 
Q 3022 1394 3022 966 
Q 3022 478 2636 193 
Q 2250 -91 1575 -91 
Q 1294 -91 989 -36 
Q 684 19 347 128 
L 347 722 
Q 666 556 975 473 
Q 1284 391 1588 391 
Q 1994 391 2212 530 
Q 2431 669 2431 922 
Q 2431 1156 2273 1281 
Q 2116 1406 1581 1522 
L 1381 1569 
Q 847 1681 609 1914 
Q 372 2147 372 2553 
Q 372 3047 722 3315 
Q 1072 3584 1716 3584 
Q 2034 3584 2315 3537 
Q 2597 3491 2834 3397 
z
" transform="scale(0.015625)"/>
      </defs>
      <use xlink:href="#DejaVuSans-64"/>
      <use xlink:href="#DejaVuSans-69" x="63.476562"/>
      <use xlink:href="#DejaVuSans-73" x="91.259766"/>
      <use xlink:href="#DejaVuSans-74" x="143.359375"/>
     </g>
    </g>
   </g>
  </g>
  <g id="axes_2">
   <g id="patch_8">
    <path d="M 807.656727 757.16928 
L 1327.104 757.16928 
L 1327.104 102.09024 
L 807.656727 102.09024 
z
" style="fill: #ffffff"/>
   </g>
   <g id="matplotlib.axis_3">
    <g id="xtick_7">
     <g id="line2d_45">
      <path d="M 831.267967 757.16928 
L 831.267967 102.09024 
" clip-path="url(#paa25ddca34)" style="fill: none; stroke: #b0b0b0; stroke-width: 0.8; stroke-linecap: square"/>
     </g>
     <g id="line2d_46">
      <g>
       <use xlink:href="#m9a34b785e7" x="831.267967" y="757.16928" style="stroke: #000000; stroke-width: 0.8"/>
      </g>
     </g>
     <g id="text_26">
      <!-- 0 -->
      <g transform="translate(828.086717 771.767718)scale(0.1 -0.1)">
       <use xlink:href="#DejaVuSans-30"/>
      </g>
     </g>
    </g>
    <g id="xtick_8">
     <g id="line2d_47">
      <path d="M 925.712926 757.16928 
L 925.712926 102.09024 
" clip-path="url(#paa25ddca34)" style="fill: none; stroke: #b0b0b0; stroke-width: 0.8; stroke-linecap: square"/>
     </g>
     <g id="line2d_48">
      <g>
       <use xlink:href="#m9a34b785e7" x="925.712926" y="757.16928" style="stroke: #000000; stroke-width: 0.8"/>
      </g>
     </g>
     <g id="text_27">
      <!-- 20 -->
      <g transform="translate(919.350426 771.767718)scale(0.1 -0.1)">
       <use xlink:href="#DejaVuSans-32"/>
       <use xlink:href="#DejaVuSans-30" x="63.623047"/>
      </g>
     </g>
    </g>
    <g id="xtick_9">
     <g id="line2d_49">
      <path d="M 1020.157884 757.16928 
L 1020.157884 102.09024 
" clip-path="url(#paa25ddca34)" style="fill: none; stroke: #b0b0b0; stroke-width: 0.8; stroke-linecap: square"/>
     </g>
     <g id="line2d_50">
      <g>
       <use xlink:href="#m9a34b785e7" x="1020.157884" y="757.16928" style="stroke: #000000; stroke-width: 0.8"/>
      </g>
     </g>
     <g id="text_28">
      <!-- 40 -->
      <g transform="translate(1013.795384 771.767718)scale(0.1 -0.1)">
       <use xlink:href="#DejaVuSans-34"/>
       <use xlink:href="#DejaVuSans-30" x="63.623047"/>
      </g>
     </g>
    </g>
    <g id="xtick_10">
     <g id="line2d_51">
      <path d="M 1114.602843 757.16928 
L 1114.602843 102.09024 
" clip-path="url(#paa25ddca34)" style="fill: none; stroke: #b0b0b0; stroke-width: 0.8; stroke-linecap: square"/>
     </g>
     <g id="line2d_52">
      <g>
       <use xlink:href="#m9a34b785e7" x="1114.602843" y="757.16928" style="stroke: #000000; stroke-width: 0.8"/>
      </g>
     </g>
     <g id="text_29">
      <!-- 60 -->
      <g transform="translate(1108.240343 771.767718)scale(0.1 -0.1)">
       <use xlink:href="#DejaVuSans-36"/>
       <use xlink:href="#DejaVuSans-30" x="63.623047"/>
      </g>
     </g>
    </g>
    <g id="xtick_11">
     <g id="line2d_53">
      <path d="M 1209.047802 757.16928 
L 1209.047802 102.09024 
" clip-path="url(#paa25ddca34)" style="fill: none; stroke: #b0b0b0; stroke-width: 0.8; stroke-linecap: square"/>
     </g>
     <g id="line2d_54">
      <g>
       <use xlink:href="#m9a34b785e7" x="1209.047802" y="757.16928" style="stroke: #000000; stroke-width: 0.8"/>
      </g>
     </g>
     <g id="text_30">
      <!-- 80 -->
      <g transform="translate(1202.685302 771.767718)scale(0.1 -0.1)">
       <use xlink:href="#DejaVuSans-38"/>
       <use xlink:href="#DejaVuSans-30" x="63.623047"/>
      </g>
     </g>
    </g>
    <g id="xtick_12">
     <g id="line2d_55">
      <path d="M 1303.49276 757.16928 
L 1303.49276 102.09024 
" clip-path="url(#paa25ddca34)" style="fill: none; stroke: #b0b0b0; stroke-width: 0.8; stroke-linecap: square"/>
     </g>
     <g id="line2d_56">
      <g>
       <use xlink:href="#m9a34b785e7" x="1303.49276" y="757.16928" style="stroke: #000000; stroke-width: 0.8"/>
      </g>
     </g>
     <g id="text_31">
      <!-- 100 -->
      <g transform="translate(1293.94901 771.767718)scale(0.1 -0.1)">
       <use xlink:href="#DejaVuSans-31"/>
       <use xlink:href="#DejaVuSans-30" x="63.623047"/>
       <use xlink:href="#DejaVuSans-30" x="127.246094"/>
      </g>
     </g>
    </g>
    <g id="text_32">
     <!-- Cache Size(%) -->
     <g transform="translate(1031.324895 785.445843)scale(0.1 -0.1)">
      <use xlink:href="#DejaVuSans-43"/>
      <use xlink:href="#DejaVuSans-61" x="69.824219"/>
      <use xlink:href="#DejaVuSans-63" x="131.103516"/>
      <use xlink:href="#DejaVuSans-68" x="186.083984"/>
      <use xlink:href="#DejaVuSans-65" x="249.462891"/>
      <use xlink:href="#DejaVuSans-20" x="310.986328"/>
      <use xlink:href="#DejaVuSans-53" x="342.773438"/>
      <use xlink:href="#DejaVuSans-69" x="406.25"/>
      <use xlink:href="#DejaVuSans-7a" x="434.033203"/>
      <use xlink:href="#DejaVuSans-65" x="486.523438"/>
      <use xlink:href="#DejaVuSans-28" x="548.046875"/>
      <use xlink:href="#DejaVuSans-25" x="587.060547"/>
      <use xlink:href="#DejaVuSans-29" x="682.080078"/>
     </g>
    </g>
   </g>
   <g id="matplotlib.axis_4">
    <g id="ytick_7">
     <g id="line2d_57">
      <path d="M 807.656727 727.39296 
L 1327.104 727.39296 
" clip-path="url(#paa25ddca34)" style="fill: none; stroke: #b0b0b0; stroke-width: 0.8; stroke-linecap: square"/>
     </g>
     <g id="line2d_58">
      <g>
       <use xlink:href="#m6f5dc3fa5e" x="807.656727" y="727.39296" style="stroke: #000000; stroke-width: 0.8"/>
      </g>
     </g>
     <g id="text_33">
      <!-- 0 -->
      <g transform="translate(794.294227 731.192179)scale(0.1 -0.1)">
       <use xlink:href="#DejaVuSans-30"/>
      </g>
     </g>
    </g>
    <g id="ytick_8">
     <g id="line2d_59">
      <path d="M 807.656727 608.28768 
L 1327.104 608.28768 
" clip-path="url(#paa25ddca34)" style="fill: none; stroke: #b0b0b0; stroke-width: 0.8; stroke-linecap: square"/>
     </g>
     <g id="line2d_60">
      <g>
       <use xlink:href="#m6f5dc3fa5e" x="807.656727" y="608.28768" style="stroke: #000000; stroke-width: 0.8"/>
      </g>
     </g>
     <g id="text_34">
      <!-- 20 -->
      <g transform="translate(787.931727 612.086899)scale(0.1 -0.1)">
       <use xlink:href="#DejaVuSans-32"/>
       <use xlink:href="#DejaVuSans-30" x="63.623047"/>
      </g>
     </g>
    </g>
    <g id="ytick_9">
     <g id="line2d_61">
      <path d="M 807.656727 489.1824 
L 1327.104 489.1824 
" clip-path="url(#paa25ddca34)" style="fill: none; stroke: #b0b0b0; stroke-width: 0.8; stroke-linecap: square"/>
     </g>
     <g id="line2d_62">
      <g>
       <use xlink:href="#m6f5dc3fa5e" x="807.656727" y="489.1824" style="stroke: #000000; stroke-width: 0.8"/>
      </g>
     </g>
     <g id="text_35">
      <!-- 40 -->
      <g transform="translate(787.931727 492.981619)scale(0.1 -0.1)">
       <use xlink:href="#DejaVuSans-34"/>
       <use xlink:href="#DejaVuSans-30" x="63.623047"/>
      </g>
     </g>
    </g>
    <g id="ytick_10">
     <g id="line2d_63">
      <path d="M 807.656727 370.07712 
L 1327.104 370.07712 
" clip-path="url(#paa25ddca34)" style="fill: none; stroke: #b0b0b0; stroke-width: 0.8; stroke-linecap: square"/>
     </g>
     <g id="line2d_64">
      <g>
       <use xlink:href="#m6f5dc3fa5e" x="807.656727" y="370.07712" style="stroke: #000000; stroke-width: 0.8"/>
      </g>
     </g>
     <g id="text_36">
      <!-- 60 -->
      <g transform="translate(787.931727 373.876339)scale(0.1 -0.1)">
       <use xlink:href="#DejaVuSans-36"/>
       <use xlink:href="#DejaVuSans-30" x="63.623047"/>
      </g>
     </g>
    </g>
    <g id="ytick_11">
     <g id="line2d_65">
      <path d="M 807.656727 250.97184 
L 1327.104 250.97184 
" clip-path="url(#paa25ddca34)" style="fill: none; stroke: #b0b0b0; stroke-width: 0.8; stroke-linecap: square"/>
     </g>
     <g id="line2d_66">
      <g>
       <use xlink:href="#m6f5dc3fa5e" x="807.656727" y="250.97184" style="stroke: #000000; stroke-width: 0.8"/>
      </g>
     </g>
     <g id="text_37">
      <!-- 80 -->
      <g transform="translate(787.931727 254.771059)scale(0.1 -0.1)">
       <use xlink:href="#DejaVuSans-38"/>
       <use xlink:href="#DejaVuSans-30" x="63.623047"/>
      </g>
     </g>
    </g>
    <g id="ytick_12">
     <g id="line2d_67">
      <path d="M 807.656727 131.86656 
L 1327.104 131.86656 
" clip-path="url(#paa25ddca34)" style="fill: none; stroke: #b0b0b0; stroke-width: 0.8; stroke-linecap: square"/>
     </g>
     <g id="line2d_68">
      <g>
       <use xlink:href="#m6f5dc3fa5e" x="807.656727" y="131.86656" style="stroke: #000000; stroke-width: 0.8"/>
      </g>
     </g>
     <g id="text_38">
      <!-- 100 -->
      <g transform="translate(781.569227 135.665779)scale(0.1 -0.1)">
       <use xlink:href="#DejaVuSans-31"/>
       <use xlink:href="#DejaVuSans-30" x="63.623047"/>
       <use xlink:href="#DejaVuSans-30" x="127.246094"/>
      </g>
     </g>
    </g>
    <g id="text_39">
     <!-- Hit Rate[3] (%) -->
     <g transform="translate(783.48954 467.114916)rotate(-90)scale(0.1 -0.1)">
      <use xlink:href="#DejaVuSans-48"/>
      <use xlink:href="#DejaVuSans-69" x="75.195312"/>
      <use xlink:href="#DejaVuSans-74" x="102.978516"/>
      <use xlink:href="#DejaVuSans-20" x="142.1875"/>
      <use xlink:href="#DejaVuSans-52" x="173.974609"/>
      <use xlink:href="#DejaVuSans-61" x="241.207031"/>
      <use xlink:href="#DejaVuSans-74" x="302.486328"/>
      <use xlink:href="#DejaVuSans-65" x="341.695312"/>
      <use xlink:href="#DejaVuSans-5b" x="403.21875"/>
      <use xlink:href="#DejaVuSans-33" x="442.232422"/>
      <use xlink:href="#DejaVuSans-5d" x="505.855469"/>
      <use xlink:href="#DejaVuSans-20" x="544.869141"/>
      <use xlink:href="#DejaVuSans-28" x="576.65625"/>
      <use xlink:href="#DejaVuSans-25" x="615.669922"/>
      <use xlink:href="#DejaVuSans-29" x="710.689453"/>
     </g>
    </g>
   </g>
   <g id="line2d_69">
    <path d="M 854.879207 484.101369 
L 864.323702 447.376447 
L 878.490446 403.900042 
L 902.101686 348.164131 
L 925.712926 305.265982 
L 972.935405 245.0267 
L 1020.157884 209.416603 
L 1067.380364 187.639989 
L 1114.602843 172.844732 
L 1209.047802 151.433771 
L 1256.270281 142.528269 
L 1303.49276 131.86656 
" clip-path="url(#paa25ddca34)" style="fill: none; stroke: #4169e1; stroke-width: 1.5; stroke-linecap: square"/>
   </g>
   <g id="line2d_70">
    <path d="M 854.879207 485.673558 
L 864.323702 449.69364 
L 878.490446 407.105165 
L 902.101686 352.917027 
L 925.712926 311.749478 
L 972.935405 252.923976 
L 1020.157884 214.296347 
L 1067.380364 188.09914 
L 1114.602843 169.951664 
L 1209.047802 147.94875 
L 1256.270281 140.302191 
L 1303.49276 131.86656 
" clip-path="url(#paa25ddca34)" style="fill: none; stroke-dasharray: 1.5,2.475; stroke-dashoffset: 0; stroke: #4169e1; stroke-width: 1.5"/>
   </g>
   <g id="line2d_71">
    <path d="M 854.879207 575.566482 
L 864.323702 540.709131 
L 878.490446 497.456048 
L 902.101686 442.73015 
L 925.712926 397.853067 
L 972.935405 330.161368 
L 1020.157884 288.532881 
L 1067.380364 245.113051 
L 1114.602843 214.326123 
L 1209.047802 169.62472 
L 1256.270281 149.777612 
L 1303.49276 131.86656 
" clip-path="url(#paa25ddca34)" style="fill: none; stroke: #d2691e; stroke-width: 1.5; stroke-linecap: square"/>
   </g>
   <g id="line2d_72">
    <path d="M 854.879207 511.383029 
L 864.323702 473.041848 
L 878.490446 427.982534 
L 902.101686 374.824656 
L 925.712926 336.238714 
L 972.935405 281.944573 
L 1020.157884 242.240232 
L 1067.380364 215.236683 
L 1114.602843 193.212926 
L 1209.047802 158.021484 
L 1256.270281 147.356797 
L 1303.49276 131.86656 
" clip-path="url(#paa25ddca34)" style="fill: none; stroke-dasharray: 1.5,2.475; stroke-dashoffset: 0; stroke: #d2691e; stroke-width: 1.5"/>
   </g>
   <g id="line2d_73">
    <path d="M 854.879207 577.111277 
L 864.323702 540.819899 
L 878.490446 503.005163 
L 902.101686 439.1159 
L 925.712926 399.998748 
L 972.935405 336.163083 
L 1020.157884 283.428624 
L 1067.380364 250.35547 
L 1114.602843 220.741133 
L 1209.047802 168.570043 
L 1256.270281 149.812153 
L 1303.49276 131.86656 
" clip-path="url(#paa25ddca34)" style="fill: none; stroke: #6b8e23; stroke-width: 1.5; stroke-linecap: square"/>
   </g>
   <g id="line2d_74">
    <path d="M 854.879207 480.71997 
L 864.323702 442.427027 
L 878.490446 397.174167 
L 902.101686 339.087117 
L 925.712926 297.577141 
L 972.935405 246.611991 
L 1020.157884 216.978002 
L 1067.380364 197.339328 
L 1114.602843 181.744874 
L 1209.047802 155.788855 
L 1256.270281 144.878216 
L 1303.49276 131.86656 
" clip-path="url(#paa25ddca34)" style="fill: none; stroke-dasharray: 1.5,2.475; stroke-dashoffset: 0; stroke: #6b8e23; stroke-width: 1.5"/>
   </g>
   <g id="line2d_75">
    <path d="M 854.879207 571.111944 
L 864.323702 536.540446 
L 878.490446 493.96269 
L 902.101686 439.771575 
L 925.712926 395.681778 
L 972.935405 331.463188 
L 1020.157884 281.199569 
L 1067.380364 244.029789 
L 1114.602843 214.00573 
L 1209.047802 168.014417 
L 1256.270281 149.771657 
L 1303.49276 131.86656 
" clip-path="url(#paa25ddca34)" style="fill: none; stroke: #00bfff; stroke-width: 1.5; stroke-linecap: square"/>
   </g>
   <g id="line2d_76">
    <path d="M 854.879207 518.949192 
L 864.323702 487.217163 
L 878.490446 450.349315 
L 902.101686 404.709362 
L 925.712926 370.747683 
L 972.935405 323.06567 
L 1020.157884 267.838339 
L 1067.380364 244.426409 
L 1114.602843 214.039079 
L 1209.047802 164.405527 
L 1256.270281 157.46824 
L 1303.49276 131.86656 
" clip-path="url(#paa25ddca34)" style="fill: none; stroke-dasharray: 1.5,2.475; stroke-dashoffset: 0; stroke: #00bfff; stroke-width: 1.5"/>
   </g>
   <g id="line2d_77">
    <path d="M 854.879207 485.156642 
L 864.323702 448.998661 
L 878.490446 406.09277 
L 902.101686 351.243598 
L 925.712926 309.272088 
L 972.935405 249.02566 
L 1020.157884 210.529642 
L 1067.380364 186.197625 
L 1114.602843 170.227989 
L 1209.047802 149.457219 
L 1256.270281 141.371161 
L 1303.49276 131.86656 
" clip-path="url(#paa25ddca34)" style="fill: none; stroke: #c0c0c0; stroke-width: 1.5; stroke-linecap: square"/>
   </g>
   <g id="line2d_78">
    <path d="M 831.267967 727.39296 
L 831.449953 712.911902 
L 831.976058 687.212809 
L 832.750326 659.959914 
L 833.683831 634.723175 
L 834.737282 612.143121 
L 835.907783 591.813976 
L 837.170518 573.773479 
L 838.485367 558.049119 
L 839.920575 543.481013 
L 841.50344 529.682913 
L 843.233135 516.526801 
L 845.115863 503.856005 
L 847.191331 491.297641 
L 849.449198 478.970038 
L 851.886984 466.870978 
L 854.749128 453.906745 
L 857.74528 441.406279 
L 860.582194 430.484168 
L 863.334319 420.619086 
L 866.571602 409.787612 
L 869.6786 400.058888 
L 873.111105 389.992755 
L 877.070955 379.161527 
L 880.54358 370.251693 
L 884.434358 360.847013 
L 888.78796 350.979464 
L 895.066065 337.630061 
L 898.772789 330.247994 
L 903.154103 321.940436 
L 907.243412 314.635529 
L 911.603631 307.293533 
L 917.753932 297.502449 
L 922.601792 290.345246 
L 926.915688 284.227492 
L 932.012124 277.507035 
L 937.752956 270.219573 
L 943.311802 263.76228 
L 951.049517 255.12108 
L 957.204781 248.940114 
L 967.341816 239.202891 
L 970.780939 236.184287 
L 974.510825 233.0959 
L 988.078297 222.205654 
L 992.281347 219.154961 
L 996.931917 216.013184 
L 1016.358512 203.507134 
L 1021.87393 200.347283 
L 1028.228965 197.028269 
L 1058.328627 182.465164 
L 1065.423187 179.509211 
L 1073.341233 176.623086 
L 1127.225229 159.21193 
L 1137.152153 156.636081 
L 1148.833174 154.216614 
L 1272.144012 134.273223 
L 1287.247612 132.747294 
L 1303.49276 131.86656 
L 1303.49276 131.86656 
" clip-path="url(#paa25ddca34)" style="fill: none; stroke: #c0c0c0; stroke-width: 1.5; stroke-linecap: square"/>
   </g>
   <g id="patch_9">
    <path d="M 807.656727 757.16928 
L 807.656727 102.09024 
" style="fill: none; stroke: #000000; stroke-width: 0.8; stroke-linejoin: miter; stroke-linecap: square"/>
   </g>
   <g id="patch_10">
    <path d="M 1327.104 757.16928 
L 1327.104 102.09024 
" style="fill: none; stroke: #000000; stroke-width: 0.8; stroke-linejoin: miter; stroke-linecap: square"/>
   </g>
   <g id="patch_11">
    <path d="M 807.656727 757.16928 
L 1327.104 757.16928 
" style="fill: none; stroke: #000000; stroke-width: 0.8; stroke-linejoin: miter; stroke-linecap: square"/>
   </g>
   <g id="patch_12">
    <path d="M 807.656727 102.09024 
L 1327.104 102.09024 
" style="fill: none; stroke: #000000; stroke-width: 0.8; stroke-linejoin: miter; stroke-linecap: square"/>
   </g>
   <g id="text_40">
    <!-- user -->
    <g transform="translate(1054.293801 96.09024)scale(0.12 -0.12)">
     <defs>
      <path id="DejaVuSans-75" d="M 544 1381 
L 544 3500 
L 1119 3500 
L 1119 1403 
Q 1119 906 1312 657 
Q 1506 409 1894 409 
Q 2359 409 2629 706 
Q 2900 1003 2900 1516 
L 2900 3500 
L 3475 3500 
L 3475 0 
L 2900 0 
L 2900 538 
Q 2691 219 2414 64 
Q 2138 -91 1772 -91 
Q 1169 -91 856 284 
Q 544 659 544 1381 
z
M 1991 3584 
L 1991 3584 
z
" transform="scale(0.015625)"/>
      <path id="DejaVuSans-72" d="M 2631 2963 
Q 2534 3019 2420 3045 
Q 2306 3072 2169 3072 
Q 1681 3072 1420 2755 
Q 1159 2438 1159 1844 
L 1159 0 
L 581 0 
L 581 3500 
L 1159 3500 
L 1159 2956 
Q 1341 3275 1631 3429 
Q 1922 3584 2338 3584 
Q 2397 3584 2469 3576 
Q 2541 3569 2628 3553 
L 2631 2963 
z
" transform="scale(0.015625)"/>
     </defs>
     <use xlink:href="#DejaVuSans-75"/>
     <use xlink:href="#DejaVuSans-73" x="63.378906"/>
     <use xlink:href="#DejaVuSans-65" x="115.478516"/>
     <use xlink:href="#DejaVuSans-72" x="177.001953"/>
    </g>
   </g>
   <g id="legend_2">
    <g id="patch_13">
     <path d="M 814.656727 256.87149 
L 891.22704 256.87149 
Q 893.22704 256.87149 893.22704 254.87149 
L 893.22704 109.09024 
Q 893.22704 107.09024 891.22704 107.09024 
L 814.656727 107.09024 
Q 812.656727 107.09024 812.656727 109.09024 
L 812.656727 254.87149 
Q 812.656727 256.87149 814.656727 256.87149 
z
" style="fill: #ffffff; opacity: 0.8; stroke: #cccccc; stroke-linejoin: miter"/>
    </g>
    <g id="line2d_79">
     <path d="M 816.656727 115.188678 
L 826.656727 115.188678 
L 836.656727 115.188678 
" style="fill: none; stroke: #4169e1; stroke-width: 1.5; stroke-linecap: square"/>
    </g>
    <g id="text_41">
     <!-- ALFU2 -->
     <g transform="translate(844.656727 118.688678)scale(0.1 -0.1)">
      <use xlink:href="#DejaVuSans-41"/>
      <use xlink:href="#DejaVuSans-4c" x="68.408203"/>
      <use xlink:href="#DejaVuSans-46" x="124.121094"/>
      <use xlink:href="#DejaVuSans-55" x="181.640625"/>
      <use xlink:href="#DejaVuSans-32" x="254.833984"/>
     </g>
    </g>
    <g id="line2d_80">
     <path d="M 816.656727 129.866803 
L 826.656727 129.866803 
L 836.656727 129.866803 
" style="fill: none; stroke-dasharray: 1.5,2.475; stroke-dashoffset: 0; stroke: #4169e1; stroke-width: 1.5"/>
    </g>
    <g id="text_42">
     <!-- ALFU0 -->
     <g transform="translate(844.656727 133.366803)scale(0.1 -0.1)">
      <use xlink:href="#DejaVuSans-41"/>
      <use xlink:href="#DejaVuSans-4c" x="68.408203"/>
      <use xlink:href="#DejaVuSans-46" x="124.121094"/>
      <use xlink:href="#DejaVuSans-55" x="181.640625"/>
      <use xlink:href="#DejaVuSans-30" x="254.833984"/>
     </g>
    </g>
    <g id="line2d_81">
     <path d="M 816.656727 144.544928 
L 826.656727 144.544928 
L 836.656727 144.544928 
" style="fill: none; stroke: #d2691e; stroke-width: 1.5; stroke-linecap: square"/>
    </g>
    <g id="text_43">
     <!-- ALFU100 -->
     <g transform="translate(844.656727 148.044928)scale(0.1 -0.1)">
      <use xlink:href="#DejaVuSans-41"/>
      <use xlink:href="#DejaVuSans-4c" x="68.408203"/>
      <use xlink:href="#DejaVuSans-46" x="124.121094"/>
      <use xlink:href="#DejaVuSans-55" x="181.640625"/>
      <use xlink:href="#DejaVuSans-31" x="254.833984"/>
      <use xlink:href="#DejaVuSans-30" x="318.457031"/>
      <use xlink:href="#DejaVuSans-30" x="382.080078"/>
     </g>
    </g>
    <g id="line2d_82">
     <path d="M 816.656727 159.223053 
L 826.656727 159.223053 
L 836.656727 159.223053 
" style="fill: none; stroke-dasharray: 1.5,2.475; stroke-dashoffset: 0; stroke: #d2691e; stroke-width: 1.5"/>
    </g>
    <g id="text_44">
     <!-- ALFU10 -->
     <g transform="translate(844.656727 162.723053)scale(0.1 -0.1)">
      <use xlink:href="#DejaVuSans-41"/>
      <use xlink:href="#DejaVuSans-4c" x="68.408203"/>
      <use xlink:href="#DejaVuSans-46" x="124.121094"/>
      <use xlink:href="#DejaVuSans-55" x="181.640625"/>
      <use xlink:href="#DejaVuSans-31" x="254.833984"/>
      <use xlink:href="#DejaVuSans-30" x="318.457031"/>
     </g>
    </g>
    <g id="line2d_83">
     <path d="M 816.656727 173.901178 
L 826.656727 173.901178 
L 836.656727 173.901178 
" style="fill: none; stroke: #6b8e23; stroke-width: 1.5; stroke-linecap: square"/>
    </g>
    <g id="text_45">
     <!-- ALFU500 -->
     <g transform="translate(844.656727 177.401178)scale(0.1 -0.1)">
      <use xlink:href="#DejaVuSans-41"/>
      <use xlink:href="#DejaVuSans-4c" x="68.408203"/>
      <use xlink:href="#DejaVuSans-46" x="124.121094"/>
      <use xlink:href="#DejaVuSans-55" x="181.640625"/>
      <use xlink:href="#DejaVuSans-35" x="254.833984"/>
      <use xlink:href="#DejaVuSans-30" x="318.457031"/>
      <use xlink:href="#DejaVuSans-30" x="382.080078"/>
     </g>
    </g>
    <g id="line2d_84">
     <path d="M 816.656727 188.579303 
L 826.656727 188.579303 
L 836.656727 188.579303 
" style="fill: none; stroke-dasharray: 1.5,2.475; stroke-dashoffset: 0; stroke: #6b8e23; stroke-width: 1.5"/>
    </g>
    <g id="text_46">
     <!-- ALFU5 -->
     <g transform="translate(844.656727 192.079303)scale(0.1 -0.1)">
      <use xlink:href="#DejaVuSans-41"/>
      <use xlink:href="#DejaVuSans-4c" x="68.408203"/>
      <use xlink:href="#DejaVuSans-46" x="124.121094"/>
      <use xlink:href="#DejaVuSans-55" x="181.640625"/>
      <use xlink:href="#DejaVuSans-35" x="254.833984"/>
     </g>
    </g>
    <g id="line2d_85">
     <path d="M 816.656727 203.257428 
L 826.656727 203.257428 
L 836.656727 203.257428 
" style="fill: none; stroke: #00bfff; stroke-width: 1.5; stroke-linecap: square"/>
    </g>
    <g id="text_47">
     <!-- ALFU50 -->
     <g transform="translate(844.656727 206.757428)scale(0.1 -0.1)">
      <use xlink:href="#DejaVuSans-41"/>
      <use xlink:href="#DejaVuSans-4c" x="68.408203"/>
      <use xlink:href="#DejaVuSans-46" x="124.121094"/>
      <use xlink:href="#DejaVuSans-55" x="181.640625"/>
      <use xlink:href="#DejaVuSans-35" x="254.833984"/>
      <use xlink:href="#DejaVuSans-30" x="318.457031"/>
     </g>
    </g>
    <g id="line2d_86">
     <path d="M 816.656727 217.935553 
L 826.656727 217.935553 
L 836.656727 217.935553 
" style="fill: none; stroke-dasharray: 1.5,2.475; stroke-dashoffset: 0; stroke: #00bfff; stroke-width: 1.5"/>
    </g>
    <g id="text_48">
     <!-- ARC -->
     <g transform="translate(844.656727 221.435553)scale(0.1 -0.1)">
      <use xlink:href="#DejaVuSans-41"/>
      <use xlink:href="#DejaVuSans-52" x="68.408203"/>
      <use xlink:href="#DejaVuSans-43" x="132.890625"/>
     </g>
    </g>
    <g id="line2d_87">
     <path d="M 816.656727 232.613677 
L 826.656727 232.613677 
L 836.656727 232.613677 
" style="fill: none; stroke: #c0c0c0; stroke-width: 1.5; stroke-linecap: square"/>
    </g>
    <g id="text_49">
     <!-- ALFU1 -->
     <g transform="translate(844.656727 236.113677)scale(0.1 -0.1)">
      <use xlink:href="#DejaVuSans-41"/>
      <use xlink:href="#DejaVuSans-4c" x="68.408203"/>
      <use xlink:href="#DejaVuSans-46" x="124.121094"/>
      <use xlink:href="#DejaVuSans-55" x="181.640625"/>
      <use xlink:href="#DejaVuSans-31" x="254.833984"/>
     </g>
    </g>
    <g id="line2d_88">
     <path d="M 816.656727 247.291803 
L 826.656727 247.291803 
L 836.656727 247.291803 
" style="fill: none; stroke: #c0c0c0; stroke-width: 1.5; stroke-linecap: square"/>
    </g>
    <g id="text_50">
     <!-- dist -->
     <g transform="translate(844.656727 250.791803)scale(0.1 -0.1)">
      <use xlink:href="#DejaVuSans-64"/>
      <use xlink:href="#DejaVuSans-69" x="63.476562"/>
      <use xlink:href="#DejaVuSans-73" x="91.259766"/>
      <use xlink:href="#DejaVuSans-74" x="143.359375"/>
     </g>
    </g>
   </g>
  </g>
 </g>
 <defs>
  <clipPath id="pf434cecae4">
   <rect x="184.32" y="102.09024" width="519.447273" height="655.07904"/>
  </clipPath>
  <clipPath id="paa25ddca34">
   <rect x="807.656727" y="102.09024" width="519.447273" height="655.07904"/>
  </clipPath>
 </defs>
</svg>
