<?xml version="1.0" encoding="utf-8" standalone="no"?>
<!DOCTYPE svg PUBLIC "-//W3C//DTD SVG 1.1//EN"
  "http://www.w3.org/Graphics/SVG/1.1/DTD/svg11.dtd">
<svg xmlns:xlink="http://www.w3.org/1999/xlink" width="1474.56pt" height="850.752pt" viewBox="0 0 1474.56 850.752" xmlns="http://www.w3.org/2000/svg" version="1.1">
 <metadata>
  <rdf:RDF xmlns:dc="http://purl.org/dc/elements/1.1/" xmlns:cc="http://creativecommons.org/ns#" xmlns:rdf="http://www.w3.org/1999/02/22-rdf-syntax-ns#">
   <cc:Work>
    <dc:type rdf:resource="http://purl.org/dc/dcmitype/StillImage"/>
    <dc:date>2022-07-20T23:30:26.809594</dc:date>
    <dc:format>image/svg+xml</dc:format>
    <dc:creator>
     <cc:Agent>
      <dc:title>Matplotlib v3.5.2, https://matplotlib.org/</dc:title>
     </cc:Agent>
    </dc:creator>
   </cc:Work>
  </rdf:RDF>
 </metadata>
 <defs>
  <style type="text/css">*{stroke-linejoin: round; stroke-linecap: butt}</style>
 </defs>
 <g id="figure_1">
  <g id="patch_1">
   <path d="M 0 850.752 
L 1474.56 850.752 
L 1474.56 0 
L 0 0 
z
" style="fill: #ffffff"/>
  </g>
  <g id="axes_1">
   <g id="patch_2">
    <path d="M 184.32 757.16928 
L 703.767273 757.16928 
L 703.767273 102.09024 
L 184.32 102.09024 
z
" style="fill: #ffffff"/>
   </g>
   <g id="matplotlib.axis_1">
    <g id="xtick_1">
     <g id="line2d_1">
      <path d="M 248.859814 757.16928 
L 248.859814 102.09024 
" clip-path="url(#pd32d23f4db)" style="fill: none; stroke: #b0b0b0; stroke-width: 0.8; stroke-linecap: square"/>
     </g>
     <g id="line2d_2">
      <defs>
       <path id="ma42b202f8c" d="M 0 0 
L 0 3.5 
" style="stroke: #000000; stroke-width: 0.8"/>
      </defs>
      <g>
       <use xlink:href="#ma42b202f8c" x="248.859814" y="757.16928" style="stroke: #000000; stroke-width: 0.8"/>
      </g>
     </g>
     <g id="text_1">
      <!-- 37 -->
      <g transform="translate(242.497314 771.767718)scale(0.1 -0.1)">
       <defs>
        <path id="DejaVuSans-33" d="M 2597 2516 
Q 3050 2419 3304 2112 
Q 3559 1806 3559 1356 
Q 3559 666 3084 287 
Q 2609 -91 1734 -91 
Q 1441 -91 1130 -33 
Q 819 25 488 141 
L 488 750 
Q 750 597 1062 519 
Q 1375 441 1716 441 
Q 2309 441 2620 675 
Q 2931 909 2931 1356 
Q 2931 1769 2642 2001 
Q 2353 2234 1838 2234 
L 1294 2234 
L 1294 2753 
L 1863 2753 
Q 2328 2753 2575 2939 
Q 2822 3125 2822 3475 
Q 2822 3834 2567 4026 
Q 2313 4219 1838 4219 
Q 1578 4219 1281 4162 
Q 984 4106 628 3988 
L 628 4550 
Q 988 4650 1302 4700 
Q 1616 4750 1894 4750 
Q 2613 4750 3031 4423 
Q 3450 4097 3450 3541 
Q 3450 3153 3228 2886 
Q 3006 2619 2597 2516 
z
" transform="scale(0.015625)"/>
        <path id="DejaVuSans-37" d="M 525 4666 
L 3525 4666 
L 3525 4397 
L 1831 0 
L 1172 0 
L 2766 4134 
L 525 4134 
L 525 4666 
z
" transform="scale(0.015625)"/>
       </defs>
       <use xlink:href="#DejaVuSans-33"/>
       <use xlink:href="#DejaVuSans-37" x="63.623047"/>
      </g>
     </g>
    </g>
    <g id="xtick_2">
     <g id="line2d_3">
      <path d="M 321.039628 757.16928 
L 321.039628 102.09024 
" clip-path="url(#pd32d23f4db)" style="fill: none; stroke: #b0b0b0; stroke-width: 0.8; stroke-linecap: square"/>
     </g>
     <g id="line2d_4">
      <g>
       <use xlink:href="#ma42b202f8c" x="321.039628" y="757.16928" style="stroke: #000000; stroke-width: 0.8"/>
      </g>
     </g>
     <g id="text_2">
      <!-- 38 -->
      <g transform="translate(314.677128 771.767718)scale(0.1 -0.1)">
       <defs>
        <path id="DejaVuSans-38" d="M 2034 2216 
Q 1584 2216 1326 1975 
Q 1069 1734 1069 1313 
Q 1069 891 1326 650 
Q 1584 409 2034 409 
Q 2484 409 2743 651 
Q 3003 894 3003 1313 
Q 3003 1734 2745 1975 
Q 2488 2216 2034 2216 
z
M 1403 2484 
Q 997 2584 770 2862 
Q 544 3141 544 3541 
Q 544 4100 942 4425 
Q 1341 4750 2034 4750 
Q 2731 4750 3128 4425 
Q 3525 4100 3525 3541 
Q 3525 3141 3298 2862 
Q 3072 2584 2669 2484 
Q 3125 2378 3379 2068 
Q 3634 1759 3634 1313 
Q 3634 634 3220 271 
Q 2806 -91 2034 -91 
Q 1263 -91 848 271 
Q 434 634 434 1313 
Q 434 1759 690 2068 
Q 947 2378 1403 2484 
z
M 1172 3481 
Q 1172 3119 1398 2916 
Q 1625 2713 2034 2713 
Q 2441 2713 2670 2916 
Q 2900 3119 2900 3481 
Q 2900 3844 2670 4047 
Q 2441 4250 2034 4250 
Q 1625 4250 1398 4047 
Q 1172 3844 1172 3481 
z
" transform="scale(0.015625)"/>
       </defs>
       <use xlink:href="#DejaVuSans-33"/>
       <use xlink:href="#DejaVuSans-38" x="63.623047"/>
      </g>
     </g>
    </g>
    <g id="xtick_3">
     <g id="line2d_5">
      <path d="M 393.219442 757.16928 
L 393.219442 102.09024 
" clip-path="url(#pd32d23f4db)" style="fill: none; stroke: #b0b0b0; stroke-width: 0.8; stroke-linecap: square"/>
     </g>
     <g id="line2d_6">
      <g>
       <use xlink:href="#ma42b202f8c" x="393.219442" y="757.16928" style="stroke: #000000; stroke-width: 0.8"/>
      </g>
     </g>
     <g id="text_3">
      <!-- 39 -->
      <g transform="translate(386.856942 771.767718)scale(0.1 -0.1)">
       <defs>
        <path id="DejaVuSans-39" d="M 703 97 
L 703 672 
Q 941 559 1184 500 
Q 1428 441 1663 441 
Q 2288 441 2617 861 
Q 2947 1281 2994 2138 
Q 2813 1869 2534 1725 
Q 2256 1581 1919 1581 
Q 1219 1581 811 2004 
Q 403 2428 403 3163 
Q 403 3881 828 4315 
Q 1253 4750 1959 4750 
Q 2769 4750 3195 4129 
Q 3622 3509 3622 2328 
Q 3622 1225 3098 567 
Q 2575 -91 1691 -91 
Q 1453 -91 1209 -44 
Q 966 3 703 97 
z
M 1959 2075 
Q 2384 2075 2632 2365 
Q 2881 2656 2881 3163 
Q 2881 3666 2632 3958 
Q 2384 4250 1959 4250 
Q 1534 4250 1286 3958 
Q 1038 3666 1038 3163 
Q 1038 2656 1286 2365 
Q 1534 2075 1959 2075 
z
" transform="scale(0.015625)"/>
       </defs>
       <use xlink:href="#DejaVuSans-33"/>
       <use xlink:href="#DejaVuSans-39" x="63.623047"/>
      </g>
     </g>
    </g>
    <g id="xtick_4">
     <g id="line2d_7">
      <path d="M 465.399257 757.16928 
L 465.399257 102.09024 
" clip-path="url(#pd32d23f4db)" style="fill: none; stroke: #b0b0b0; stroke-width: 0.8; stroke-linecap: square"/>
     </g>
     <g id="line2d_8">
      <g>
       <use xlink:href="#ma42b202f8c" x="465.399257" y="757.16928" style="stroke: #000000; stroke-width: 0.8"/>
      </g>
     </g>
     <g id="text_4">
      <!-- 40 -->
      <g transform="translate(459.036757 771.767718)scale(0.1 -0.1)">
       <defs>
        <path id="DejaVuSans-34" d="M 2419 4116 
L 825 1625 
L 2419 1625 
L 2419 4116 
z
M 2253 4666 
L 3047 4666 
L 3047 1625 
L 3713 1625 
L 3713 1100 
L 3047 1100 
L 3047 0 
L 2419 0 
L 2419 1100 
L 313 1100 
L 313 1709 
L 2253 4666 
z
" transform="scale(0.015625)"/>
        <path id="DejaVuSans-30" d="M 2034 4250 
Q 1547 4250 1301 3770 
Q 1056 3291 1056 2328 
Q 1056 1369 1301 889 
Q 1547 409 2034 409 
Q 2525 409 2770 889 
Q 3016 1369 3016 2328 
Q 3016 3291 2770 3770 
Q 2525 4250 2034 4250 
z
M 2034 4750 
Q 2819 4750 3233 4129 
Q 3647 3509 3647 2328 
Q 3647 1150 3233 529 
Q 2819 -91 2034 -91 
Q 1250 -91 836 529 
Q 422 1150 422 2328 
Q 422 3509 836 4129 
Q 1250 4750 2034 4750 
z
" transform="scale(0.015625)"/>
       </defs>
       <use xlink:href="#DejaVuSans-34"/>
       <use xlink:href="#DejaVuSans-30" x="63.623047"/>
      </g>
     </g>
    </g>
    <g id="xtick_5">
     <g id="line2d_9">
      <path d="M 537.579071 757.16928 
L 537.579071 102.09024 
" clip-path="url(#pd32d23f4db)" style="fill: none; stroke: #b0b0b0; stroke-width: 0.8; stroke-linecap: square"/>
     </g>
     <g id="line2d_10">
      <g>
       <use xlink:href="#ma42b202f8c" x="537.579071" y="757.16928" style="stroke: #000000; stroke-width: 0.8"/>
      </g>
     </g>
     <g id="text_5">
      <!-- 41 -->
      <g transform="translate(531.216571 771.767718)scale(0.1 -0.1)">
       <defs>
        <path id="DejaVuSans-31" d="M 794 531 
L 1825 531 
L 1825 4091 
L 703 3866 
L 703 4441 
L 1819 4666 
L 2450 4666 
L 2450 531 
L 3481 531 
L 3481 0 
L 794 0 
L 794 531 
z
" transform="scale(0.015625)"/>
       </defs>
       <use xlink:href="#DejaVuSans-34"/>
       <use xlink:href="#DejaVuSans-31" x="63.623047"/>
      </g>
     </g>
    </g>
    <g id="xtick_6">
     <g id="line2d_11">
      <path d="M 609.758886 757.16928 
L 609.758886 102.09024 
" clip-path="url(#pd32d23f4db)" style="fill: none; stroke: #b0b0b0; stroke-width: 0.8; stroke-linecap: square"/>
     </g>
     <g id="line2d_12">
      <g>
       <use xlink:href="#ma42b202f8c" x="609.758886" y="757.16928" style="stroke: #000000; stroke-width: 0.8"/>
      </g>
     </g>
     <g id="text_6">
      <!-- 42 -->
      <g transform="translate(603.396386 771.767718)scale(0.1 -0.1)">
       <defs>
        <path id="DejaVuSans-32" d="M 1228 531 
L 3431 531 
L 3431 0 
L 469 0 
L 469 531 
Q 828 903 1448 1529 
Q 2069 2156 2228 2338 
Q 2531 2678 2651 2914 
Q 2772 3150 2772 3378 
Q 2772 3750 2511 3984 
Q 2250 4219 1831 4219 
Q 1534 4219 1204 4116 
Q 875 4013 500 3803 
L 500 4441 
Q 881 4594 1212 4672 
Q 1544 4750 1819 4750 
Q 2544 4750 2975 4387 
Q 3406 4025 3406 3419 
Q 3406 3131 3298 2873 
Q 3191 2616 2906 2266 
Q 2828 2175 2409 1742 
Q 1991 1309 1228 531 
z
" transform="scale(0.015625)"/>
       </defs>
       <use xlink:href="#DejaVuSans-34"/>
       <use xlink:href="#DejaVuSans-32" x="63.623047"/>
      </g>
     </g>
    </g>
    <g id="xtick_7">
     <g id="line2d_13">
      <path d="M 681.9387 757.16928 
L 681.9387 102.09024 
" clip-path="url(#pd32d23f4db)" style="fill: none; stroke: #b0b0b0; stroke-width: 0.8; stroke-linecap: square"/>
     </g>
     <g id="line2d_14">
      <g>
       <use xlink:href="#ma42b202f8c" x="681.9387" y="757.16928" style="stroke: #000000; stroke-width: 0.8"/>
      </g>
     </g>
     <g id="text_7">
      <!-- 43 -->
      <g transform="translate(675.5762 771.767718)scale(0.1 -0.1)">
       <use xlink:href="#DejaVuSans-34"/>
       <use xlink:href="#DejaVuSans-33" x="63.623047"/>
      </g>
     </g>
    </g>
    <g id="text_8">
     <!-- Cache Size(%) -->
     <g transform="translate(407.988168 785.445843)scale(0.1 -0.1)">
      <defs>
       <path id="DejaVuSans-43" d="M 4122 4306 
L 4122 3641 
Q 3803 3938 3442 4084 
Q 3081 4231 2675 4231 
Q 1875 4231 1450 3742 
Q 1025 3253 1025 2328 
Q 1025 1406 1450 917 
Q 1875 428 2675 428 
Q 3081 428 3442 575 
Q 3803 722 4122 1019 
L 4122 359 
Q 3791 134 3420 21 
Q 3050 -91 2638 -91 
Q 1578 -91 968 557 
Q 359 1206 359 2328 
Q 359 3453 968 4101 
Q 1578 4750 2638 4750 
Q 3056 4750 3426 4639 
Q 3797 4528 4122 4306 
z
" transform="scale(0.015625)"/>
       <path id="DejaVuSans-61" d="M 2194 1759 
Q 1497 1759 1228 1600 
Q 959 1441 959 1056 
Q 959 750 1161 570 
Q 1363 391 1709 391 
Q 2188 391 2477 730 
Q 2766 1069 2766 1631 
L 2766 1759 
L 2194 1759 
z
M 3341 1997 
L 3341 0 
L 2766 0 
L 2766 531 
Q 2569 213 2275 61 
Q 1981 -91 1556 -91 
Q 1019 -91 701 211 
Q 384 513 384 1019 
Q 384 1609 779 1909 
Q 1175 2209 1959 2209 
L 2766 2209 
L 2766 2266 
Q 2766 2663 2505 2880 
Q 2244 3097 1772 3097 
Q 1472 3097 1187 3025 
Q 903 2953 641 2809 
L 641 3341 
Q 956 3463 1253 3523 
Q 1550 3584 1831 3584 
Q 2591 3584 2966 3190 
Q 3341 2797 3341 1997 
z
" transform="scale(0.015625)"/>
       <path id="DejaVuSans-63" d="M 3122 3366 
L 3122 2828 
Q 2878 2963 2633 3030 
Q 2388 3097 2138 3097 
Q 1578 3097 1268 2742 
Q 959 2388 959 1747 
Q 959 1106 1268 751 
Q 1578 397 2138 397 
Q 2388 397 2633 464 
Q 2878 531 3122 666 
L 3122 134 
Q 2881 22 2623 -34 
Q 2366 -91 2075 -91 
Q 1284 -91 818 406 
Q 353 903 353 1747 
Q 353 2603 823 3093 
Q 1294 3584 2113 3584 
Q 2378 3584 2631 3529 
Q 2884 3475 3122 3366 
z
" transform="scale(0.015625)"/>
       <path id="DejaVuSans-68" d="M 3513 2113 
L 3513 0 
L 2938 0 
L 2938 2094 
Q 2938 2591 2744 2837 
Q 2550 3084 2163 3084 
Q 1697 3084 1428 2787 
Q 1159 2491 1159 1978 
L 1159 0 
L 581 0 
L 581 4863 
L 1159 4863 
L 1159 2956 
Q 1366 3272 1645 3428 
Q 1925 3584 2291 3584 
Q 2894 3584 3203 3211 
Q 3513 2838 3513 2113 
z
" transform="scale(0.015625)"/>
       <path id="DejaVuSans-65" d="M 3597 1894 
L 3597 1613 
L 953 1613 
Q 991 1019 1311 708 
Q 1631 397 2203 397 
Q 2534 397 2845 478 
Q 3156 559 3463 722 
L 3463 178 
Q 3153 47 2828 -22 
Q 2503 -91 2169 -91 
Q 1331 -91 842 396 
Q 353 884 353 1716 
Q 353 2575 817 3079 
Q 1281 3584 2069 3584 
Q 2775 3584 3186 3129 
Q 3597 2675 3597 1894 
z
M 3022 2063 
Q 3016 2534 2758 2815 
Q 2500 3097 2075 3097 
Q 1594 3097 1305 2825 
Q 1016 2553 972 2059 
L 3022 2063 
z
" transform="scale(0.015625)"/>
       <path id="DejaVuSans-20" transform="scale(0.015625)"/>
       <path id="DejaVuSans-53" d="M 3425 4513 
L 3425 3897 
Q 3066 4069 2747 4153 
Q 2428 4238 2131 4238 
Q 1616 4238 1336 4038 
Q 1056 3838 1056 3469 
Q 1056 3159 1242 3001 
Q 1428 2844 1947 2747 
L 2328 2669 
Q 3034 2534 3370 2195 
Q 3706 1856 3706 1288 
Q 3706 609 3251 259 
Q 2797 -91 1919 -91 
Q 1588 -91 1214 -16 
Q 841 59 441 206 
L 441 856 
Q 825 641 1194 531 
Q 1563 422 1919 422 
Q 2459 422 2753 634 
Q 3047 847 3047 1241 
Q 3047 1584 2836 1778 
Q 2625 1972 2144 2069 
L 1759 2144 
Q 1053 2284 737 2584 
Q 422 2884 422 3419 
Q 422 4038 858 4394 
Q 1294 4750 2059 4750 
Q 2388 4750 2728 4690 
Q 3069 4631 3425 4513 
z
" transform="scale(0.015625)"/>
       <path id="DejaVuSans-69" d="M 603 3500 
L 1178 3500 
L 1178 0 
L 603 0 
L 603 3500 
z
M 603 4863 
L 1178 4863 
L 1178 4134 
L 603 4134 
L 603 4863 
z
" transform="scale(0.015625)"/>
       <path id="DejaVuSans-7a" d="M 353 3500 
L 3084 3500 
L 3084 2975 
L 922 459 
L 3084 459 
L 3084 0 
L 275 0 
L 275 525 
L 2438 3041 
L 353 3041 
L 353 3500 
z
" transform="scale(0.015625)"/>
       <path id="DejaVuSans-28" d="M 1984 4856 
Q 1566 4138 1362 3434 
Q 1159 2731 1159 2009 
Q 1159 1288 1364 580 
Q 1569 -128 1984 -844 
L 1484 -844 
Q 1016 -109 783 600 
Q 550 1309 550 2009 
Q 550 2706 781 3412 
Q 1013 4119 1484 4856 
L 1984 4856 
z
" transform="scale(0.015625)"/>
       <path id="DejaVuSans-25" d="M 4653 2053 
Q 4381 2053 4226 1822 
Q 4072 1591 4072 1178 
Q 4072 772 4226 539 
Q 4381 306 4653 306 
Q 4919 306 5073 539 
Q 5228 772 5228 1178 
Q 5228 1588 5073 1820 
Q 4919 2053 4653 2053 
z
M 4653 2450 
Q 5147 2450 5437 2106 
Q 5728 1763 5728 1178 
Q 5728 594 5436 251 
Q 5144 -91 4653 -91 
Q 4153 -91 3862 251 
Q 3572 594 3572 1178 
Q 3572 1766 3864 2108 
Q 4156 2450 4653 2450 
z
M 1428 4353 
Q 1159 4353 1004 4120 
Q 850 3888 850 3481 
Q 850 3069 1003 2837 
Q 1156 2606 1428 2606 
Q 1700 2606 1854 2837 
Q 2009 3069 2009 3481 
Q 2009 3884 1853 4118 
Q 1697 4353 1428 4353 
z
M 4250 4750 
L 4750 4750 
L 1831 -91 
L 1331 -91 
L 4250 4750 
z
M 1428 4750 
Q 1922 4750 2215 4408 
Q 2509 4066 2509 3481 
Q 2509 2891 2217 2550 
Q 1925 2209 1428 2209 
Q 931 2209 642 2551 
Q 353 2894 353 3481 
Q 353 4063 643 4406 
Q 934 4750 1428 4750 
z
" transform="scale(0.015625)"/>
       <path id="DejaVuSans-29" d="M 513 4856 
L 1013 4856 
Q 1481 4119 1714 3412 
Q 1947 2706 1947 2009 
Q 1947 1309 1714 600 
Q 1481 -109 1013 -844 
L 513 -844 
Q 928 -128 1133 580 
Q 1338 1288 1338 2009 
Q 1338 2731 1133 3434 
Q 928 4138 513 4856 
z
" transform="scale(0.015625)"/>
      </defs>
      <use xlink:href="#DejaVuSans-43"/>
      <use xlink:href="#DejaVuSans-61" x="69.824219"/>
      <use xlink:href="#DejaVuSans-63" x="131.103516"/>
      <use xlink:href="#DejaVuSans-68" x="186.083984"/>
      <use xlink:href="#DejaVuSans-65" x="249.462891"/>
      <use xlink:href="#DejaVuSans-20" x="310.986328"/>
      <use xlink:href="#DejaVuSans-53" x="342.773438"/>
      <use xlink:href="#DejaVuSans-69" x="406.25"/>
      <use xlink:href="#DejaVuSans-7a" x="434.033203"/>
      <use xlink:href="#DejaVuSans-65" x="486.523438"/>
      <use xlink:href="#DejaVuSans-28" x="548.046875"/>
      <use xlink:href="#DejaVuSans-25" x="587.060547"/>
      <use xlink:href="#DejaVuSans-29" x="682.080078"/>
     </g>
    </g>
   </g>
   <g id="matplotlib.axis_2">
    <g id="ytick_1">
     <g id="line2d_15">
      <path d="M 184.32 704.011642 
L 703.767273 704.011642 
" clip-path="url(#pd32d23f4db)" style="fill: none; stroke: #b0b0b0; stroke-width: 0.8; stroke-linecap: square"/>
     </g>
     <g id="line2d_16">
      <defs>
       <path id="mc33f8eb4cd" d="M 0 0 
L -3.5 0 
" style="stroke: #000000; stroke-width: 0.8"/>
      </defs>
      <g>
       <use xlink:href="#mc33f8eb4cd" x="184.32" y="704.011642" style="stroke: #000000; stroke-width: 0.8"/>
      </g>
     </g>
     <g id="text_9">
      <!-- 72.5 -->
      <g transform="translate(155.054375 707.810861)scale(0.1 -0.1)">
       <defs>
        <path id="DejaVuSans-2e" d="M 684 794 
L 1344 794 
L 1344 0 
L 684 0 
L 684 794 
z
" transform="scale(0.015625)"/>
        <path id="DejaVuSans-35" d="M 691 4666 
L 3169 4666 
L 3169 4134 
L 1269 4134 
L 1269 2991 
Q 1406 3038 1543 3061 
Q 1681 3084 1819 3084 
Q 2600 3084 3056 2656 
Q 3513 2228 3513 1497 
Q 3513 744 3044 326 
Q 2575 -91 1722 -91 
Q 1428 -91 1123 -41 
Q 819 9 494 109 
L 494 744 
Q 775 591 1075 516 
Q 1375 441 1709 441 
Q 2250 441 2565 725 
Q 2881 1009 2881 1497 
Q 2881 1984 2565 2268 
Q 2250 2553 1709 2553 
Q 1456 2553 1204 2497 
Q 953 2441 691 2322 
L 691 4666 
z
" transform="scale(0.015625)"/>
       </defs>
       <use xlink:href="#DejaVuSans-37"/>
       <use xlink:href="#DejaVuSans-32" x="63.623047"/>
       <use xlink:href="#DejaVuSans-2e" x="127.246094"/>
       <use xlink:href="#DejaVuSans-35" x="159.033203"/>
      </g>
     </g>
    </g>
    <g id="ytick_2">
     <g id="line2d_17">
      <path d="M 184.32 616.73249 
L 703.767273 616.73249 
" clip-path="url(#pd32d23f4db)" style="fill: none; stroke: #b0b0b0; stroke-width: 0.8; stroke-linecap: square"/>
     </g>
     <g id="line2d_18">
      <g>
       <use xlink:href="#mc33f8eb4cd" x="184.32" y="616.73249" style="stroke: #000000; stroke-width: 0.8"/>
      </g>
     </g>
     <g id="text_10">
      <!-- 75.0 -->
      <g transform="translate(155.054375 620.531709)scale(0.1 -0.1)">
       <use xlink:href="#DejaVuSans-37"/>
       <use xlink:href="#DejaVuSans-35" x="63.623047"/>
       <use xlink:href="#DejaVuSans-2e" x="127.246094"/>
       <use xlink:href="#DejaVuSans-30" x="159.033203"/>
      </g>
     </g>
    </g>
    <g id="ytick_3">
     <g id="line2d_19">
      <path d="M 184.32 529.453338 
L 703.767273 529.453338 
" clip-path="url(#pd32d23f4db)" style="fill: none; stroke: #b0b0b0; stroke-width: 0.8; stroke-linecap: square"/>
     </g>
     <g id="line2d_20">
      <g>
       <use xlink:href="#mc33f8eb4cd" x="184.32" y="529.453338" style="stroke: #000000; stroke-width: 0.8"/>
      </g>
     </g>
     <g id="text_11">
      <!-- 77.5 -->
      <g transform="translate(155.054375 533.252557)scale(0.1 -0.1)">
       <use xlink:href="#DejaVuSans-37"/>
       <use xlink:href="#DejaVuSans-37" x="63.623047"/>
       <use xlink:href="#DejaVuSans-2e" x="127.246094"/>
       <use xlink:href="#DejaVuSans-35" x="159.033203"/>
      </g>
     </g>
    </g>
    <g id="ytick_4">
     <g id="line2d_21">
      <path d="M 184.32 442.174186 
L 703.767273 442.174186 
" clip-path="url(#pd32d23f4db)" style="fill: none; stroke: #b0b0b0; stroke-width: 0.8; stroke-linecap: square"/>
     </g>
     <g id="line2d_22">
      <g>
       <use xlink:href="#mc33f8eb4cd" x="184.32" y="442.174186" style="stroke: #000000; stroke-width: 0.8"/>
      </g>
     </g>
     <g id="text_12">
      <!-- 80.0 -->
      <g transform="translate(155.054375 445.973405)scale(0.1 -0.1)">
       <use xlink:href="#DejaVuSans-38"/>
       <use xlink:href="#DejaVuSans-30" x="63.623047"/>
       <use xlink:href="#DejaVuSans-2e" x="127.246094"/>
       <use xlink:href="#DejaVuSans-30" x="159.033203"/>
      </g>
     </g>
    </g>
    <g id="ytick_5">
     <g id="line2d_23">
      <path d="M 184.32 354.895034 
L 703.767273 354.895034 
" clip-path="url(#pd32d23f4db)" style="fill: none; stroke: #b0b0b0; stroke-width: 0.8; stroke-linecap: square"/>
     </g>
     <g id="line2d_24">
      <g>
       <use xlink:href="#mc33f8eb4cd" x="184.32" y="354.895034" style="stroke: #000000; stroke-width: 0.8"/>
      </g>
     </g>
     <g id="text_13">
      <!-- 82.5 -->
      <g transform="translate(155.054375 358.694253)scale(0.1 -0.1)">
       <use xlink:href="#DejaVuSans-38"/>
       <use xlink:href="#DejaVuSans-32" x="63.623047"/>
       <use xlink:href="#DejaVuSans-2e" x="127.246094"/>
       <use xlink:href="#DejaVuSans-35" x="159.033203"/>
      </g>
     </g>
    </g>
    <g id="ytick_6">
     <g id="line2d_25">
      <path d="M 184.32 267.615882 
L 703.767273 267.615882 
" clip-path="url(#pd32d23f4db)" style="fill: none; stroke: #b0b0b0; stroke-width: 0.8; stroke-linecap: square"/>
     </g>
     <g id="line2d_26">
      <g>
       <use xlink:href="#mc33f8eb4cd" x="184.32" y="267.615882" style="stroke: #000000; stroke-width: 0.8"/>
      </g>
     </g>
     <g id="text_14">
      <!-- 85.0 -->
      <g transform="translate(155.054375 271.415101)scale(0.1 -0.1)">
       <use xlink:href="#DejaVuSans-38"/>
       <use xlink:href="#DejaVuSans-35" x="63.623047"/>
       <use xlink:href="#DejaVuSans-2e" x="127.246094"/>
       <use xlink:href="#DejaVuSans-30" x="159.033203"/>
      </g>
     </g>
    </g>
    <g id="ytick_7">
     <g id="line2d_27">
      <path d="M 184.32 180.33673 
L 703.767273 180.33673 
" clip-path="url(#pd32d23f4db)" style="fill: none; stroke: #b0b0b0; stroke-width: 0.8; stroke-linecap: square"/>
     </g>
     <g id="line2d_28">
      <g>
       <use xlink:href="#mc33f8eb4cd" x="184.32" y="180.33673" style="stroke: #000000; stroke-width: 0.8"/>
      </g>
     </g>
     <g id="text_15">
      <!-- 87.5 -->
      <g transform="translate(155.054375 184.135949)scale(0.1 -0.1)">
       <use xlink:href="#DejaVuSans-38"/>
       <use xlink:href="#DejaVuSans-37" x="63.623047"/>
       <use xlink:href="#DejaVuSans-2e" x="127.246094"/>
       <use xlink:href="#DejaVuSans-35" x="159.033203"/>
      </g>
     </g>
    </g>
    <g id="text_16">
     <!-- Hit Rate[3] (%) -->
     <g transform="translate(156.974687 467.114916)rotate(-90)scale(0.1 -0.1)">
      <defs>
       <path id="DejaVuSans-48" d="M 628 4666 
L 1259 4666 
L 1259 2753 
L 3553 2753 
L 3553 4666 
L 4184 4666 
L 4184 0 
L 3553 0 
L 3553 2222 
L 1259 2222 
L 1259 0 
L 628 0 
L 628 4666 
z
" transform="scale(0.015625)"/>
       <path id="DejaVuSans-74" d="M 1172 4494 
L 1172 3500 
L 2356 3500 
L 2356 3053 
L 1172 3053 
L 1172 1153 
Q 1172 725 1289 603 
Q 1406 481 1766 481 
L 2356 481 
L 2356 0 
L 1766 0 
Q 1100 0 847 248 
Q 594 497 594 1153 
L 594 3053 
L 172 3053 
L 172 3500 
L 594 3500 
L 594 4494 
L 1172 4494 
z
" transform="scale(0.015625)"/>
       <path id="DejaVuSans-52" d="M 2841 2188 
Q 3044 2119 3236 1894 
Q 3428 1669 3622 1275 
L 4263 0 
L 3584 0 
L 2988 1197 
Q 2756 1666 2539 1819 
Q 2322 1972 1947 1972 
L 1259 1972 
L 1259 0 
L 628 0 
L 628 4666 
L 2053 4666 
Q 2853 4666 3247 4331 
Q 3641 3997 3641 3322 
Q 3641 2881 3436 2590 
Q 3231 2300 2841 2188 
z
M 1259 4147 
L 1259 2491 
L 2053 2491 
Q 2509 2491 2742 2702 
Q 2975 2913 2975 3322 
Q 2975 3731 2742 3939 
Q 2509 4147 2053 4147 
L 1259 4147 
z
" transform="scale(0.015625)"/>
       <path id="DejaVuSans-5b" d="M 550 4863 
L 1875 4863 
L 1875 4416 
L 1125 4416 
L 1125 -397 
L 1875 -397 
L 1875 -844 
L 550 -844 
L 550 4863 
z
" transform="scale(0.015625)"/>
       <path id="DejaVuSans-5d" d="M 1947 4863 
L 1947 -844 
L 622 -844 
L 622 -397 
L 1369 -397 
L 1369 4416 
L 622 4416 
L 622 4863 
L 1947 4863 
z
" transform="scale(0.015625)"/>
      </defs>
      <use xlink:href="#DejaVuSans-48"/>
      <use xlink:href="#DejaVuSans-69" x="75.195312"/>
      <use xlink:href="#DejaVuSans-74" x="102.978516"/>
      <use xlink:href="#DejaVuSans-20" x="142.1875"/>
      <use xlink:href="#DejaVuSans-52" x="173.974609"/>
      <use xlink:href="#DejaVuSans-61" x="241.207031"/>
      <use xlink:href="#DejaVuSans-74" x="302.486328"/>
      <use xlink:href="#DejaVuSans-65" x="341.695312"/>
      <use xlink:href="#DejaVuSans-5b" x="403.21875"/>
      <use xlink:href="#DejaVuSans-33" x="442.232422"/>
      <use xlink:href="#DejaVuSans-5d" x="505.855469"/>
      <use xlink:href="#DejaVuSans-20" x="544.869141"/>
      <use xlink:href="#DejaVuSans-28" x="576.65625"/>
      <use xlink:href="#DejaVuSans-25" x="615.669922"/>
      <use xlink:href="#DejaVuSans-29" x="710.689453"/>
     </g>
    </g>
   </g>
   <g id="line2d_29">
    <path d="M -1 350.912552 
L 465.399257 205.089097 
L 1187.1974 62.447034 
L 1475.56 25.045649 
" clip-path="url(#pd32d23f4db)" style="fill: none; stroke: #4169e1; stroke-width: 1.5; stroke-linecap: square"/>
   </g>
   <g id="line2d_30">
    <path d="M -1 373.492723 
L 465.399257 227.170723 
L 1187.1974 73.594327 
L 1475.56 31.092373 
" clip-path="url(#pd32d23f4db)" style="fill: none; stroke-dasharray: 1.5,2.475; stroke-dashoffset: 0; stroke: #4169e1; stroke-width: 1.5"/>
   </g>
   <g id="line2d_31">
    <path d="M -1 541.387308 
L 465.399257 390.986709 
L 1187.1974 232.683274 
L 1475.56 181.102949 
" clip-path="url(#pd32d23f4db)" style="fill: none; stroke: #d2691e; stroke-width: 1.5; stroke-linecap: square"/>
   </g>
   <g id="line2d_32">
    <path d="M -1 750.2529 
L 465.399257 541.050992 
L 1187.1974 403.80278 
L 1475.56 332.634707 
" clip-path="url(#pd32d23f4db)" style="fill: none; stroke-dasharray: 1.5,2.475; stroke-dashoffset: 0; stroke: #d2691e; stroke-width: 1.5"/>
   </g>
   <g id="line2d_33">
    <path d="M -1 355.145411 
L 465.399257 242.891444 
L 1187.1974 127.76326 
L 1475.56 91.240563 
" clip-path="url(#pd32d23f4db)" style="fill: none; stroke: #6b8e23; stroke-width: 1.5; stroke-linecap: square"/>
   </g>
   <g id="line2d_34">
    <path d="M -1 333.455654 
L 465.399257 198.564108 
L 1187.1974 70.902638 
L 1475.56 36.251684 
" clip-path="url(#pd32d23f4db)" style="fill: none; stroke-dasharray: 1.5,2.475; stroke-dashoffset: 0; stroke: #6b8e23; stroke-width: 1.5"/>
   </g>
   <g id="line2d_35">
    <path d="M -1 809.778089 
L 465.399257 619.378794 
L 1187.1974 401.477663 
L 1475.56 331.160382 
" clip-path="url(#pd32d23f4db)" style="fill: none; stroke: #00bfff; stroke-width: 1.5; stroke-linecap: square"/>
   </g>
   <g id="line2d_36">
    <path d="M -1 820.058304 
L 465.399257 662.369013 
L 1187.1974 407.828094 
L 1475.56 335.72415 
" clip-path="url(#pd32d23f4db)" style="fill: none; stroke-dasharray: 1.5,2.475; stroke-dashoffset: 0; stroke: #00bfff; stroke-width: 1.5"/>
   </g>
   <g id="line2d_37">
    <path d="M -1 832.205097 
L 465.399257 632.446228 
L 1187.1974 438.560829 
L 1475.56 369.20313 
" clip-path="url(#pd32d23f4db)" style="fill: none; stroke: #c0c0c0; stroke-width: 1.5; stroke-linecap: square"/>
   </g>
   <g id="line2d_38">
    <path d="M 184.318202 218.788611 
L 375.462929 171.208753 
L 460.638814 151.840759 
L 558.591399 131.58663 
L 703.76909 104.418121 
L 703.76909 104.418121 
" clip-path="url(#pd32d23f4db)" style="fill: none; stroke: #c0c0c0; stroke-width: 1.5; stroke-linecap: square"/>
   </g>
   <g id="patch_3">
    <path d="M 184.32 757.16928 
L 184.32 102.09024 
" style="fill: none; stroke: #000000; stroke-width: 0.8; stroke-linejoin: miter; stroke-linecap: square"/>
   </g>
   <g id="patch_4">
    <path d="M 703.767273 757.16928 
L 703.767273 102.09024 
" style="fill: none; stroke: #000000; stroke-width: 0.8; stroke-linejoin: miter; stroke-linecap: square"/>
   </g>
   <g id="patch_5">
    <path d="M 184.32 757.16928 
L 703.767273 757.16928 
" style="fill: none; stroke: #000000; stroke-width: 0.8; stroke-linejoin: miter; stroke-linecap: square"/>
   </g>
   <g id="patch_6">
    <path d="M 184.32 102.09024 
L 703.767273 102.09024 
" style="fill: none; stroke: #000000; stroke-width: 0.8; stroke-linejoin: miter; stroke-linecap: square"/>
   </g>
   <g id="text_17">
    <!-- user -->
    <g transform="translate(430.957074 96.09024)scale(0.12 -0.12)">
     <defs>
      <path id="DejaVuSans-75" d="M 544 1381 
L 544 3500 
L 1119 3500 
L 1119 1403 
Q 1119 906 1312 657 
Q 1506 409 1894 409 
Q 2359 409 2629 706 
Q 2900 1003 2900 1516 
L 2900 3500 
L 3475 3500 
L 3475 0 
L 2900 0 
L 2900 538 
Q 2691 219 2414 64 
Q 2138 -91 1772 -91 
Q 1169 -91 856 284 
Q 544 659 544 1381 
z
M 1991 3584 
L 1991 3584 
z
" transform="scale(0.015625)"/>
      <path id="DejaVuSans-73" d="M 2834 3397 
L 2834 2853 
Q 2591 2978 2328 3040 
Q 2066 3103 1784 3103 
Q 1356 3103 1142 2972 
Q 928 2841 928 2578 
Q 928 2378 1081 2264 
Q 1234 2150 1697 2047 
L 1894 2003 
Q 2506 1872 2764 1633 
Q 3022 1394 3022 966 
Q 3022 478 2636 193 
Q 2250 -91 1575 -91 
Q 1294 -91 989 -36 
Q 684 19 347 128 
L 347 722 
Q 666 556 975 473 
Q 1284 391 1588 391 
Q 1994 391 2212 530 
Q 2431 669 2431 922 
Q 2431 1156 2273 1281 
Q 2116 1406 1581 1522 
L 1381 1569 
Q 847 1681 609 1914 
Q 372 2147 372 2553 
Q 372 3047 722 3315 
Q 1072 3584 1716 3584 
Q 2034 3584 2315 3537 
Q 2597 3491 2834 3397 
z
" transform="scale(0.015625)"/>
      <path id="DejaVuSans-72" d="M 2631 2963 
Q 2534 3019 2420 3045 
Q 2306 3072 2169 3072 
Q 1681 3072 1420 2755 
Q 1159 2438 1159 1844 
L 1159 0 
L 581 0 
L 581 3500 
L 1159 3500 
L 1159 2956 
Q 1341 3275 1631 3429 
Q 1922 3584 2338 3584 
Q 2397 3584 2469 3576 
Q 2541 3569 2628 3553 
L 2631 2963 
z
" transform="scale(0.015625)"/>
     </defs>
     <use xlink:href="#DejaVuSans-75"/>
     <use xlink:href="#DejaVuSans-73" x="63.378906"/>
     <use xlink:href="#DejaVuSans-65" x="115.478516"/>
     <use xlink:href="#DejaVuSans-72" x="177.001953"/>
    </g>
   </g>
   <g id="legend_1">
    <g id="patch_7">
     <path d="M 620.19696 752.16928 
L 696.767273 752.16928 
Q 698.767273 752.16928 698.767273 750.16928 
L 698.767273 604.38803 
Q 698.767273 602.38803 696.767273 602.38803 
L 620.19696 602.38803 
Q 618.19696 602.38803 618.19696 604.38803 
L 618.19696 750.16928 
Q 618.19696 752.16928 620.19696 752.16928 
z
" style="fill: #ffffff; opacity: 0.8; stroke: #cccccc; stroke-linejoin: miter"/>
    </g>
    <g id="line2d_39">
     <path d="M 622.19696 610.486468 
L 632.19696 610.486468 
L 642.19696 610.486468 
" style="fill: none; stroke: #4169e1; stroke-width: 1.5; stroke-linecap: square"/>
    </g>
    <g id="text_18">
     <!-- ALFU1 -->
     <g transform="translate(650.19696 613.986468)scale(0.1 -0.1)">
      <defs>
       <path id="DejaVuSans-41" d="M 2188 4044 
L 1331 1722 
L 3047 1722 
L 2188 4044 
z
M 1831 4666 
L 2547 4666 
L 4325 0 
L 3669 0 
L 3244 1197 
L 1141 1197 
L 716 0 
L 50 0 
L 1831 4666 
z
" transform="scale(0.015625)"/>
       <path id="DejaVuSans-4c" d="M 628 4666 
L 1259 4666 
L 1259 531 
L 3531 531 
L 3531 0 
L 628 0 
L 628 4666 
z
" transform="scale(0.015625)"/>
       <path id="DejaVuSans-46" d="M 628 4666 
L 3309 4666 
L 3309 4134 
L 1259 4134 
L 1259 2759 
L 3109 2759 
L 3109 2228 
L 1259 2228 
L 1259 0 
L 628 0 
L 628 4666 
z
" transform="scale(0.015625)"/>
       <path id="DejaVuSans-55" d="M 556 4666 
L 1191 4666 
L 1191 1831 
Q 1191 1081 1462 751 
Q 1734 422 2344 422 
Q 2950 422 3222 751 
Q 3494 1081 3494 1831 
L 3494 4666 
L 4128 4666 
L 4128 1753 
Q 4128 841 3676 375 
Q 3225 -91 2344 -91 
Q 1459 -91 1007 375 
Q 556 841 556 1753 
L 556 4666 
z
" transform="scale(0.015625)"/>
      </defs>
      <use xlink:href="#DejaVuSans-41"/>
      <use xlink:href="#DejaVuSans-4c" x="68.408203"/>
      <use xlink:href="#DejaVuSans-46" x="124.121094"/>
      <use xlink:href="#DejaVuSans-55" x="181.640625"/>
      <use xlink:href="#DejaVuSans-31" x="254.833984"/>
     </g>
    </g>
    <g id="line2d_40">
     <path d="M 622.19696 625.164593 
L 632.19696 625.164593 
L 642.19696 625.164593 
" style="fill: none; stroke-dasharray: 1.5,2.475; stroke-dashoffset: 0; stroke: #4169e1; stroke-width: 1.5"/>
    </g>
    <g id="text_19">
     <!-- ALFU0 -->
     <g transform="translate(650.19696 628.664593)scale(0.1 -0.1)">
      <use xlink:href="#DejaVuSans-41"/>
      <use xlink:href="#DejaVuSans-4c" x="68.408203"/>
      <use xlink:href="#DejaVuSans-46" x="124.121094"/>
      <use xlink:href="#DejaVuSans-55" x="181.640625"/>
      <use xlink:href="#DejaVuSans-30" x="254.833984"/>
     </g>
    </g>
    <g id="line2d_41">
     <path d="M 622.19696 639.842718 
L 632.19696 639.842718 
L 642.19696 639.842718 
" style="fill: none; stroke: #d2691e; stroke-width: 1.5; stroke-linecap: square"/>
    </g>
    <g id="text_20">
     <!-- ALFU10 -->
     <g transform="translate(650.19696 643.342718)scale(0.1 -0.1)">
      <use xlink:href="#DejaVuSans-41"/>
      <use xlink:href="#DejaVuSans-4c" x="68.408203"/>
      <use xlink:href="#DejaVuSans-46" x="124.121094"/>
      <use xlink:href="#DejaVuSans-55" x="181.640625"/>
      <use xlink:href="#DejaVuSans-31" x="254.833984"/>
      <use xlink:href="#DejaVuSans-30" x="318.457031"/>
     </g>
    </g>
    <g id="line2d_42">
     <path d="M 622.19696 654.520843 
L 632.19696 654.520843 
L 642.19696 654.520843 
" style="fill: none; stroke-dasharray: 1.5,2.475; stroke-dashoffset: 0; stroke: #d2691e; stroke-width: 1.5"/>
    </g>
    <g id="text_21">
     <!-- ARC -->
     <g transform="translate(650.19696 658.020843)scale(0.1 -0.1)">
      <use xlink:href="#DejaVuSans-41"/>
      <use xlink:href="#DejaVuSans-52" x="68.408203"/>
      <use xlink:href="#DejaVuSans-43" x="132.890625"/>
     </g>
    </g>
    <g id="line2d_43">
     <path d="M 622.19696 669.198968 
L 632.19696 669.198968 
L 642.19696 669.198968 
" style="fill: none; stroke: #6b8e23; stroke-width: 1.5; stroke-linecap: square"/>
    </g>
    <g id="text_22">
     <!-- ALFU5 -->
     <g transform="translate(650.19696 672.698968)scale(0.1 -0.1)">
      <use xlink:href="#DejaVuSans-41"/>
      <use xlink:href="#DejaVuSans-4c" x="68.408203"/>
      <use xlink:href="#DejaVuSans-46" x="124.121094"/>
      <use xlink:href="#DejaVuSans-55" x="181.640625"/>
      <use xlink:href="#DejaVuSans-35" x="254.833984"/>
     </g>
    </g>
    <g id="line2d_44">
     <path d="M 622.19696 683.877093 
L 632.19696 683.877093 
L 642.19696 683.877093 
" style="fill: none; stroke-dasharray: 1.5,2.475; stroke-dashoffset: 0; stroke: #6b8e23; stroke-width: 1.5"/>
    </g>
    <g id="text_23">
     <!-- ALFU2 -->
     <g transform="translate(650.19696 687.377093)scale(0.1 -0.1)">
      <use xlink:href="#DejaVuSans-41"/>
      <use xlink:href="#DejaVuSans-4c" x="68.408203"/>
      <use xlink:href="#DejaVuSans-46" x="124.121094"/>
      <use xlink:href="#DejaVuSans-55" x="181.640625"/>
      <use xlink:href="#DejaVuSans-32" x="254.833984"/>
     </g>
    </g>
    <g id="line2d_45">
     <path d="M 622.19696 698.555218 
L 632.19696 698.555218 
L 642.19696 698.555218 
" style="fill: none; stroke: #00bfff; stroke-width: 1.5; stroke-linecap: square"/>
    </g>
    <g id="text_24">
     <!-- ALFU50 -->
     <g transform="translate(650.19696 702.055218)scale(0.1 -0.1)">
      <use xlink:href="#DejaVuSans-41"/>
      <use xlink:href="#DejaVuSans-4c" x="68.408203"/>
      <use xlink:href="#DejaVuSans-46" x="124.121094"/>
      <use xlink:href="#DejaVuSans-55" x="181.640625"/>
      <use xlink:href="#DejaVuSans-35" x="254.833984"/>
      <use xlink:href="#DejaVuSans-30" x="318.457031"/>
     </g>
    </g>
    <g id="line2d_46">
     <path d="M 622.19696 713.233343 
L 632.19696 713.233343 
L 642.19696 713.233343 
" style="fill: none; stroke-dasharray: 1.5,2.475; stroke-dashoffset: 0; stroke: #00bfff; stroke-width: 1.5"/>
    </g>
    <g id="text_25">
     <!-- ALFU100 -->
     <g transform="translate(650.19696 716.733343)scale(0.1 -0.1)">
      <use xlink:href="#DejaVuSans-41"/>
      <use xlink:href="#DejaVuSans-4c" x="68.408203"/>
      <use xlink:href="#DejaVuSans-46" x="124.121094"/>
      <use xlink:href="#DejaVuSans-55" x="181.640625"/>
      <use xlink:href="#DejaVuSans-31" x="254.833984"/>
      <use xlink:href="#DejaVuSans-30" x="318.457031"/>
      <use xlink:href="#DejaVuSans-30" x="382.080078"/>
     </g>
    </g>
    <g id="line2d_47">
     <path d="M 622.19696 727.911468 
L 632.19696 727.911468 
L 642.19696 727.911468 
" style="fill: none; stroke: #c0c0c0; stroke-width: 1.5; stroke-linecap: square"/>
    </g>
    <g id="text_26">
     <!-- ALFU500 -->
     <g transform="translate(650.19696 731.411468)scale(0.1 -0.1)">
      <use xlink:href="#DejaVuSans-41"/>
      <use xlink:href="#DejaVuSans-4c" x="68.408203"/>
      <use xlink:href="#DejaVuSans-46" x="124.121094"/>
      <use xlink:href="#DejaVuSans-55" x="181.640625"/>
      <use xlink:href="#DejaVuSans-35" x="254.833984"/>
      <use xlink:href="#DejaVuSans-30" x="318.457031"/>
      <use xlink:href="#DejaVuSans-30" x="382.080078"/>
     </g>
    </g>
    <g id="line2d_48">
     <path d="M 622.19696 742.589593 
L 632.19696 742.589593 
L 642.19696 742.589593 
" style="fill: none; stroke: #c0c0c0; stroke-width: 1.5; stroke-linecap: square"/>
    </g>
    <g id="text_27">
     <!-- dist -->
     <g transform="translate(650.19696 746.089593)scale(0.1 -0.1)">
      <defs>
       <path id="DejaVuSans-64" d="M 2906 2969 
L 2906 4863 
L 3481 4863 
L 3481 0 
L 2906 0 
L 2906 525 
Q 2725 213 2448 61 
Q 2172 -91 1784 -91 
Q 1150 -91 751 415 
Q 353 922 353 1747 
Q 353 2572 751 3078 
Q 1150 3584 1784 3584 
Q 2172 3584 2448 3432 
Q 2725 3281 2906 2969 
z
M 947 1747 
Q 947 1113 1208 752 
Q 1469 391 1925 391 
Q 2381 391 2643 752 
Q 2906 1113 2906 1747 
Q 2906 2381 2643 2742 
Q 2381 3103 1925 3103 
Q 1469 3103 1208 2742 
Q 947 2381 947 1747 
z
" transform="scale(0.015625)"/>
      </defs>
      <use xlink:href="#DejaVuSans-64"/>
      <use xlink:href="#DejaVuSans-69" x="63.476562"/>
      <use xlink:href="#DejaVuSans-73" x="91.259766"/>
      <use xlink:href="#DejaVuSans-74" x="143.359375"/>
     </g>
    </g>
   </g>
  </g>
  <g id="axes_2">
   <g id="patch_8">
    <path d="M 807.656727 757.16928 
L 1327.104 757.16928 
L 1327.104 102.09024 
L 807.656727 102.09024 
z
" style="fill: #ffffff"/>
   </g>
   <g id="matplotlib.axis_3">
    <g id="xtick_8">
     <g id="line2d_49">
      <path d="M 831.267967 757.16928 
L 831.267967 102.09024 
" clip-path="url(#pb5dc0b00d4)" style="fill: none; stroke: #b0b0b0; stroke-width: 0.8; stroke-linecap: square"/>
     </g>
     <g id="line2d_50">
      <g>
       <use xlink:href="#ma42b202f8c" x="831.267967" y="757.16928" style="stroke: #000000; stroke-width: 0.8"/>
      </g>
     </g>
     <g id="text_28">
      <!-- 0 -->
      <g transform="translate(828.086717 771.767718)scale(0.1 -0.1)">
       <use xlink:href="#DejaVuSans-30"/>
      </g>
     </g>
    </g>
    <g id="xtick_9">
     <g id="line2d_51">
      <path d="M 925.712926 757.16928 
L 925.712926 102.09024 
" clip-path="url(#pb5dc0b00d4)" style="fill: none; stroke: #b0b0b0; stroke-width: 0.8; stroke-linecap: square"/>
     </g>
     <g id="line2d_52">
      <g>
       <use xlink:href="#ma42b202f8c" x="925.712926" y="757.16928" style="stroke: #000000; stroke-width: 0.8"/>
      </g>
     </g>
     <g id="text_29">
      <!-- 20 -->
      <g transform="translate(919.350426 771.767718)scale(0.1 -0.1)">
       <use xlink:href="#DejaVuSans-32"/>
       <use xlink:href="#DejaVuSans-30" x="63.623047"/>
      </g>
     </g>
    </g>
    <g id="xtick_10">
     <g id="line2d_53">
      <path d="M 1020.157884 757.16928 
L 1020.157884 102.09024 
" clip-path="url(#pb5dc0b00d4)" style="fill: none; stroke: #b0b0b0; stroke-width: 0.8; stroke-linecap: square"/>
     </g>
     <g id="line2d_54">
      <g>
       <use xlink:href="#ma42b202f8c" x="1020.157884" y="757.16928" style="stroke: #000000; stroke-width: 0.8"/>
      </g>
     </g>
     <g id="text_30">
      <!-- 40 -->
      <g transform="translate(1013.795384 771.767718)scale(0.1 -0.1)">
       <use xlink:href="#DejaVuSans-34"/>
       <use xlink:href="#DejaVuSans-30" x="63.623047"/>
      </g>
     </g>
    </g>
    <g id="xtick_11">
     <g id="line2d_55">
      <path d="M 1114.602843 757.16928 
L 1114.602843 102.09024 
" clip-path="url(#pb5dc0b00d4)" style="fill: none; stroke: #b0b0b0; stroke-width: 0.8; stroke-linecap: square"/>
     </g>
     <g id="line2d_56">
      <g>
       <use xlink:href="#ma42b202f8c" x="1114.602843" y="757.16928" style="stroke: #000000; stroke-width: 0.8"/>
      </g>
     </g>
     <g id="text_31">
      <!-- 60 -->
      <g transform="translate(1108.240343 771.767718)scale(0.1 -0.1)">
       <defs>
        <path id="DejaVuSans-36" d="M 2113 2584 
Q 1688 2584 1439 2293 
Q 1191 2003 1191 1497 
Q 1191 994 1439 701 
Q 1688 409 2113 409 
Q 2538 409 2786 701 
Q 3034 994 3034 1497 
Q 3034 2003 2786 2293 
Q 2538 2584 2113 2584 
z
M 3366 4563 
L 3366 3988 
Q 3128 4100 2886 4159 
Q 2644 4219 2406 4219 
Q 1781 4219 1451 3797 
Q 1122 3375 1075 2522 
Q 1259 2794 1537 2939 
Q 1816 3084 2150 3084 
Q 2853 3084 3261 2657 
Q 3669 2231 3669 1497 
Q 3669 778 3244 343 
Q 2819 -91 2113 -91 
Q 1303 -91 875 529 
Q 447 1150 447 2328 
Q 447 3434 972 4092 
Q 1497 4750 2381 4750 
Q 2619 4750 2861 4703 
Q 3103 4656 3366 4563 
z
" transform="scale(0.015625)"/>
       </defs>
       <use xlink:href="#DejaVuSans-36"/>
       <use xlink:href="#DejaVuSans-30" x="63.623047"/>
      </g>
     </g>
    </g>
    <g id="xtick_12">
     <g id="line2d_57">
      <path d="M 1209.047802 757.16928 
L 1209.047802 102.09024 
" clip-path="url(#pb5dc0b00d4)" style="fill: none; stroke: #b0b0b0; stroke-width: 0.8; stroke-linecap: square"/>
     </g>
     <g id="line2d_58">
      <g>
       <use xlink:href="#ma42b202f8c" x="1209.047802" y="757.16928" style="stroke: #000000; stroke-width: 0.8"/>
      </g>
     </g>
     <g id="text_32">
      <!-- 80 -->
      <g transform="translate(1202.685302 771.767718)scale(0.1 -0.1)">
       <use xlink:href="#DejaVuSans-38"/>
       <use xlink:href="#DejaVuSans-30" x="63.623047"/>
      </g>
     </g>
    </g>
    <g id="xtick_13">
     <g id="line2d_59">
      <path d="M 1303.49276 757.16928 
L 1303.49276 102.09024 
" clip-path="url(#pb5dc0b00d4)" style="fill: none; stroke: #b0b0b0; stroke-width: 0.8; stroke-linecap: square"/>
     </g>
     <g id="line2d_60">
      <g>
       <use xlink:href="#ma42b202f8c" x="1303.49276" y="757.16928" style="stroke: #000000; stroke-width: 0.8"/>
      </g>
     </g>
     <g id="text_33">
      <!-- 100 -->
      <g transform="translate(1293.94901 771.767718)scale(0.1 -0.1)">
       <use xlink:href="#DejaVuSans-31"/>
       <use xlink:href="#DejaVuSans-30" x="63.623047"/>
       <use xlink:href="#DejaVuSans-30" x="127.246094"/>
      </g>
     </g>
    </g>
    <g id="text_34">
     <!-- Cache Size(%) -->
     <g transform="translate(1031.324895 785.445843)scale(0.1 -0.1)">
      <use xlink:href="#DejaVuSans-43"/>
      <use xlink:href="#DejaVuSans-61" x="69.824219"/>
      <use xlink:href="#DejaVuSans-63" x="131.103516"/>
      <use xlink:href="#DejaVuSans-68" x="186.083984"/>
      <use xlink:href="#DejaVuSans-65" x="249.462891"/>
      <use xlink:href="#DejaVuSans-20" x="310.986328"/>
      <use xlink:href="#DejaVuSans-53" x="342.773438"/>
      <use xlink:href="#DejaVuSans-69" x="406.25"/>
      <use xlink:href="#DejaVuSans-7a" x="434.033203"/>
      <use xlink:href="#DejaVuSans-65" x="486.523438"/>
      <use xlink:href="#DejaVuSans-28" x="548.046875"/>
      <use xlink:href="#DejaVuSans-25" x="587.060547"/>
      <use xlink:href="#DejaVuSans-29" x="682.080078"/>
     </g>
    </g>
   </g>
   <g id="matplotlib.axis_4">
    <g id="ytick_8">
     <g id="line2d_61">
      <path d="M 807.656727 727.39296 
L 1327.104 727.39296 
" clip-path="url(#pb5dc0b00d4)" style="fill: none; stroke: #b0b0b0; stroke-width: 0.8; stroke-linecap: square"/>
     </g>
     <g id="line2d_62">
      <g>
       <use xlink:href="#mc33f8eb4cd" x="807.656727" y="727.39296" style="stroke: #000000; stroke-width: 0.8"/>
      </g>
     </g>
     <g id="text_35">
      <!-- 0 -->
      <g transform="translate(794.294227 731.192179)scale(0.1 -0.1)">
       <use xlink:href="#DejaVuSans-30"/>
      </g>
     </g>
    </g>
    <g id="ytick_9">
     <g id="line2d_63">
      <path d="M 807.656727 608.28768 
L 1327.104 608.28768 
" clip-path="url(#pb5dc0b00d4)" style="fill: none; stroke: #b0b0b0; stroke-width: 0.8; stroke-linecap: square"/>
     </g>
     <g id="line2d_64">
      <g>
       <use xlink:href="#mc33f8eb4cd" x="807.656727" y="608.28768" style="stroke: #000000; stroke-width: 0.8"/>
      </g>
     </g>
     <g id="text_36">
      <!-- 20 -->
      <g transform="translate(787.931727 612.086899)scale(0.1 -0.1)">
       <use xlink:href="#DejaVuSans-32"/>
       <use xlink:href="#DejaVuSans-30" x="63.623047"/>
      </g>
     </g>
    </g>
    <g id="ytick_10">
     <g id="line2d_65">
      <path d="M 807.656727 489.1824 
L 1327.104 489.1824 
" clip-path="url(#pb5dc0b00d4)" style="fill: none; stroke: #b0b0b0; stroke-width: 0.8; stroke-linecap: square"/>
     </g>
     <g id="line2d_66">
      <g>
       <use xlink:href="#mc33f8eb4cd" x="807.656727" y="489.1824" style="stroke: #000000; stroke-width: 0.8"/>
      </g>
     </g>
     <g id="text_37">
      <!-- 40 -->
      <g transform="translate(787.931727 492.981619)scale(0.1 -0.1)">
       <use xlink:href="#DejaVuSans-34"/>
       <use xlink:href="#DejaVuSans-30" x="63.623047"/>
      </g>
     </g>
    </g>
    <g id="ytick_11">
     <g id="line2d_67">
      <path d="M 807.656727 370.07712 
L 1327.104 370.07712 
" clip-path="url(#pb5dc0b00d4)" style="fill: none; stroke: #b0b0b0; stroke-width: 0.8; stroke-linecap: square"/>
     </g>
     <g id="line2d_68">
      <g>
       <use xlink:href="#mc33f8eb4cd" x="807.656727" y="370.07712" style="stroke: #000000; stroke-width: 0.8"/>
      </g>
     </g>
     <g id="text_38">
      <!-- 60 -->
      <g transform="translate(787.931727 373.876339)scale(0.1 -0.1)">
       <use xlink:href="#DejaVuSans-36"/>
       <use xlink:href="#DejaVuSans-30" x="63.623047"/>
      </g>
     </g>
    </g>
    <g id="ytick_12">
     <g id="line2d_69">
      <path d="M 807.656727 250.97184 
L 1327.104 250.97184 
" clip-path="url(#pb5dc0b00d4)" style="fill: none; stroke: #b0b0b0; stroke-width: 0.8; stroke-linecap: square"/>
     </g>
     <g id="line2d_70">
      <g>
       <use xlink:href="#mc33f8eb4cd" x="807.656727" y="250.97184" style="stroke: #000000; stroke-width: 0.8"/>
      </g>
     </g>
     <g id="text_39">
      <!-- 80 -->
      <g transform="translate(787.931727 254.771059)scale(0.1 -0.1)">
       <use xlink:href="#DejaVuSans-38"/>
       <use xlink:href="#DejaVuSans-30" x="63.623047"/>
      </g>
     </g>
    </g>
    <g id="ytick_13">
     <g id="line2d_71">
      <path d="M 807.656727 131.86656 
L 1327.104 131.86656 
" clip-path="url(#pb5dc0b00d4)" style="fill: none; stroke: #b0b0b0; stroke-width: 0.8; stroke-linecap: square"/>
     </g>
     <g id="line2d_72">
      <g>
       <use xlink:href="#mc33f8eb4cd" x="807.656727" y="131.86656" style="stroke: #000000; stroke-width: 0.8"/>
      </g>
     </g>
     <g id="text_40">
      <!-- 100 -->
      <g transform="translate(781.569227 135.665779)scale(0.1 -0.1)">
       <use xlink:href="#DejaVuSans-31"/>
       <use xlink:href="#DejaVuSans-30" x="63.623047"/>
       <use xlink:href="#DejaVuSans-30" x="127.246094"/>
      </g>
     </g>
    </g>
    <g id="text_41">
     <!-- Hit Rate[3] (%) -->
     <g transform="translate(783.48954 467.114916)rotate(-90)scale(0.1 -0.1)">
      <use xlink:href="#DejaVuSans-48"/>
      <use xlink:href="#DejaVuSans-69" x="75.195312"/>
      <use xlink:href="#DejaVuSans-74" x="102.978516"/>
      <use xlink:href="#DejaVuSans-20" x="142.1875"/>
      <use xlink:href="#DejaVuSans-52" x="173.974609"/>
      <use xlink:href="#DejaVuSans-61" x="241.207031"/>
      <use xlink:href="#DejaVuSans-74" x="302.486328"/>
      <use xlink:href="#DejaVuSans-65" x="341.695312"/>
      <use xlink:href="#DejaVuSans-5b" x="403.21875"/>
      <use xlink:href="#DejaVuSans-33" x="442.232422"/>
      <use xlink:href="#DejaVuSans-5d" x="505.855469"/>
      <use xlink:href="#DejaVuSans-20" x="544.869141"/>
      <use xlink:href="#DejaVuSans-28" x="576.65625"/>
      <use xlink:href="#DejaVuSans-25" x="615.669922"/>
      <use xlink:href="#DejaVuSans-29" x="710.689453"/>
     </g>
    </g>
   </g>
   <g id="line2d_73">
    <path d="M 854.879207 657.123822 
L 864.323702 631.686508 
L 878.490446 595.853089 
L 902.101686 552.32666 
L 925.712926 534.029707 
L 972.935405 465.193406 
L 1020.157884 349.415927 
L 1067.380364 304.569812 
L 1114.602843 256.806808 
L 1209.047802 134.019983 
L 1256.270281 132.303081 
L 1303.49276 131.86656 
" clip-path="url(#pb5dc0b00d4)" style="fill: none; stroke: #4169e1; stroke-width: 1.5; stroke-linecap: square"/>
   </g>
   <g id="line2d_74">
    <path d="M 854.879207 657.123822 
L 864.323702 631.686508 
L 878.490446 595.873932 
L 902.101686 552.455889 
L 925.712926 534.839623 
L 972.935405 501.042904 
L 1020.157884 372.966019 
L 1067.380364 309.430498 
L 1114.602843 290.828635 
L 1209.047802 136.64685 
L 1256.270281 132.26199 
L 1303.49276 131.86656 
" clip-path="url(#pb5dc0b00d4)" style="fill: none; stroke-dasharray: 1.5,2.475; stroke-dashoffset: 0; stroke: #4169e1; stroke-width: 1.5"/>
   </g>
   <g id="line2d_75">
    <path d="M 854.879207 616.236171 
L 864.323702 579.717896 
L 878.490446 528.792052 
L 902.101686 460.094509 
L 925.712926 410.127461 
L 972.935405 298.192319 
L 1020.157884 255.275114 
L 1067.380364 217.243011 
L 1114.602843 169.529436 
L 1209.047802 133.324409 
L 1256.270281 132.730073 
L 1303.49276 131.86656 
" clip-path="url(#pb5dc0b00d4)" style="fill: none; stroke: #d2691e; stroke-width: 1.5; stroke-linecap: square"/>
   </g>
   <g id="line2d_76">
    <path d="M 854.879207 533.071505 
L 864.323702 473.967296 
L 878.490446 393.724878 
L 902.101686 265.8999 
L 925.712926 196.328124 
L 972.935405 141.160941 
L 1020.157884 134.719727 
L 1067.380364 134.542856 
L 1114.602843 134.54226 
L 1209.047802 134.54226 
L 1256.270281 134.54226 
L 1303.49276 131.86656 
" clip-path="url(#pb5dc0b00d4)" style="fill: none; stroke-dasharray: 1.5,2.475; stroke-dashoffset: 0; stroke: #d2691e; stroke-width: 1.5"/>
   </g>
   <g id="line2d_77">
    <path d="M 854.879207 587.342421 
L 864.323702 546.55184 
L 878.490446 498.57266 
L 902.101686 448.02557 
L 925.712926 403.325954 
L 972.935405 312.291407 
L 1020.157884 247.953117 
L 1067.380364 217.225741 
L 1114.602843 149.931853 
L 1209.047802 133.291655 
L 1256.270281 132.64134 
L 1303.49276 131.86656 
" clip-path="url(#pb5dc0b00d4)" style="fill: none; stroke: #6b8e23; stroke-width: 1.5; stroke-linecap: square"/>
   </g>
   <g id="line2d_78">
    <path d="M 854.879207 656.974345 
L 864.323702 631.49058 
L 878.490446 595.542224 
L 902.101686 551.466124 
L 925.712926 528.992744 
L 972.935405 418.455898 
L 1020.157884 318.318134 
L 1067.380364 273.9937 
L 1114.602843 218.534113 
L 1209.047802 133.112997 
L 1256.270281 132.402534 
L 1303.49276 131.86656 
" clip-path="url(#pb5dc0b00d4)" style="fill: none; stroke-dasharray: 1.5,2.475; stroke-dashoffset: 0; stroke: #6b8e23; stroke-width: 1.5"/>
   </g>
   <g id="line2d_79">
    <path d="M 854.879207 564.944673 
L 864.323702 505.981604 
L 878.490446 425.311598 
L 902.101686 315.90923 
L 925.712926 242.320628 
L 972.935405 189.50756 
L 1020.157884 163.891588 
L 1067.380364 138.840174 
L 1114.602843 133.934228 
L 1209.047802 133.199348 
L 1256.270281 132.577023 
L 1303.49276 131.86656 
" clip-path="url(#pb5dc0b00d4)" style="fill: none; stroke: #00bfff; stroke-width: 1.5; stroke-linecap: square"/>
   </g>
   <g id="line2d_80">
    <path d="M 854.879207 555.2233 
L 864.323702 492.775806 
L 878.490446 407.32551 
L 902.101686 291.623663 
L 925.712926 213.657942 
L 972.935405 159.297102 
L 1020.157884 147.567018 
L 1067.380364 135.523092 
L 1114.602843 133.974128 
L 1209.047802 133.236866 
L 1256.270281 132.510324 
L 1303.49276 131.86656 
" clip-path="url(#pb5dc0b00d4)" style="fill: none; stroke-dasharray: 1.5,2.475; stroke-dashoffset: 0; stroke: #00bfff; stroke-width: 1.5"/>
   </g>
   <g id="line2d_81">
    <path d="M 854.879207 549.326993 
L 864.323702 484.530743 
L 878.490446 395.65617 
L 902.101686 275.808269 
L 925.712926 196.753925 
L 972.935405 139.719767 
L 1020.157884 135.156843 
L 1067.380364 134.653028 
L 1114.602843 134.586925 
L 1209.047802 133.180291 
L 1256.270281 132.475784 
L 1303.49276 131.86656 
" clip-path="url(#pb5dc0b00d4)" style="fill: none; stroke: #c0c0c0; stroke-width: 1.5; stroke-linecap: square"/>
   </g>
   <g id="line2d_82">
    <path d="M 831.267967 727.39296 
L 832.917853 720.733963 
L 839.033992 696.891947 
L 847.493601 664.782239 
L 857.277322 628.509384 
L 867.491905 591.479378 
L 877.496311 556.061104 
L 886.817643 523.872607 
L 894.940969 496.600181 
L 902.370712 472.394774 
L 909.464172 450.015192 
L 916.0427 429.948158 
L 922.768351 410.136247 
L 928.884491 392.764863 
L 934.82198 376.538855 
L 940.83303 360.744305 
L 946.980696 345.233464 
L 952.592411 331.66392 
L 958.120056 318.855399 
L 963.83686 306.171641 
L 969.375013 294.447454 
L 974.713499 283.66015 
L 979.841808 273.763455 
L 984.738923 264.758858 
L 989.898759 255.717756 
L 995.069103 247.117403 
L 1000.03978 239.272177 
L 1005.178598 231.583873 
L 1010.454031 224.125858 
L 1015.298601 217.643137 
L 1020.405893 211.197279 
L 1025.239955 205.455631 
L 1029.968928 200.158067 
L 1034.781972 195.085314 
L 1040.036387 189.884165 
L 1045.185714 185.106198 
L 1049.862144 181.04185 
L 1054.990453 176.885314 
L 1059.929603 173.163513 
L 1065.057912 169.580826 
L 1070.091642 166.319843 
L 1075.472163 163.096378 
L 1080.547928 160.290794 
L 1085.854887 157.589248 
L 1091.414058 155.003473 
L 1097.898007 152.258573 
L 1104.140252 149.866522 
L 1110.456059 147.694042 
L 1117.160692 145.644777 
L 1123.760238 143.853016 
L 1130.906242 142.145047 
L 1138.966515 140.477335 
L 1146.806102 139.079873 
L 1155.223675 137.80902 
L 1165.291135 136.551804 
L 1175.022311 135.56061 
L 1186.466427 134.634388 
L 1196.95424 133.973115 
L 1210.058751 133.341619 
L 1227.755621 132.750738 
L 1244.454152 132.388658 
L 1270.79979 132.051828 
L 1303.49276 131.86656 
L 1303.49276 131.86656 
" clip-path="url(#pb5dc0b00d4)" style="fill: none; stroke: #c0c0c0; stroke-width: 1.5; stroke-linecap: square"/>
   </g>
   <g id="patch_9">
    <path d="M 807.656727 757.16928 
L 807.656727 102.09024 
" style="fill: none; stroke: #000000; stroke-width: 0.8; stroke-linejoin: miter; stroke-linecap: square"/>
   </g>
   <g id="patch_10">
    <path d="M 1327.104 757.16928 
L 1327.104 102.09024 
" style="fill: none; stroke: #000000; stroke-width: 0.8; stroke-linejoin: miter; stroke-linecap: square"/>
   </g>
   <g id="patch_11">
    <path d="M 807.656727 757.16928 
L 1327.104 757.16928 
" style="fill: none; stroke: #000000; stroke-width: 0.8; stroke-linejoin: miter; stroke-linecap: square"/>
   </g>
   <g id="patch_12">
    <path d="M 807.656727 102.09024 
L 1327.104 102.09024 
" style="fill: none; stroke: #000000; stroke-width: 0.8; stroke-linejoin: miter; stroke-linecap: square"/>
   </g>
   <g id="text_42">
    <!-- random3 -->
    <g transform="translate(1040.292239 96.09024)scale(0.12 -0.12)">
     <defs>
      <path id="DejaVuSans-6e" d="M 3513 2113 
L 3513 0 
L 2938 0 
L 2938 2094 
Q 2938 2591 2744 2837 
Q 2550 3084 2163 3084 
Q 1697 3084 1428 2787 
Q 1159 2491 1159 1978 
L 1159 0 
L 581 0 
L 581 3500 
L 1159 3500 
L 1159 2956 
Q 1366 3272 1645 3428 
Q 1925 3584 2291 3584 
Q 2894 3584 3203 3211 
Q 3513 2838 3513 2113 
z
" transform="scale(0.015625)"/>
      <path id="DejaVuSans-6f" d="M 1959 3097 
Q 1497 3097 1228 2736 
Q 959 2375 959 1747 
Q 959 1119 1226 758 
Q 1494 397 1959 397 
Q 2419 397 2687 759 
Q 2956 1122 2956 1747 
Q 2956 2369 2687 2733 
Q 2419 3097 1959 3097 
z
M 1959 3584 
Q 2709 3584 3137 3096 
Q 3566 2609 3566 1747 
Q 3566 888 3137 398 
Q 2709 -91 1959 -91 
Q 1206 -91 779 398 
Q 353 888 353 1747 
Q 353 2609 779 3096 
Q 1206 3584 1959 3584 
z
" transform="scale(0.015625)"/>
      <path id="DejaVuSans-6d" d="M 3328 2828 
Q 3544 3216 3844 3400 
Q 4144 3584 4550 3584 
Q 5097 3584 5394 3201 
Q 5691 2819 5691 2113 
L 5691 0 
L 5113 0 
L 5113 2094 
Q 5113 2597 4934 2840 
Q 4756 3084 4391 3084 
Q 3944 3084 3684 2787 
Q 3425 2491 3425 1978 
L 3425 0 
L 2847 0 
L 2847 2094 
Q 2847 2600 2669 2842 
Q 2491 3084 2119 3084 
Q 1678 3084 1418 2786 
Q 1159 2488 1159 1978 
L 1159 0 
L 581 0 
L 581 3500 
L 1159 3500 
L 1159 2956 
Q 1356 3278 1631 3431 
Q 1906 3584 2284 3584 
Q 2666 3584 2933 3390 
Q 3200 3197 3328 2828 
z
" transform="scale(0.015625)"/>
     </defs>
     <use xlink:href="#DejaVuSans-72"/>
     <use xlink:href="#DejaVuSans-61" x="41.113281"/>
     <use xlink:href="#DejaVuSans-6e" x="102.392578"/>
     <use xlink:href="#DejaVuSans-64" x="165.771484"/>
     <use xlink:href="#DejaVuSans-6f" x="229.248047"/>
     <use xlink:href="#DejaVuSans-6d" x="290.429688"/>
     <use xlink:href="#DejaVuSans-33" x="387.841797"/>
    </g>
   </g>
   <g id="legend_2">
    <g id="patch_13">
     <path d="M 814.656727 256.87149 
L 891.22704 256.87149 
Q 893.22704 256.87149 893.22704 254.87149 
L 893.22704 109.09024 
Q 893.22704 107.09024 891.22704 107.09024 
L 814.656727 107.09024 
Q 812.656727 107.09024 812.656727 109.09024 
L 812.656727 254.87149 
Q 812.656727 256.87149 814.656727 256.87149 
z
" style="fill: #ffffff; opacity: 0.8; stroke: #cccccc; stroke-linejoin: miter"/>
    </g>
    <g id="line2d_83">
     <path d="M 816.656727 115.188678 
L 826.656727 115.188678 
L 836.656727 115.188678 
" style="fill: none; stroke: #4169e1; stroke-width: 1.5; stroke-linecap: square"/>
    </g>
    <g id="text_43">
     <!-- ALFU1 -->
     <g transform="translate(844.656727 118.688678)scale(0.1 -0.1)">
      <use xlink:href="#DejaVuSans-41"/>
      <use xlink:href="#DejaVuSans-4c" x="68.408203"/>
      <use xlink:href="#DejaVuSans-46" x="124.121094"/>
      <use xlink:href="#DejaVuSans-55" x="181.640625"/>
      <use xlink:href="#DejaVuSans-31" x="254.833984"/>
     </g>
    </g>
    <g id="line2d_84">
     <path d="M 816.656727 129.866803 
L 826.656727 129.866803 
L 836.656727 129.866803 
" style="fill: none; stroke-dasharray: 1.5,2.475; stroke-dashoffset: 0; stroke: #4169e1; stroke-width: 1.5"/>
    </g>
    <g id="text_44">
     <!-- ALFU0 -->
     <g transform="translate(844.656727 133.366803)scale(0.1 -0.1)">
      <use xlink:href="#DejaVuSans-41"/>
      <use xlink:href="#DejaVuSans-4c" x="68.408203"/>
      <use xlink:href="#DejaVuSans-46" x="124.121094"/>
      <use xlink:href="#DejaVuSans-55" x="181.640625"/>
      <use xlink:href="#DejaVuSans-30" x="254.833984"/>
     </g>
    </g>
    <g id="line2d_85">
     <path d="M 816.656727 144.544928 
L 826.656727 144.544928 
L 836.656727 144.544928 
" style="fill: none; stroke: #d2691e; stroke-width: 1.5; stroke-linecap: square"/>
    </g>
    <g id="text_45">
     <!-- ALFU10 -->
     <g transform="translate(844.656727 148.044928)scale(0.1 -0.1)">
      <use xlink:href="#DejaVuSans-41"/>
      <use xlink:href="#DejaVuSans-4c" x="68.408203"/>
      <use xlink:href="#DejaVuSans-46" x="124.121094"/>
      <use xlink:href="#DejaVuSans-55" x="181.640625"/>
      <use xlink:href="#DejaVuSans-31" x="254.833984"/>
      <use xlink:href="#DejaVuSans-30" x="318.457031"/>
     </g>
    </g>
    <g id="line2d_86">
     <path d="M 816.656727 159.223053 
L 826.656727 159.223053 
L 836.656727 159.223053 
" style="fill: none; stroke-dasharray: 1.5,2.475; stroke-dashoffset: 0; stroke: #d2691e; stroke-width: 1.5"/>
    </g>
    <g id="text_46">
     <!-- ARC -->
     <g transform="translate(844.656727 162.723053)scale(0.1 -0.1)">
      <use xlink:href="#DejaVuSans-41"/>
      <use xlink:href="#DejaVuSans-52" x="68.408203"/>
      <use xlink:href="#DejaVuSans-43" x="132.890625"/>
     </g>
    </g>
    <g id="line2d_87">
     <path d="M 816.656727 173.901178 
L 826.656727 173.901178 
L 836.656727 173.901178 
" style="fill: none; stroke: #6b8e23; stroke-width: 1.5; stroke-linecap: square"/>
    </g>
    <g id="text_47">
     <!-- ALFU5 -->
     <g transform="translate(844.656727 177.401178)scale(0.1 -0.1)">
      <use xlink:href="#DejaVuSans-41"/>
      <use xlink:href="#DejaVuSans-4c" x="68.408203"/>
      <use xlink:href="#DejaVuSans-46" x="124.121094"/>
      <use xlink:href="#DejaVuSans-55" x="181.640625"/>
      <use xlink:href="#DejaVuSans-35" x="254.833984"/>
     </g>
    </g>
    <g id="line2d_88">
     <path d="M 816.656727 188.579303 
L 826.656727 188.579303 
L 836.656727 188.579303 
" style="fill: none; stroke-dasharray: 1.5,2.475; stroke-dashoffset: 0; stroke: #6b8e23; stroke-width: 1.5"/>
    </g>
    <g id="text_48">
     <!-- ALFU2 -->
     <g transform="translate(844.656727 192.079303)scale(0.1 -0.1)">
      <use xlink:href="#DejaVuSans-41"/>
      <use xlink:href="#DejaVuSans-4c" x="68.408203"/>
      <use xlink:href="#DejaVuSans-46" x="124.121094"/>
      <use xlink:href="#DejaVuSans-55" x="181.640625"/>
      <use xlink:href="#DejaVuSans-32" x="254.833984"/>
     </g>
    </g>
    <g id="line2d_89">
     <path d="M 816.656727 203.257428 
L 826.656727 203.257428 
L 836.656727 203.257428 
" style="fill: none; stroke: #00bfff; stroke-width: 1.5; stroke-linecap: square"/>
    </g>
    <g id="text_49">
     <!-- ALFU50 -->
     <g transform="translate(844.656727 206.757428)scale(0.1 -0.1)">
      <use xlink:href="#DejaVuSans-41"/>
      <use xlink:href="#DejaVuSans-4c" x="68.408203"/>
      <use xlink:href="#DejaVuSans-46" x="124.121094"/>
      <use xlink:href="#DejaVuSans-55" x="181.640625"/>
      <use xlink:href="#DejaVuSans-35" x="254.833984"/>
      <use xlink:href="#DejaVuSans-30" x="318.457031"/>
     </g>
    </g>
    <g id="line2d_90">
     <path d="M 816.656727 217.935553 
L 826.656727 217.935553 
L 836.656727 217.935553 
" style="fill: none; stroke-dasharray: 1.5,2.475; stroke-dashoffset: 0; stroke: #00bfff; stroke-width: 1.5"/>
    </g>
    <g id="text_50">
     <!-- ALFU100 -->
     <g transform="translate(844.656727 221.435553)scale(0.1 -0.1)">
      <use xlink:href="#DejaVuSans-41"/>
      <use xlink:href="#DejaVuSans-4c" x="68.408203"/>
      <use xlink:href="#DejaVuSans-46" x="124.121094"/>
      <use xlink:href="#DejaVuSans-55" x="181.640625"/>
      <use xlink:href="#DejaVuSans-31" x="254.833984"/>
      <use xlink:href="#DejaVuSans-30" x="318.457031"/>
      <use xlink:href="#DejaVuSans-30" x="382.080078"/>
     </g>
    </g>
    <g id="line2d_91">
     <path d="M 816.656727 232.613677 
L 826.656727 232.613677 
L 836.656727 232.613677 
" style="fill: none; stroke: #c0c0c0; stroke-width: 1.5; stroke-linecap: square"/>
    </g>
    <g id="text_51">
     <!-- ALFU500 -->
     <g transform="translate(844.656727 236.113677)scale(0.1 -0.1)">
      <use xlink:href="#DejaVuSans-41"/>
      <use xlink:href="#DejaVuSans-4c" x="68.408203"/>
      <use xlink:href="#DejaVuSans-46" x="124.121094"/>
      <use xlink:href="#DejaVuSans-55" x="181.640625"/>
      <use xlink:href="#DejaVuSans-35" x="254.833984"/>
      <use xlink:href="#DejaVuSans-30" x="318.457031"/>
      <use xlink:href="#DejaVuSans-30" x="382.080078"/>
     </g>
    </g>
    <g id="line2d_92">
     <path d="M 816.656727 247.291803 
L 826.656727 247.291803 
L 836.656727 247.291803 
" style="fill: none; stroke: #c0c0c0; stroke-width: 1.5; stroke-linecap: square"/>
    </g>
    <g id="text_52">
     <!-- dist -->
     <g transform="translate(844.656727 250.791803)scale(0.1 -0.1)">
      <use xlink:href="#DejaVuSans-64"/>
      <use xlink:href="#DejaVuSans-69" x="63.476562"/>
      <use xlink:href="#DejaVuSans-73" x="91.259766"/>
      <use xlink:href="#DejaVuSans-74" x="143.359375"/>
     </g>
    </g>
   </g>
  </g>
 </g>
 <defs>
  <clipPath id="pd32d23f4db">
   <rect x="184.32" y="102.09024" width="519.447273" height="655.07904"/>
  </clipPath>
  <clipPath id="pb5dc0b00d4">
   <rect x="807.656727" y="102.09024" width="519.447273" height="655.07904"/>
  </clipPath>
 </defs>
</svg>
