<?xml version="1.0" encoding="utf-8" standalone="no"?>
<!DOCTYPE svg PUBLIC "-//W3C//DTD SVG 1.1//EN"
  "http://www.w3.org/Graphics/SVG/1.1/DTD/svg11.dtd">
<svg xmlns:xlink="http://www.w3.org/1999/xlink" width="1036.8pt" height="622.08pt" viewBox="0 0 1036.8 622.08" xmlns="http://www.w3.org/2000/svg" version="1.1">
 <metadata>
  <rdf:RDF xmlns:dc="http://purl.org/dc/elements/1.1/" xmlns:cc="http://creativecommons.org/ns#" xmlns:rdf="http://www.w3.org/1999/02/22-rdf-syntax-ns#">
   <cc:Work>
    <dc:type rdf:resource="http://purl.org/dc/dcmitype/StillImage"/>
    <dc:date>2022-05-09T01:16:33.630103</dc:date>
    <dc:format>image/svg+xml</dc:format>
    <dc:creator>
     <cc:Agent>
      <dc:title>Matplotlib v3.5.1, https://matplotlib.org/</dc:title>
     </cc:Agent>
    </dc:creator>
   </cc:Work>
  </rdf:RDF>
 </metadata>
 <defs>
  <style type="text/css">*{stroke-linejoin: round; stroke-linecap: butt}</style>
 </defs>
 <g id="figure_1">
  <g id="patch_1">
   <path d="M 0 622.08 
L 1036.8 622.08 
L 1036.8 0 
L 0 0 
z
" style="fill: #ffffff"/>
  </g>
  <g id="axes_1">
   <g id="patch_2">
    <path d="M 129.6 553.6512 
L 494.836364 553.6512 
L 494.836364 74.6496 
L 129.6 74.6496 
z
" style="fill: #ffffff"/>
   </g>
   <g id="matplotlib.axis_1">
    <g id="xtick_1">
     <g id="line2d_1">
      <path d="M 146.201653 553.6512 
L 146.201653 74.6496 
" clip-path="url(#p08dc38e62d)" style="fill: none; stroke: #b0b0b0; stroke-width: 0.8; stroke-linecap: square"/>
     </g>
     <g id="line2d_2">
      <defs>
       <path id="m3d9f576bd8" d="M 0 0 
L 0 3.5 
" style="stroke: #000000; stroke-width: 0.8"/>
      </defs>
      <g>
       <use xlink:href="#m3d9f576bd8" x="146.201653" y="553.6512" style="stroke: #000000; stroke-width: 0.8"/>
      </g>
     </g>
     <g id="text_1">
      <!-- 0 -->
      <g transform="translate(143.020403 568.249638)scale(0.1 -0.1)">
       <defs>
        <path id="DejaVuSans-30" d="M 2034 4250 
Q 1547 4250 1301 3770 
Q 1056 3291 1056 2328 
Q 1056 1369 1301 889 
Q 1547 409 2034 409 
Q 2525 409 2770 889 
Q 3016 1369 3016 2328 
Q 3016 3291 2770 3770 
Q 2525 4250 2034 4250 
z
M 2034 4750 
Q 2819 4750 3233 4129 
Q 3647 3509 3647 2328 
Q 3647 1150 3233 529 
Q 2819 -91 2034 -91 
Q 1250 -91 836 529 
Q 422 1150 422 2328 
Q 422 3509 836 4129 
Q 1250 4750 2034 4750 
z
" transform="scale(0.015625)"/>
       </defs>
       <use xlink:href="#DejaVuSans-30"/>
      </g>
     </g>
    </g>
    <g id="xtick_2">
     <g id="line2d_3">
      <path d="M 212.608264 553.6512 
L 212.608264 74.6496 
" clip-path="url(#p08dc38e62d)" style="fill: none; stroke: #b0b0b0; stroke-width: 0.8; stroke-linecap: square"/>
     </g>
     <g id="line2d_4">
      <g>
       <use xlink:href="#m3d9f576bd8" x="212.608264" y="553.6512" style="stroke: #000000; stroke-width: 0.8"/>
      </g>
     </g>
     <g id="text_2">
      <!-- 20 -->
      <g transform="translate(206.245764 568.249638)scale(0.1 -0.1)">
       <defs>
        <path id="DejaVuSans-32" d="M 1228 531 
L 3431 531 
L 3431 0 
L 469 0 
L 469 531 
Q 828 903 1448 1529 
Q 2069 2156 2228 2338 
Q 2531 2678 2651 2914 
Q 2772 3150 2772 3378 
Q 2772 3750 2511 3984 
Q 2250 4219 1831 4219 
Q 1534 4219 1204 4116 
Q 875 4013 500 3803 
L 500 4441 
Q 881 4594 1212 4672 
Q 1544 4750 1819 4750 
Q 2544 4750 2975 4387 
Q 3406 4025 3406 3419 
Q 3406 3131 3298 2873 
Q 3191 2616 2906 2266 
Q 2828 2175 2409 1742 
Q 1991 1309 1228 531 
z
" transform="scale(0.015625)"/>
       </defs>
       <use xlink:href="#DejaVuSans-32"/>
       <use xlink:href="#DejaVuSans-30" x="63.623047"/>
      </g>
     </g>
    </g>
    <g id="xtick_3">
     <g id="line2d_5">
      <path d="M 279.014876 553.6512 
L 279.014876 74.6496 
" clip-path="url(#p08dc38e62d)" style="fill: none; stroke: #b0b0b0; stroke-width: 0.8; stroke-linecap: square"/>
     </g>
     <g id="line2d_6">
      <g>
       <use xlink:href="#m3d9f576bd8" x="279.014876" y="553.6512" style="stroke: #000000; stroke-width: 0.8"/>
      </g>
     </g>
     <g id="text_3">
      <!-- 40 -->
      <g transform="translate(272.652376 568.249638)scale(0.1 -0.1)">
       <defs>
        <path id="DejaVuSans-34" d="M 2419 4116 
L 825 1625 
L 2419 1625 
L 2419 4116 
z
M 2253 4666 
L 3047 4666 
L 3047 1625 
L 3713 1625 
L 3713 1100 
L 3047 1100 
L 3047 0 
L 2419 0 
L 2419 1100 
L 313 1100 
L 313 1709 
L 2253 4666 
z
" transform="scale(0.015625)"/>
       </defs>
       <use xlink:href="#DejaVuSans-34"/>
       <use xlink:href="#DejaVuSans-30" x="63.623047"/>
      </g>
     </g>
    </g>
    <g id="xtick_4">
     <g id="line2d_7">
      <path d="M 345.421488 553.6512 
L 345.421488 74.6496 
" clip-path="url(#p08dc38e62d)" style="fill: none; stroke: #b0b0b0; stroke-width: 0.8; stroke-linecap: square"/>
     </g>
     <g id="line2d_8">
      <g>
       <use xlink:href="#m3d9f576bd8" x="345.421488" y="553.6512" style="stroke: #000000; stroke-width: 0.8"/>
      </g>
     </g>
     <g id="text_4">
      <!-- 60 -->
      <g transform="translate(339.058988 568.249638)scale(0.1 -0.1)">
       <defs>
        <path id="DejaVuSans-36" d="M 2113 2584 
Q 1688 2584 1439 2293 
Q 1191 2003 1191 1497 
Q 1191 994 1439 701 
Q 1688 409 2113 409 
Q 2538 409 2786 701 
Q 3034 994 3034 1497 
Q 3034 2003 2786 2293 
Q 2538 2584 2113 2584 
z
M 3366 4563 
L 3366 3988 
Q 3128 4100 2886 4159 
Q 2644 4219 2406 4219 
Q 1781 4219 1451 3797 
Q 1122 3375 1075 2522 
Q 1259 2794 1537 2939 
Q 1816 3084 2150 3084 
Q 2853 3084 3261 2657 
Q 3669 2231 3669 1497 
Q 3669 778 3244 343 
Q 2819 -91 2113 -91 
Q 1303 -91 875 529 
Q 447 1150 447 2328 
Q 447 3434 972 4092 
Q 1497 4750 2381 4750 
Q 2619 4750 2861 4703 
Q 3103 4656 3366 4563 
z
" transform="scale(0.015625)"/>
       </defs>
       <use xlink:href="#DejaVuSans-36"/>
       <use xlink:href="#DejaVuSans-30" x="63.623047"/>
      </g>
     </g>
    </g>
    <g id="xtick_5">
     <g id="line2d_9">
      <path d="M 411.828099 553.6512 
L 411.828099 74.6496 
" clip-path="url(#p08dc38e62d)" style="fill: none; stroke: #b0b0b0; stroke-width: 0.8; stroke-linecap: square"/>
     </g>
     <g id="line2d_10">
      <g>
       <use xlink:href="#m3d9f576bd8" x="411.828099" y="553.6512" style="stroke: #000000; stroke-width: 0.8"/>
      </g>
     </g>
     <g id="text_5">
      <!-- 80 -->
      <g transform="translate(405.465599 568.249638)scale(0.1 -0.1)">
       <defs>
        <path id="DejaVuSans-38" d="M 2034 2216 
Q 1584 2216 1326 1975 
Q 1069 1734 1069 1313 
Q 1069 891 1326 650 
Q 1584 409 2034 409 
Q 2484 409 2743 651 
Q 3003 894 3003 1313 
Q 3003 1734 2745 1975 
Q 2488 2216 2034 2216 
z
M 1403 2484 
Q 997 2584 770 2862 
Q 544 3141 544 3541 
Q 544 4100 942 4425 
Q 1341 4750 2034 4750 
Q 2731 4750 3128 4425 
Q 3525 4100 3525 3541 
Q 3525 3141 3298 2862 
Q 3072 2584 2669 2484 
Q 3125 2378 3379 2068 
Q 3634 1759 3634 1313 
Q 3634 634 3220 271 
Q 2806 -91 2034 -91 
Q 1263 -91 848 271 
Q 434 634 434 1313 
Q 434 1759 690 2068 
Q 947 2378 1403 2484 
z
M 1172 3481 
Q 1172 3119 1398 2916 
Q 1625 2713 2034 2713 
Q 2441 2713 2670 2916 
Q 2900 3119 2900 3481 
Q 2900 3844 2670 4047 
Q 2441 4250 2034 4250 
Q 1625 4250 1398 4047 
Q 1172 3844 1172 3481 
z
" transform="scale(0.015625)"/>
       </defs>
       <use xlink:href="#DejaVuSans-38"/>
       <use xlink:href="#DejaVuSans-30" x="63.623047"/>
      </g>
     </g>
    </g>
    <g id="xtick_6">
     <g id="line2d_11">
      <path d="M 478.234711 553.6512 
L 478.234711 74.6496 
" clip-path="url(#p08dc38e62d)" style="fill: none; stroke: #b0b0b0; stroke-width: 0.8; stroke-linecap: square"/>
     </g>
     <g id="line2d_12">
      <g>
       <use xlink:href="#m3d9f576bd8" x="478.234711" y="553.6512" style="stroke: #000000; stroke-width: 0.8"/>
      </g>
     </g>
     <g id="text_6">
      <!-- 100 -->
      <g transform="translate(468.690961 568.249638)scale(0.1 -0.1)">
       <defs>
        <path id="DejaVuSans-31" d="M 794 531 
L 1825 531 
L 1825 4091 
L 703 3866 
L 703 4441 
L 1819 4666 
L 2450 4666 
L 2450 531 
L 3481 531 
L 3481 0 
L 794 0 
L 794 531 
z
" transform="scale(0.015625)"/>
       </defs>
       <use xlink:href="#DejaVuSans-31"/>
       <use xlink:href="#DejaVuSans-30" x="63.623047"/>
       <use xlink:href="#DejaVuSans-30" x="127.246094"/>
      </g>
     </g>
    </g>
    <g id="text_7">
     <!-- Cache Size(%) -->
     <g transform="translate(276.162713 581.927763)scale(0.1 -0.1)">
      <defs>
       <path id="DejaVuSans-43" d="M 4122 4306 
L 4122 3641 
Q 3803 3938 3442 4084 
Q 3081 4231 2675 4231 
Q 1875 4231 1450 3742 
Q 1025 3253 1025 2328 
Q 1025 1406 1450 917 
Q 1875 428 2675 428 
Q 3081 428 3442 575 
Q 3803 722 4122 1019 
L 4122 359 
Q 3791 134 3420 21 
Q 3050 -91 2638 -91 
Q 1578 -91 968 557 
Q 359 1206 359 2328 
Q 359 3453 968 4101 
Q 1578 4750 2638 4750 
Q 3056 4750 3426 4639 
Q 3797 4528 4122 4306 
z
" transform="scale(0.015625)"/>
       <path id="DejaVuSans-61" d="M 2194 1759 
Q 1497 1759 1228 1600 
Q 959 1441 959 1056 
Q 959 750 1161 570 
Q 1363 391 1709 391 
Q 2188 391 2477 730 
Q 2766 1069 2766 1631 
L 2766 1759 
L 2194 1759 
z
M 3341 1997 
L 3341 0 
L 2766 0 
L 2766 531 
Q 2569 213 2275 61 
Q 1981 -91 1556 -91 
Q 1019 -91 701 211 
Q 384 513 384 1019 
Q 384 1609 779 1909 
Q 1175 2209 1959 2209 
L 2766 2209 
L 2766 2266 
Q 2766 2663 2505 2880 
Q 2244 3097 1772 3097 
Q 1472 3097 1187 3025 
Q 903 2953 641 2809 
L 641 3341 
Q 956 3463 1253 3523 
Q 1550 3584 1831 3584 
Q 2591 3584 2966 3190 
Q 3341 2797 3341 1997 
z
" transform="scale(0.015625)"/>
       <path id="DejaVuSans-63" d="M 3122 3366 
L 3122 2828 
Q 2878 2963 2633 3030 
Q 2388 3097 2138 3097 
Q 1578 3097 1268 2742 
Q 959 2388 959 1747 
Q 959 1106 1268 751 
Q 1578 397 2138 397 
Q 2388 397 2633 464 
Q 2878 531 3122 666 
L 3122 134 
Q 2881 22 2623 -34 
Q 2366 -91 2075 -91 
Q 1284 -91 818 406 
Q 353 903 353 1747 
Q 353 2603 823 3093 
Q 1294 3584 2113 3584 
Q 2378 3584 2631 3529 
Q 2884 3475 3122 3366 
z
" transform="scale(0.015625)"/>
       <path id="DejaVuSans-68" d="M 3513 2113 
L 3513 0 
L 2938 0 
L 2938 2094 
Q 2938 2591 2744 2837 
Q 2550 3084 2163 3084 
Q 1697 3084 1428 2787 
Q 1159 2491 1159 1978 
L 1159 0 
L 581 0 
L 581 4863 
L 1159 4863 
L 1159 2956 
Q 1366 3272 1645 3428 
Q 1925 3584 2291 3584 
Q 2894 3584 3203 3211 
Q 3513 2838 3513 2113 
z
" transform="scale(0.015625)"/>
       <path id="DejaVuSans-65" d="M 3597 1894 
L 3597 1613 
L 953 1613 
Q 991 1019 1311 708 
Q 1631 397 2203 397 
Q 2534 397 2845 478 
Q 3156 559 3463 722 
L 3463 178 
Q 3153 47 2828 -22 
Q 2503 -91 2169 -91 
Q 1331 -91 842 396 
Q 353 884 353 1716 
Q 353 2575 817 3079 
Q 1281 3584 2069 3584 
Q 2775 3584 3186 3129 
Q 3597 2675 3597 1894 
z
M 3022 2063 
Q 3016 2534 2758 2815 
Q 2500 3097 2075 3097 
Q 1594 3097 1305 2825 
Q 1016 2553 972 2059 
L 3022 2063 
z
" transform="scale(0.015625)"/>
       <path id="DejaVuSans-20" transform="scale(0.015625)"/>
       <path id="DejaVuSans-53" d="M 3425 4513 
L 3425 3897 
Q 3066 4069 2747 4153 
Q 2428 4238 2131 4238 
Q 1616 4238 1336 4038 
Q 1056 3838 1056 3469 
Q 1056 3159 1242 3001 
Q 1428 2844 1947 2747 
L 2328 2669 
Q 3034 2534 3370 2195 
Q 3706 1856 3706 1288 
Q 3706 609 3251 259 
Q 2797 -91 1919 -91 
Q 1588 -91 1214 -16 
Q 841 59 441 206 
L 441 856 
Q 825 641 1194 531 
Q 1563 422 1919 422 
Q 2459 422 2753 634 
Q 3047 847 3047 1241 
Q 3047 1584 2836 1778 
Q 2625 1972 2144 2069 
L 1759 2144 
Q 1053 2284 737 2584 
Q 422 2884 422 3419 
Q 422 4038 858 4394 
Q 1294 4750 2059 4750 
Q 2388 4750 2728 4690 
Q 3069 4631 3425 4513 
z
" transform="scale(0.015625)"/>
       <path id="DejaVuSans-69" d="M 603 3500 
L 1178 3500 
L 1178 0 
L 603 0 
L 603 3500 
z
M 603 4863 
L 1178 4863 
L 1178 4134 
L 603 4134 
L 603 4863 
z
" transform="scale(0.015625)"/>
       <path id="DejaVuSans-7a" d="M 353 3500 
L 3084 3500 
L 3084 2975 
L 922 459 
L 3084 459 
L 3084 0 
L 275 0 
L 275 525 
L 2438 3041 
L 353 3041 
L 353 3500 
z
" transform="scale(0.015625)"/>
       <path id="DejaVuSans-28" d="M 1984 4856 
Q 1566 4138 1362 3434 
Q 1159 2731 1159 2009 
Q 1159 1288 1364 580 
Q 1569 -128 1984 -844 
L 1484 -844 
Q 1016 -109 783 600 
Q 550 1309 550 2009 
Q 550 2706 781 3412 
Q 1013 4119 1484 4856 
L 1984 4856 
z
" transform="scale(0.015625)"/>
       <path id="DejaVuSans-25" d="M 4653 2053 
Q 4381 2053 4226 1822 
Q 4072 1591 4072 1178 
Q 4072 772 4226 539 
Q 4381 306 4653 306 
Q 4919 306 5073 539 
Q 5228 772 5228 1178 
Q 5228 1588 5073 1820 
Q 4919 2053 4653 2053 
z
M 4653 2450 
Q 5147 2450 5437 2106 
Q 5728 1763 5728 1178 
Q 5728 594 5436 251 
Q 5144 -91 4653 -91 
Q 4153 -91 3862 251 
Q 3572 594 3572 1178 
Q 3572 1766 3864 2108 
Q 4156 2450 4653 2450 
z
M 1428 4353 
Q 1159 4353 1004 4120 
Q 850 3888 850 3481 
Q 850 3069 1003 2837 
Q 1156 2606 1428 2606 
Q 1700 2606 1854 2837 
Q 2009 3069 2009 3481 
Q 2009 3884 1853 4118 
Q 1697 4353 1428 4353 
z
M 4250 4750 
L 4750 4750 
L 1831 -91 
L 1331 -91 
L 4250 4750 
z
M 1428 4750 
Q 1922 4750 2215 4408 
Q 2509 4066 2509 3481 
Q 2509 2891 2217 2550 
Q 1925 2209 1428 2209 
Q 931 2209 642 2551 
Q 353 2894 353 3481 
Q 353 4063 643 4406 
Q 934 4750 1428 4750 
z
" transform="scale(0.015625)"/>
       <path id="DejaVuSans-29" d="M 513 4856 
L 1013 4856 
Q 1481 4119 1714 3412 
Q 1947 2706 1947 2009 
Q 1947 1309 1714 600 
Q 1481 -109 1013 -844 
L 513 -844 
Q 928 -128 1133 580 
Q 1338 1288 1338 2009 
Q 1338 2731 1133 3434 
Q 928 4138 513 4856 
z
" transform="scale(0.015625)"/>
      </defs>
      <use xlink:href="#DejaVuSans-43"/>
      <use xlink:href="#DejaVuSans-61" x="69.824219"/>
      <use xlink:href="#DejaVuSans-63" x="131.103516"/>
      <use xlink:href="#DejaVuSans-68" x="186.083984"/>
      <use xlink:href="#DejaVuSans-65" x="249.462891"/>
      <use xlink:href="#DejaVuSans-20" x="310.986328"/>
      <use xlink:href="#DejaVuSans-53" x="342.773438"/>
      <use xlink:href="#DejaVuSans-69" x="406.25"/>
      <use xlink:href="#DejaVuSans-7a" x="434.033203"/>
      <use xlink:href="#DejaVuSans-65" x="486.523438"/>
      <use xlink:href="#DejaVuSans-28" x="548.046875"/>
      <use xlink:href="#DejaVuSans-25" x="587.060547"/>
      <use xlink:href="#DejaVuSans-29" x="682.080078"/>
     </g>
    </g>
   </g>
   <g id="matplotlib.axis_2">
    <g id="ytick_1">
     <g id="line2d_13">
      <path d="M 129.6 531.8784 
L 494.836364 531.8784 
" clip-path="url(#p08dc38e62d)" style="fill: none; stroke: #b0b0b0; stroke-width: 0.8; stroke-linecap: square"/>
     </g>
     <g id="line2d_14">
      <defs>
       <path id="m24eede1ba6" d="M 0 0 
L -3.5 0 
" style="stroke: #000000; stroke-width: 0.8"/>
      </defs>
      <g>
       <use xlink:href="#m24eede1ba6" x="129.6" y="531.8784" style="stroke: #000000; stroke-width: 0.8"/>
      </g>
     </g>
     <g id="text_8">
      <!-- 0 -->
      <g transform="translate(116.2375 535.677619)scale(0.1 -0.1)">
       <use xlink:href="#DejaVuSans-30"/>
      </g>
     </g>
    </g>
    <g id="ytick_2">
     <g id="line2d_15">
      <path d="M 129.6 444.7872 
L 494.836364 444.7872 
" clip-path="url(#p08dc38e62d)" style="fill: none; stroke: #b0b0b0; stroke-width: 0.8; stroke-linecap: square"/>
     </g>
     <g id="line2d_16">
      <g>
       <use xlink:href="#m24eede1ba6" x="129.6" y="444.7872" style="stroke: #000000; stroke-width: 0.8"/>
      </g>
     </g>
     <g id="text_9">
      <!-- 20 -->
      <g transform="translate(109.875 448.586419)scale(0.1 -0.1)">
       <use xlink:href="#DejaVuSans-32"/>
       <use xlink:href="#DejaVuSans-30" x="63.623047"/>
      </g>
     </g>
    </g>
    <g id="ytick_3">
     <g id="line2d_17">
      <path d="M 129.6 357.696 
L 494.836364 357.696 
" clip-path="url(#p08dc38e62d)" style="fill: none; stroke: #b0b0b0; stroke-width: 0.8; stroke-linecap: square"/>
     </g>
     <g id="line2d_18">
      <g>
       <use xlink:href="#m24eede1ba6" x="129.6" y="357.696" style="stroke: #000000; stroke-width: 0.8"/>
      </g>
     </g>
     <g id="text_10">
      <!-- 40 -->
      <g transform="translate(109.875 361.495219)scale(0.1 -0.1)">
       <use xlink:href="#DejaVuSans-34"/>
       <use xlink:href="#DejaVuSans-30" x="63.623047"/>
      </g>
     </g>
    </g>
    <g id="ytick_4">
     <g id="line2d_19">
      <path d="M 129.6 270.6048 
L 494.836364 270.6048 
" clip-path="url(#p08dc38e62d)" style="fill: none; stroke: #b0b0b0; stroke-width: 0.8; stroke-linecap: square"/>
     </g>
     <g id="line2d_20">
      <g>
       <use xlink:href="#m24eede1ba6" x="129.6" y="270.6048" style="stroke: #000000; stroke-width: 0.8"/>
      </g>
     </g>
     <g id="text_11">
      <!-- 60 -->
      <g transform="translate(109.875 274.404019)scale(0.1 -0.1)">
       <use xlink:href="#DejaVuSans-36"/>
       <use xlink:href="#DejaVuSans-30" x="63.623047"/>
      </g>
     </g>
    </g>
    <g id="ytick_5">
     <g id="line2d_21">
      <path d="M 129.6 183.5136 
L 494.836364 183.5136 
" clip-path="url(#p08dc38e62d)" style="fill: none; stroke: #b0b0b0; stroke-width: 0.8; stroke-linecap: square"/>
     </g>
     <g id="line2d_22">
      <g>
       <use xlink:href="#m24eede1ba6" x="129.6" y="183.5136" style="stroke: #000000; stroke-width: 0.8"/>
      </g>
     </g>
     <g id="text_12">
      <!-- 80 -->
      <g transform="translate(109.875 187.312819)scale(0.1 -0.1)">
       <use xlink:href="#DejaVuSans-38"/>
       <use xlink:href="#DejaVuSans-30" x="63.623047"/>
      </g>
     </g>
    </g>
    <g id="ytick_6">
     <g id="line2d_23">
      <path d="M 129.6 96.4224 
L 494.836364 96.4224 
" clip-path="url(#p08dc38e62d)" style="fill: none; stroke: #b0b0b0; stroke-width: 0.8; stroke-linecap: square"/>
     </g>
     <g id="line2d_24">
      <g>
       <use xlink:href="#m24eede1ba6" x="129.6" y="96.4224" style="stroke: #000000; stroke-width: 0.8"/>
      </g>
     </g>
     <g id="text_13">
      <!-- 100 -->
      <g transform="translate(103.5125 100.221619)scale(0.1 -0.1)">
       <use xlink:href="#DejaVuSans-31"/>
       <use xlink:href="#DejaVuSans-30" x="63.623047"/>
       <use xlink:href="#DejaVuSans-30" x="127.246094"/>
      </g>
     </g>
    </g>
    <g id="text_14">
     <!-- Hit Rate[3] (%) -->
     <g transform="translate(97.432812 351.635556)rotate(-90)scale(0.1 -0.1)">
      <defs>
       <path id="DejaVuSans-48" d="M 628 4666 
L 1259 4666 
L 1259 2753 
L 3553 2753 
L 3553 4666 
L 4184 4666 
L 4184 0 
L 3553 0 
L 3553 2222 
L 1259 2222 
L 1259 0 
L 628 0 
L 628 4666 
z
" transform="scale(0.015625)"/>
       <path id="DejaVuSans-74" d="M 1172 4494 
L 1172 3500 
L 2356 3500 
L 2356 3053 
L 1172 3053 
L 1172 1153 
Q 1172 725 1289 603 
Q 1406 481 1766 481 
L 2356 481 
L 2356 0 
L 1766 0 
Q 1100 0 847 248 
Q 594 497 594 1153 
L 594 3053 
L 172 3053 
L 172 3500 
L 594 3500 
L 594 4494 
L 1172 4494 
z
" transform="scale(0.015625)"/>
       <path id="DejaVuSans-52" d="M 2841 2188 
Q 3044 2119 3236 1894 
Q 3428 1669 3622 1275 
L 4263 0 
L 3584 0 
L 2988 1197 
Q 2756 1666 2539 1819 
Q 2322 1972 1947 1972 
L 1259 1972 
L 1259 0 
L 628 0 
L 628 4666 
L 2053 4666 
Q 2853 4666 3247 4331 
Q 3641 3997 3641 3322 
Q 3641 2881 3436 2590 
Q 3231 2300 2841 2188 
z
M 1259 4147 
L 1259 2491 
L 2053 2491 
Q 2509 2491 2742 2702 
Q 2975 2913 2975 3322 
Q 2975 3731 2742 3939 
Q 2509 4147 2053 4147 
L 1259 4147 
z
" transform="scale(0.015625)"/>
       <path id="DejaVuSans-5b" d="M 550 4863 
L 1875 4863 
L 1875 4416 
L 1125 4416 
L 1125 -397 
L 1875 -397 
L 1875 -844 
L 550 -844 
L 550 4863 
z
" transform="scale(0.015625)"/>
       <path id="DejaVuSans-33" d="M 2597 2516 
Q 3050 2419 3304 2112 
Q 3559 1806 3559 1356 
Q 3559 666 3084 287 
Q 2609 -91 1734 -91 
Q 1441 -91 1130 -33 
Q 819 25 488 141 
L 488 750 
Q 750 597 1062 519 
Q 1375 441 1716 441 
Q 2309 441 2620 675 
Q 2931 909 2931 1356 
Q 2931 1769 2642 2001 
Q 2353 2234 1838 2234 
L 1294 2234 
L 1294 2753 
L 1863 2753 
Q 2328 2753 2575 2939 
Q 2822 3125 2822 3475 
Q 2822 3834 2567 4026 
Q 2313 4219 1838 4219 
Q 1578 4219 1281 4162 
Q 984 4106 628 3988 
L 628 4550 
Q 988 4650 1302 4700 
Q 1616 4750 1894 4750 
Q 2613 4750 3031 4423 
Q 3450 4097 3450 3541 
Q 3450 3153 3228 2886 
Q 3006 2619 2597 2516 
z
" transform="scale(0.015625)"/>
       <path id="DejaVuSans-5d" d="M 1947 4863 
L 1947 -844 
L 622 -844 
L 622 -397 
L 1369 -397 
L 1369 4416 
L 622 4416 
L 622 4863 
L 1947 4863 
z
" transform="scale(0.015625)"/>
      </defs>
      <use xlink:href="#DejaVuSans-48"/>
      <use xlink:href="#DejaVuSans-69" x="75.195312"/>
      <use xlink:href="#DejaVuSans-74" x="102.978516"/>
      <use xlink:href="#DejaVuSans-20" x="142.1875"/>
      <use xlink:href="#DejaVuSans-52" x="173.974609"/>
      <use xlink:href="#DejaVuSans-61" x="241.207031"/>
      <use xlink:href="#DejaVuSans-74" x="302.486328"/>
      <use xlink:href="#DejaVuSans-65" x="341.695312"/>
      <use xlink:href="#DejaVuSans-5b" x="403.21875"/>
      <use xlink:href="#DejaVuSans-33" x="442.232422"/>
      <use xlink:href="#DejaVuSans-5d" x="505.855469"/>
      <use xlink:href="#DejaVuSans-20" x="544.869141"/>
      <use xlink:href="#DejaVuSans-28" x="576.65625"/>
      <use xlink:href="#DejaVuSans-25" x="615.669922"/>
      <use xlink:href="#DejaVuSans-29" x="710.689453"/>
     </g>
    </g>
   </g>
   <g id="line2d_25">
    <path d="M 146.533686 517.831939 
L 147.197752 498.350683 
L 148.193851 476.883791 
L 149.521983 454.844927 
L 152.842314 414.858745 
L 156.162645 385.52338 
L 159.482975 362.064059 
L 162.803306 342.438057 
L 169.443967 310.843547 
L 179.404959 275.236745 
L 196.006612 233.832283 
L 212.608264 205.073897 
L 245.81157 167.798864 
L 279.014876 145.192601 
L 312.218182 130.180691 
L 345.421488 120.141253 
L 378.624793 112.782917 
L 411.828099 110.306915 
L 445.031405 110.306915 
L 461.633058 110.306915 
L 478.234711 96.4224 
" clip-path="url(#p08dc38e62d)" style="fill: none; stroke: #4169e1; stroke-width: 1.5; stroke-linecap: square"/>
   </g>
   <g id="line2d_26">
    <path d="M 146.533686 488.290125 
L 147.197752 454.797027 
L 148.193851 423.218629 
L 149.521983 394.978436 
L 152.842314 348.056311 
L 156.162645 316.44743 
L 159.482975 292.574862 
L 162.803306 273.22581 
L 169.443967 243.305192 
L 179.404959 211.723311 
L 196.006612 177.54524 
L 212.608264 155.665318 
L 245.81157 129.837987 
L 279.014876 116.276145 
L 312.218182 109.013175 
L 345.421488 105.12194 
L 378.624793 102.881519 
L 411.828099 101.46411 
L 445.031405 100.805265 
L 461.633058 100.691611 
L 478.234711 96.4224 
" clip-path="url(#p08dc38e62d)" style="fill: none; stroke: #d2691e; stroke-width: 1.5; stroke-linecap: square"/>
   </g>
   <g id="line2d_27">
    <path d="M 146.533686 479.024928 
L 147.197752 441.921464 
L 148.193851 410.815536 
L 149.521983 381.656531 
L 152.842314 334.187037 
L 156.162645 303.867107 
L 159.482975 280.657737 
L 162.803306 262.112537 
L 169.443967 233.871909 
L 179.404959 204.456856 
L 196.006612 172.566236 
L 212.608264 152.233489 
L 245.81157 128.027796 
L 279.014876 115.877268 
L 312.218182 108.208452 
L 345.421488 104.643374 
L 378.624793 102.880648 
L 411.828099 102.151259 
L 445.031405 100.589278 
L 461.633058 100.090246 
L 478.234711 96.4224 
" clip-path="url(#p08dc38e62d)" style="fill: none; stroke: #6b8e23; stroke-width: 1.5; stroke-linecap: square"/>
   </g>
   <g id="line2d_28">
    <path d="M 146.533686 517.831983 
L 147.197752 498.350814 
L 148.193851 476.884662 
L 149.521983 454.846669 
L 152.842314 414.864841 
L 156.162645 385.535573 
L 159.482975 362.083655 
L 162.803306 342.468104 
L 169.443967 310.891883 
L 179.404959 275.323401 
L 196.006612 234.011255 
L 212.608264 205.370878 
L 245.81157 168.40197 
L 279.014876 146.161055 
L 312.218182 131.766622 
L 345.421488 122.271504 
L 378.624793 114.458117 
L 411.828099 111.104234 
L 445.031405 110.604766 
L 461.633058 110.515933 
L 478.234711 96.4224 
" clip-path="url(#p08dc38e62d)" style="fill: none; stroke: #00bfff; stroke-width: 1.5; stroke-linecap: square"/>
   </g>
   <g id="line2d_29">
    <path d="M 146.533686 493.315636 
L 147.197752 463.210472 
L 148.193851 435.846853 
L 149.521983 410.825551 
L 152.842314 369.767711 
L 156.162645 342.108852 
L 159.482975 321.076328 
L 162.803306 303.996872 
L 169.443967 277.437105 
L 179.404959 248.393496 
L 196.006612 215.020583 
L 212.608264 191.579116 
L 245.81157 159.846131 
L 279.014876 137.794639 
L 312.218182 129.72651 
L 345.421488 118.766083 
L 378.624793 110.306915 
L 411.828099 110.038674 
L 445.031405 108.448388 
L 461.633058 98.860083 
L 478.234711 96.4224 
" clip-path="url(#p08dc38e62d)" style="fill: none; stroke: #c0c0c0; stroke-width: 1.5; stroke-linecap: square"/>
   </g>
   <g id="line2d_30">
    <path d="M 146.201653 531.8784 
L 146.324379 497.313559 
L 146.651781 465.290216 
L 147.152882 437.645951 
L 147.808861 413.42523 
L 148.618935 391.534049 
L 149.593298 371.140027 
L 150.698622 352.641155 
L 151.930201 335.776811 
L 153.282938 320.308443 
L 154.72821 306.254088 
L 156.327185 292.882907 
L 158.028104 280.524124 
L 159.786663 269.302844 
L 161.69461 258.567046 
L 163.759789 248.281347 
L 165.883782 238.865626 
L 168.048554 230.290879 
L 170.240772 222.472975 
L 172.617669 214.814297 
L 175.117292 207.540673 
L 177.7169 200.692077 
L 180.340425 194.409601 
L 182.877298 188.853569 
L 185.822736 182.95254 
L 188.452927 178.133971 
L 191.47953 173.042828 
L 195.001744 167.654433 
L 197.962866 163.517464 
L 201.319614 159.211218 
L 205.228044 154.646105 
L 208.120549 151.54785 
L 211.311833 148.372319 
L 214.897566 145.077717 
L 218.981264 141.639433 
L 223.693102 138.037644 
L 229.062489 134.356906 
L 235.27763 130.589562 
L 238.735147 128.694133 
L 242.463997 126.793507 
L 246.717473 124.783386 
L 251.368536 122.766247 
L 256.659111 120.674307 
L 262.749957 118.500697 
L 269.654013 116.308181 
L 277.828075 114.031224 
L 287.586603 111.697322 
L 299.938073 109.228314 
L 316.247378 106.612918 
L 339.728542 103.779138 
L 379.814653 100.538054 
L 478.234711 96.4224 
L 478.234711 96.4224 
" clip-path="url(#p08dc38e62d)" style="fill: none; stroke: #000000; stroke-width: 1.5; stroke-linecap: square"/>
   </g>
   <g id="patch_3">
    <path d="M 129.6 553.6512 
L 129.6 74.6496 
" style="fill: none; stroke: #000000; stroke-width: 0.8; stroke-linejoin: miter; stroke-linecap: square"/>
   </g>
   <g id="patch_4">
    <path d="M 494.836364 553.6512 
L 494.836364 74.6496 
" style="fill: none; stroke: #000000; stroke-width: 0.8; stroke-linejoin: miter; stroke-linecap: square"/>
   </g>
   <g id="patch_5">
    <path d="M 129.6 553.6512 
L 494.836364 553.6512 
" style="fill: none; stroke: #000000; stroke-width: 0.8; stroke-linejoin: miter; stroke-linecap: square"/>
   </g>
   <g id="patch_6">
    <path d="M 129.6 74.6496 
L 494.836364 74.6496 
" style="fill: none; stroke: #000000; stroke-width: 0.8; stroke-linejoin: miter; stroke-linecap: square"/>
   </g>
   <g id="text_15">
    <!-- ad -->
    <g transform="translate(304.732244 68.6496)scale(0.12 -0.12)">
     <defs>
      <path id="DejaVuSans-64" d="M 2906 2969 
L 2906 4863 
L 3481 4863 
L 3481 0 
L 2906 0 
L 2906 525 
Q 2725 213 2448 61 
Q 2172 -91 1784 -91 
Q 1150 -91 751 415 
Q 353 922 353 1747 
Q 353 2572 751 3078 
Q 1150 3584 1784 3584 
Q 2172 3584 2448 3432 
Q 2725 3281 2906 2969 
z
M 947 1747 
Q 947 1113 1208 752 
Q 1469 391 1925 391 
Q 2381 391 2643 752 
Q 2906 1113 2906 1747 
Q 2906 2381 2643 2742 
Q 2381 3103 1925 3103 
Q 1469 3103 1208 2742 
Q 947 2381 947 1747 
z
" transform="scale(0.015625)"/>
     </defs>
     <use xlink:href="#DejaVuSans-61"/>
     <use xlink:href="#DejaVuSans-64" x="61.279297"/>
    </g>
   </g>
   <g id="legend_1">
    <g id="patch_7">
     <path d="M 136.6 170.71835 
L 190.925 170.71835 
Q 192.925 170.71835 192.925 168.71835 
L 192.925 81.6496 
Q 192.925 79.6496 190.925 79.6496 
L 136.6 79.6496 
Q 134.6 79.6496 134.6 81.6496 
L 134.6 168.71835 
Q 134.6 170.71835 136.6 170.71835 
z
" style="fill: #ffffff; opacity: 0.8; stroke: #cccccc; stroke-linejoin: miter"/>
    </g>
    <g id="line2d_31">
     <path d="M 138.6 87.748038 
L 148.6 87.748038 
L 158.6 87.748038 
" style="fill: none; stroke: #4169e1; stroke-width: 1.5; stroke-linecap: square"/>
    </g>
    <g id="text_16">
     <!-- LRU -->
     <g transform="translate(166.6 91.248038)scale(0.1 -0.1)">
      <defs>
       <path id="DejaVuSans-4c" d="M 628 4666 
L 1259 4666 
L 1259 531 
L 3531 531 
L 3531 0 
L 628 0 
L 628 4666 
z
" transform="scale(0.015625)"/>
       <path id="DejaVuSans-55" d="M 556 4666 
L 1191 4666 
L 1191 1831 
Q 1191 1081 1462 751 
Q 1734 422 2344 422 
Q 2950 422 3222 751 
Q 3494 1081 3494 1831 
L 3494 4666 
L 4128 4666 
L 4128 1753 
Q 4128 841 3676 375 
Q 3225 -91 2344 -91 
Q 1459 -91 1007 375 
Q 556 841 556 1753 
L 556 4666 
z
" transform="scale(0.015625)"/>
      </defs>
      <use xlink:href="#DejaVuSans-4c"/>
      <use xlink:href="#DejaVuSans-52" x="55.712891"/>
      <use xlink:href="#DejaVuSans-55" x="125.195312"/>
     </g>
    </g>
    <g id="line2d_32">
     <path d="M 138.6 102.426163 
L 148.6 102.426163 
L 158.6 102.426163 
" style="fill: none; stroke: #d2691e; stroke-width: 1.5; stroke-linecap: square"/>
    </g>
    <g id="text_17">
     <!-- LFU -->
     <g transform="translate(166.6 105.926163)scale(0.1 -0.1)">
      <defs>
       <path id="DejaVuSans-46" d="M 628 4666 
L 3309 4666 
L 3309 4134 
L 1259 4134 
L 1259 2759 
L 3109 2759 
L 3109 2228 
L 1259 2228 
L 1259 0 
L 628 0 
L 628 4666 
z
" transform="scale(0.015625)"/>
      </defs>
      <use xlink:href="#DejaVuSans-4c"/>
      <use xlink:href="#DejaVuSans-46" x="55.712891"/>
      <use xlink:href="#DejaVuSans-55" x="113.232422"/>
     </g>
    </g>
    <g id="line2d_33">
     <path d="M 138.6 117.104287 
L 148.6 117.104287 
L 158.6 117.104287 
" style="fill: none; stroke: #6b8e23; stroke-width: 1.5; stroke-linecap: square"/>
    </g>
    <g id="text_18">
     <!-- ARF -->
     <g transform="translate(166.6 120.604287)scale(0.1 -0.1)">
      <defs>
       <path id="DejaVuSans-41" d="M 2188 4044 
L 1331 1722 
L 3047 1722 
L 2188 4044 
z
M 1831 4666 
L 2547 4666 
L 4325 0 
L 3669 0 
L 3244 1197 
L 1141 1197 
L 716 0 
L 50 0 
L 1831 4666 
z
" transform="scale(0.015625)"/>
      </defs>
      <use xlink:href="#DejaVuSans-41"/>
      <use xlink:href="#DejaVuSans-52" x="68.408203"/>
      <use xlink:href="#DejaVuSans-46" x="137.890625"/>
     </g>
    </g>
    <g id="line2d_34">
     <path d="M 138.6 131.782413 
L 148.6 131.782413 
L 158.6 131.782413 
" style="fill: none; stroke: #00bfff; stroke-width: 1.5; stroke-linecap: square"/>
    </g>
    <g id="text_19">
     <!-- FIFO -->
     <g transform="translate(166.6 135.282413)scale(0.1 -0.1)">
      <defs>
       <path id="DejaVuSans-49" d="M 628 4666 
L 1259 4666 
L 1259 0 
L 628 0 
L 628 4666 
z
" transform="scale(0.015625)"/>
       <path id="DejaVuSans-4f" d="M 2522 4238 
Q 1834 4238 1429 3725 
Q 1025 3213 1025 2328 
Q 1025 1447 1429 934 
Q 1834 422 2522 422 
Q 3209 422 3611 934 
Q 4013 1447 4013 2328 
Q 4013 3213 3611 3725 
Q 3209 4238 2522 4238 
z
M 2522 4750 
Q 3503 4750 4090 4092 
Q 4678 3434 4678 2328 
Q 4678 1225 4090 567 
Q 3503 -91 2522 -91 
Q 1538 -91 948 565 
Q 359 1222 359 2328 
Q 359 3434 948 4092 
Q 1538 4750 2522 4750 
z
" transform="scale(0.015625)"/>
      </defs>
      <use xlink:href="#DejaVuSans-46"/>
      <use xlink:href="#DejaVuSans-49" x="57.519531"/>
      <use xlink:href="#DejaVuSans-46" x="87.011719"/>
      <use xlink:href="#DejaVuSans-4f" x="144.53125"/>
     </g>
    </g>
    <g id="line2d_35">
     <path d="M 138.6 146.460537 
L 148.6 146.460537 
L 158.6 146.460537 
" style="fill: none; stroke: #c0c0c0; stroke-width: 1.5; stroke-linecap: square"/>
    </g>
    <g id="text_20">
     <!-- ARC -->
     <g transform="translate(166.6 149.960537)scale(0.1 -0.1)">
      <use xlink:href="#DejaVuSans-41"/>
      <use xlink:href="#DejaVuSans-52" x="68.408203"/>
      <use xlink:href="#DejaVuSans-43" x="132.890625"/>
     </g>
    </g>
    <g id="line2d_36">
     <path d="M 138.6 161.138663 
L 148.6 161.138663 
L 158.6 161.138663 
" style="fill: none; stroke: #000000; stroke-width: 1.5; stroke-linecap: square"/>
    </g>
    <g id="text_21">
     <!-- dist -->
     <g transform="translate(166.6 164.638663)scale(0.1 -0.1)">
      <defs>
       <path id="DejaVuSans-73" d="M 2834 3397 
L 2834 2853 
Q 2591 2978 2328 3040 
Q 2066 3103 1784 3103 
Q 1356 3103 1142 2972 
Q 928 2841 928 2578 
Q 928 2378 1081 2264 
Q 1234 2150 1697 2047 
L 1894 2003 
Q 2506 1872 2764 1633 
Q 3022 1394 3022 966 
Q 3022 478 2636 193 
Q 2250 -91 1575 -91 
Q 1294 -91 989 -36 
Q 684 19 347 128 
L 347 722 
Q 666 556 975 473 
Q 1284 391 1588 391 
Q 1994 391 2212 530 
Q 2431 669 2431 922 
Q 2431 1156 2273 1281 
Q 2116 1406 1581 1522 
L 1381 1569 
Q 847 1681 609 1914 
Q 372 2147 372 2553 
Q 372 3047 722 3315 
Q 1072 3584 1716 3584 
Q 2034 3584 2315 3537 
Q 2597 3491 2834 3397 
z
" transform="scale(0.015625)"/>
      </defs>
      <use xlink:href="#DejaVuSans-64"/>
      <use xlink:href="#DejaVuSans-69" x="63.476562"/>
      <use xlink:href="#DejaVuSans-73" x="91.259766"/>
      <use xlink:href="#DejaVuSans-74" x="143.359375"/>
     </g>
    </g>
   </g>
  </g>
  <g id="axes_2">
   <g id="patch_8">
    <path d="M 567.883636 553.6512 
L 933.12 553.6512 
L 933.12 74.6496 
L 567.883636 74.6496 
z
" style="fill: #ffffff"/>
   </g>
   <g id="matplotlib.axis_3">
    <g id="xtick_7">
     <g id="line2d_37">
      <path d="M 584.485289 553.6512 
L 584.485289 74.6496 
" clip-path="url(#p40d396cf0f)" style="fill: none; stroke: #b0b0b0; stroke-width: 0.8; stroke-linecap: square"/>
     </g>
     <g id="line2d_38">
      <g>
       <use xlink:href="#m3d9f576bd8" x="584.485289" y="553.6512" style="stroke: #000000; stroke-width: 0.8"/>
      </g>
     </g>
     <g id="text_22">
      <!-- 0 -->
      <g transform="translate(581.304039 568.249638)scale(0.1 -0.1)">
       <use xlink:href="#DejaVuSans-30"/>
      </g>
     </g>
    </g>
    <g id="xtick_8">
     <g id="line2d_39">
      <path d="M 650.891901 553.6512 
L 650.891901 74.6496 
" clip-path="url(#p40d396cf0f)" style="fill: none; stroke: #b0b0b0; stroke-width: 0.8; stroke-linecap: square"/>
     </g>
     <g id="line2d_40">
      <g>
       <use xlink:href="#m3d9f576bd8" x="650.891901" y="553.6512" style="stroke: #000000; stroke-width: 0.8"/>
      </g>
     </g>
     <g id="text_23">
      <!-- 20 -->
      <g transform="translate(644.529401 568.249638)scale(0.1 -0.1)">
       <use xlink:href="#DejaVuSans-32"/>
       <use xlink:href="#DejaVuSans-30" x="63.623047"/>
      </g>
     </g>
    </g>
    <g id="xtick_9">
     <g id="line2d_41">
      <path d="M 717.298512 553.6512 
L 717.298512 74.6496 
" clip-path="url(#p40d396cf0f)" style="fill: none; stroke: #b0b0b0; stroke-width: 0.8; stroke-linecap: square"/>
     </g>
     <g id="line2d_42">
      <g>
       <use xlink:href="#m3d9f576bd8" x="717.298512" y="553.6512" style="stroke: #000000; stroke-width: 0.8"/>
      </g>
     </g>
     <g id="text_24">
      <!-- 40 -->
      <g transform="translate(710.936012 568.249638)scale(0.1 -0.1)">
       <use xlink:href="#DejaVuSans-34"/>
       <use xlink:href="#DejaVuSans-30" x="63.623047"/>
      </g>
     </g>
    </g>
    <g id="xtick_10">
     <g id="line2d_43">
      <path d="M 783.705124 553.6512 
L 783.705124 74.6496 
" clip-path="url(#p40d396cf0f)" style="fill: none; stroke: #b0b0b0; stroke-width: 0.8; stroke-linecap: square"/>
     </g>
     <g id="line2d_44">
      <g>
       <use xlink:href="#m3d9f576bd8" x="783.705124" y="553.6512" style="stroke: #000000; stroke-width: 0.8"/>
      </g>
     </g>
     <g id="text_25">
      <!-- 60 -->
      <g transform="translate(777.342624 568.249638)scale(0.1 -0.1)">
       <use xlink:href="#DejaVuSans-36"/>
       <use xlink:href="#DejaVuSans-30" x="63.623047"/>
      </g>
     </g>
    </g>
    <g id="xtick_11">
     <g id="line2d_45">
      <path d="M 850.111736 553.6512 
L 850.111736 74.6496 
" clip-path="url(#p40d396cf0f)" style="fill: none; stroke: #b0b0b0; stroke-width: 0.8; stroke-linecap: square"/>
     </g>
     <g id="line2d_46">
      <g>
       <use xlink:href="#m3d9f576bd8" x="850.111736" y="553.6512" style="stroke: #000000; stroke-width: 0.8"/>
      </g>
     </g>
     <g id="text_26">
      <!-- 80 -->
      <g transform="translate(843.749236 568.249638)scale(0.1 -0.1)">
       <use xlink:href="#DejaVuSans-38"/>
       <use xlink:href="#DejaVuSans-30" x="63.623047"/>
      </g>
     </g>
    </g>
    <g id="xtick_12">
     <g id="line2d_47">
      <path d="M 916.518347 553.6512 
L 916.518347 74.6496 
" clip-path="url(#p40d396cf0f)" style="fill: none; stroke: #b0b0b0; stroke-width: 0.8; stroke-linecap: square"/>
     </g>
     <g id="line2d_48">
      <g>
       <use xlink:href="#m3d9f576bd8" x="916.518347" y="553.6512" style="stroke: #000000; stroke-width: 0.8"/>
      </g>
     </g>
     <g id="text_27">
      <!-- 100 -->
      <g transform="translate(906.974597 568.249638)scale(0.1 -0.1)">
       <use xlink:href="#DejaVuSans-31"/>
       <use xlink:href="#DejaVuSans-30" x="63.623047"/>
       <use xlink:href="#DejaVuSans-30" x="127.246094"/>
      </g>
     </g>
    </g>
    <g id="text_28">
     <!-- Cache Size(%) -->
     <g transform="translate(714.446349 581.927763)scale(0.1 -0.1)">
      <use xlink:href="#DejaVuSans-43"/>
      <use xlink:href="#DejaVuSans-61" x="69.824219"/>
      <use xlink:href="#DejaVuSans-63" x="131.103516"/>
      <use xlink:href="#DejaVuSans-68" x="186.083984"/>
      <use xlink:href="#DejaVuSans-65" x="249.462891"/>
      <use xlink:href="#DejaVuSans-20" x="310.986328"/>
      <use xlink:href="#DejaVuSans-53" x="342.773438"/>
      <use xlink:href="#DejaVuSans-69" x="406.25"/>
      <use xlink:href="#DejaVuSans-7a" x="434.033203"/>
      <use xlink:href="#DejaVuSans-65" x="486.523438"/>
      <use xlink:href="#DejaVuSans-28" x="548.046875"/>
      <use xlink:href="#DejaVuSans-25" x="587.060547"/>
      <use xlink:href="#DejaVuSans-29" x="682.080078"/>
     </g>
    </g>
   </g>
   <g id="matplotlib.axis_4">
    <g id="ytick_7">
     <g id="line2d_49">
      <path d="M 567.883636 531.8784 
L 933.12 531.8784 
" clip-path="url(#p40d396cf0f)" style="fill: none; stroke: #b0b0b0; stroke-width: 0.8; stroke-linecap: square"/>
     </g>
     <g id="line2d_50">
      <g>
       <use xlink:href="#m24eede1ba6" x="567.883636" y="531.8784" style="stroke: #000000; stroke-width: 0.8"/>
      </g>
     </g>
     <g id="text_29">
      <!-- 0 -->
      <g transform="translate(554.521136 535.677619)scale(0.1 -0.1)">
       <use xlink:href="#DejaVuSans-30"/>
      </g>
     </g>
    </g>
    <g id="ytick_8">
     <g id="line2d_51">
      <path d="M 567.883636 444.7872 
L 933.12 444.7872 
" clip-path="url(#p40d396cf0f)" style="fill: none; stroke: #b0b0b0; stroke-width: 0.8; stroke-linecap: square"/>
     </g>
     <g id="line2d_52">
      <g>
       <use xlink:href="#m24eede1ba6" x="567.883636" y="444.7872" style="stroke: #000000; stroke-width: 0.8"/>
      </g>
     </g>
     <g id="text_30">
      <!-- 20 -->
      <g transform="translate(548.158636 448.586419)scale(0.1 -0.1)">
       <use xlink:href="#DejaVuSans-32"/>
       <use xlink:href="#DejaVuSans-30" x="63.623047"/>
      </g>
     </g>
    </g>
    <g id="ytick_9">
     <g id="line2d_53">
      <path d="M 567.883636 357.696 
L 933.12 357.696 
" clip-path="url(#p40d396cf0f)" style="fill: none; stroke: #b0b0b0; stroke-width: 0.8; stroke-linecap: square"/>
     </g>
     <g id="line2d_54">
      <g>
       <use xlink:href="#m24eede1ba6" x="567.883636" y="357.696" style="stroke: #000000; stroke-width: 0.8"/>
      </g>
     </g>
     <g id="text_31">
      <!-- 40 -->
      <g transform="translate(548.158636 361.495219)scale(0.1 -0.1)">
       <use xlink:href="#DejaVuSans-34"/>
       <use xlink:href="#DejaVuSans-30" x="63.623047"/>
      </g>
     </g>
    </g>
    <g id="ytick_10">
     <g id="line2d_55">
      <path d="M 567.883636 270.6048 
L 933.12 270.6048 
" clip-path="url(#p40d396cf0f)" style="fill: none; stroke: #b0b0b0; stroke-width: 0.8; stroke-linecap: square"/>
     </g>
     <g id="line2d_56">
      <g>
       <use xlink:href="#m24eede1ba6" x="567.883636" y="270.6048" style="stroke: #000000; stroke-width: 0.8"/>
      </g>
     </g>
     <g id="text_32">
      <!-- 60 -->
      <g transform="translate(548.158636 274.404019)scale(0.1 -0.1)">
       <use xlink:href="#DejaVuSans-36"/>
       <use xlink:href="#DejaVuSans-30" x="63.623047"/>
      </g>
     </g>
    </g>
    <g id="ytick_11">
     <g id="line2d_57">
      <path d="M 567.883636 183.5136 
L 933.12 183.5136 
" clip-path="url(#p40d396cf0f)" style="fill: none; stroke: #b0b0b0; stroke-width: 0.8; stroke-linecap: square"/>
     </g>
     <g id="line2d_58">
      <g>
       <use xlink:href="#m24eede1ba6" x="567.883636" y="183.5136" style="stroke: #000000; stroke-width: 0.8"/>
      </g>
     </g>
     <g id="text_33">
      <!-- 80 -->
      <g transform="translate(548.158636 187.312819)scale(0.1 -0.1)">
       <use xlink:href="#DejaVuSans-38"/>
       <use xlink:href="#DejaVuSans-30" x="63.623047"/>
      </g>
     </g>
    </g>
    <g id="ytick_12">
     <g id="line2d_59">
      <path d="M 567.883636 96.4224 
L 933.12 96.4224 
" clip-path="url(#p40d396cf0f)" style="fill: none; stroke: #b0b0b0; stroke-width: 0.8; stroke-linecap: square"/>
     </g>
     <g id="line2d_60">
      <g>
       <use xlink:href="#m24eede1ba6" x="567.883636" y="96.4224" style="stroke: #000000; stroke-width: 0.8"/>
      </g>
     </g>
     <g id="text_34">
      <!-- 100 -->
      <g transform="translate(541.796136 100.221619)scale(0.1 -0.1)">
       <use xlink:href="#DejaVuSans-31"/>
       <use xlink:href="#DejaVuSans-30" x="63.623047"/>
       <use xlink:href="#DejaVuSans-30" x="127.246094"/>
      </g>
     </g>
    </g>
    <g id="text_35">
     <!-- Hit Rate[3] (%) -->
     <g transform="translate(535.716449 351.635556)rotate(-90)scale(0.1 -0.1)">
      <use xlink:href="#DejaVuSans-48"/>
      <use xlink:href="#DejaVuSans-69" x="75.195312"/>
      <use xlink:href="#DejaVuSans-74" x="102.978516"/>
      <use xlink:href="#DejaVuSans-20" x="142.1875"/>
      <use xlink:href="#DejaVuSans-52" x="173.974609"/>
      <use xlink:href="#DejaVuSans-61" x="241.207031"/>
      <use xlink:href="#DejaVuSans-74" x="302.486328"/>
      <use xlink:href="#DejaVuSans-65" x="341.695312"/>
      <use xlink:href="#DejaVuSans-5b" x="403.21875"/>
      <use xlink:href="#DejaVuSans-33" x="442.232422"/>
      <use xlink:href="#DejaVuSans-5d" x="505.855469"/>
      <use xlink:href="#DejaVuSans-20" x="544.869141"/>
      <use xlink:href="#DejaVuSans-28" x="576.65625"/>
      <use xlink:href="#DejaVuSans-25" x="615.669922"/>
      <use xlink:href="#DejaVuSans-29" x="710.689453"/>
     </g>
    </g>
   </g>
   <g id="line2d_61">
    <path d="M 584.817322 528.102169 
L 585.481388 520.983813 
L 586.477488 511.162626 
L 587.80562 499.429699 
L 591.12595 474.636838 
L 594.446281 454.291898 
L 597.766612 436.883674 
L 601.086942 421.637488 
L 607.727603 395.68344 
L 617.688595 364.128121 
L 634.290248 323.215723 
L 650.891901 291.176177 
L 684.095207 242.546193 
L 717.298512 206.626734 
L 750.501818 178.765823 
L 783.705124 156.596758 
L 816.90843 138.868474 
L 850.111736 120.583241 
L 883.315041 115.142653 
L 899.916694 115.142653 
L 916.518347 96.4224 
" clip-path="url(#p40d396cf0f)" style="fill: none; stroke: #4169e1; stroke-width: 1.5; stroke-linecap: square"/>
   </g>
   <g id="line2d_62">
    <path d="M 584.817322 519.966501 
L 585.481388 500.658905 
L 586.477488 478.11526 
L 587.80562 455.233789 
L 591.12595 416.453384 
L 594.446281 391.02798 
L 597.766612 371.555258 
L 601.086942 355.276606 
L 607.727603 328.932825 
L 617.688595 297.736322 
L 634.290248 258.390695 
L 650.891901 228.271074 
L 684.095207 185.34208 
L 717.298512 157.1045 
L 750.501818 137.693613 
L 783.705124 123.951057 
L 816.90843 114.087108 
L 850.111736 106.923857 
L 883.315041 101.217206 
L 899.916694 98.323165 
L 916.518347 96.4224 
" clip-path="url(#p40d396cf0f)" style="fill: none; stroke: #d2691e; stroke-width: 1.5; stroke-linecap: square"/>
   </g>
   <g id="line2d_63">
    <path d="M 584.817322 514.653938 
L 585.481388 491.041336 
L 586.477488 465.140413 
L 587.80562 440.21317 
L 591.12595 401.382688 
L 594.446281 376.957961 
L 597.766612 358.088346 
L 601.086942 342.391899 
L 607.727603 316.703479 
L 617.688595 286.211978 
L 634.290248 248.307276 
L 650.891901 219.845 
L 684.095207 179.914992 
L 717.298512 153.05084 
L 750.501818 134.995528 
L 783.705124 123.133706 
L 816.90843 115.194037 
L 850.111736 108.327767 
L 883.315041 102.183483 
L 899.916694 98.715076 
L 916.518347 96.4224 
" clip-path="url(#p40d396cf0f)" style="fill: none; stroke: #6b8e23; stroke-width: 1.5; stroke-linecap: square"/>
   </g>
   <g id="line2d_64">
    <path d="M 584.817322 528.102169 
L 585.481388 520.983813 
L 586.477488 511.1628 
L 587.80562 499.430091 
L 591.12595 474.639451 
L 594.446281 454.299301 
L 597.766612 436.896737 
L 601.086942 421.657955 
L 607.727603 395.721324 
L 617.688595 364.196487 
L 634.290248 323.342005 
L 650.891901 291.38955 
L 684.095207 242.980778 
L 717.298512 207.347849 
L 750.501818 179.823981 
L 783.705124 157.932737 
L 816.90843 140.190953 
L 850.111736 119.842095 
L 883.315041 115.592479 
L 899.916694 115.586819 
L 916.518347 96.4224 
" clip-path="url(#p40d396cf0f)" style="fill: none; stroke: #00bfff; stroke-width: 1.5; stroke-linecap: square"/>
   </g>
   <g id="line2d_65">
    <path d="M 584.817322 520.448246 
L 585.481388 503.406806 
L 586.477488 484.326169 
L 587.80562 465.27584 
L 591.12595 433.00768 
L 594.446281 410.909594 
L 597.766612 393.743919 
L 601.086942 379.472719 
L 607.727603 356.278591 
L 617.688595 329.335622 
L 634.290248 295.850797 
L 650.891901 270.991485 
L 684.095207 236.09317 
L 717.298512 195.77517 
L 750.501818 178.737083 
L 783.705124 156.525779 
L 816.90843 138.720854 
L 850.111736 120.311081 
L 883.315041 115.142653 
L 899.916694 115.142653 
L 916.518347 96.4224 
" clip-path="url(#p40d396cf0f)" style="fill: none; stroke: #c0c0c0; stroke-width: 1.5; stroke-linecap: square"/>
   </g>
   <g id="line2d_66">
    <path d="M 584.485289 531.8784 
L 584.659779 518.421777 
L 585.160563 495.353414 
L 585.883531 471.998179 
L 586.735912 451.478216 
L 587.704329 433.451512 
L 588.76726 417.784846 
L 589.891845 404.36059 
L 591.145551 391.996888 
L 592.559498 380.249905 
L 594.158112 368.851166 
L 595.981817 357.465594 
L 597.903818 346.85659 
L 599.954942 336.694749 
L 602.242789 326.397343 
L 604.796733 315.942711 
L 607.449554 306.068759 
L 610.298676 296.35869 
L 613.114354 287.531109 
L 615.751181 279.859183 
L 618.812016 271.562864 
L 622.394285 262.581009 
L 626.798107 252.438352 
L 631.346756 242.704902 
L 635.500187 234.52603 
L 640.28905 225.850674 
L 645.856426 216.65219 
L 649.721077 210.758818 
L 653.81838 204.94974 
L 659.833031 196.997992 
L 664.162986 191.804223 
L 669.142043 186.08121 
L 673.853839 181.19658 
L 680.788632 174.31706 
L 685.949448 169.811155 
L 695.466393 161.908072 
L 698.399561 159.734379 
L 701.647972 157.491199 
L 715.287231 148.397422 
L 719.146065 146.134943 
L 723.596709 143.75318 
L 744.743957 133.147078 
L 749.716616 131.026051 
L 755.270615 128.953525 
L 793.145294 116.258369 
L 800.114693 114.409097 
L 808.318896 112.672747 
L 895.014849 98.121448 
L 905.629624 97.036315 
L 916.518347 96.4224 
L 916.518347 96.4224 
" clip-path="url(#p40d396cf0f)" style="fill: none; stroke: #000000; stroke-width: 1.5; stroke-linecap: square"/>
   </g>
   <g id="patch_9">
    <path d="M 567.883636 553.6512 
L 567.883636 74.6496 
" style="fill: none; stroke: #000000; stroke-width: 0.8; stroke-linejoin: miter; stroke-linecap: square"/>
   </g>
   <g id="patch_10">
    <path d="M 933.12 553.6512 
L 933.12 74.6496 
" style="fill: none; stroke: #000000; stroke-width: 0.8; stroke-linejoin: miter; stroke-linecap: square"/>
   </g>
   <g id="patch_11">
    <path d="M 567.883636 553.6512 
L 933.12 553.6512 
" style="fill: none; stroke: #000000; stroke-width: 0.8; stroke-linejoin: miter; stroke-linecap: square"/>
   </g>
   <g id="patch_12">
    <path d="M 567.883636 74.6496 
L 933.12 74.6496 
" style="fill: none; stroke: #000000; stroke-width: 0.8; stroke-linejoin: miter; stroke-linecap: square"/>
   </g>
   <g id="text_36">
    <!-- user -->
    <g transform="translate(737.415256 68.6496)scale(0.12 -0.12)">
     <defs>
      <path id="DejaVuSans-75" d="M 544 1381 
L 544 3500 
L 1119 3500 
L 1119 1403 
Q 1119 906 1312 657 
Q 1506 409 1894 409 
Q 2359 409 2629 706 
Q 2900 1003 2900 1516 
L 2900 3500 
L 3475 3500 
L 3475 0 
L 2900 0 
L 2900 538 
Q 2691 219 2414 64 
Q 2138 -91 1772 -91 
Q 1169 -91 856 284 
Q 544 659 544 1381 
z
M 1991 3584 
L 1991 3584 
z
" transform="scale(0.015625)"/>
      <path id="DejaVuSans-72" d="M 2631 2963 
Q 2534 3019 2420 3045 
Q 2306 3072 2169 3072 
Q 1681 3072 1420 2755 
Q 1159 2438 1159 1844 
L 1159 0 
L 581 0 
L 581 3500 
L 1159 3500 
L 1159 2956 
Q 1341 3275 1631 3429 
Q 1922 3584 2338 3584 
Q 2397 3584 2469 3576 
Q 2541 3569 2628 3553 
L 2631 2963 
z
" transform="scale(0.015625)"/>
     </defs>
     <use xlink:href="#DejaVuSans-75"/>
     <use xlink:href="#DejaVuSans-73" x="63.378906"/>
     <use xlink:href="#DejaVuSans-65" x="115.478516"/>
     <use xlink:href="#DejaVuSans-72" x="177.001953"/>
    </g>
   </g>
   <g id="legend_2">
    <g id="patch_13">
     <path d="M 574.883636 170.71835 
L 629.208636 170.71835 
Q 631.208636 170.71835 631.208636 168.71835 
L 631.208636 81.6496 
Q 631.208636 79.6496 629.208636 79.6496 
L 574.883636 79.6496 
Q 572.883636 79.6496 572.883636 81.6496 
L 572.883636 168.71835 
Q 572.883636 170.71835 574.883636 170.71835 
z
" style="fill: #ffffff; opacity: 0.8; stroke: #cccccc; stroke-linejoin: miter"/>
    </g>
    <g id="line2d_67">
     <path d="M 576.883636 87.748038 
L 586.883636 87.748038 
L 596.883636 87.748038 
" style="fill: none; stroke: #4169e1; stroke-width: 1.5; stroke-linecap: square"/>
    </g>
    <g id="text_37">
     <!-- LRU -->
     <g transform="translate(604.883636 91.248038)scale(0.1 -0.1)">
      <use xlink:href="#DejaVuSans-4c"/>
      <use xlink:href="#DejaVuSans-52" x="55.712891"/>
      <use xlink:href="#DejaVuSans-55" x="125.195312"/>
     </g>
    </g>
    <g id="line2d_68">
     <path d="M 576.883636 102.426163 
L 586.883636 102.426163 
L 596.883636 102.426163 
" style="fill: none; stroke: #d2691e; stroke-width: 1.5; stroke-linecap: square"/>
    </g>
    <g id="text_38">
     <!-- LFU -->
     <g transform="translate(604.883636 105.926163)scale(0.1 -0.1)">
      <use xlink:href="#DejaVuSans-4c"/>
      <use xlink:href="#DejaVuSans-46" x="55.712891"/>
      <use xlink:href="#DejaVuSans-55" x="113.232422"/>
     </g>
    </g>
    <g id="line2d_69">
     <path d="M 576.883636 117.104287 
L 586.883636 117.104287 
L 596.883636 117.104287 
" style="fill: none; stroke: #6b8e23; stroke-width: 1.5; stroke-linecap: square"/>
    </g>
    <g id="text_39">
     <!-- ARF -->
     <g transform="translate(604.883636 120.604287)scale(0.1 -0.1)">
      <use xlink:href="#DejaVuSans-41"/>
      <use xlink:href="#DejaVuSans-52" x="68.408203"/>
      <use xlink:href="#DejaVuSans-46" x="137.890625"/>
     </g>
    </g>
    <g id="line2d_70">
     <path d="M 576.883636 131.782413 
L 586.883636 131.782413 
L 596.883636 131.782413 
" style="fill: none; stroke: #00bfff; stroke-width: 1.5; stroke-linecap: square"/>
    </g>
    <g id="text_40">
     <!-- FIFO -->
     <g transform="translate(604.883636 135.282413)scale(0.1 -0.1)">
      <use xlink:href="#DejaVuSans-46"/>
      <use xlink:href="#DejaVuSans-49" x="57.519531"/>
      <use xlink:href="#DejaVuSans-46" x="87.011719"/>
      <use xlink:href="#DejaVuSans-4f" x="144.53125"/>
     </g>
    </g>
    <g id="line2d_71">
     <path d="M 576.883636 146.460537 
L 586.883636 146.460537 
L 596.883636 146.460537 
" style="fill: none; stroke: #c0c0c0; stroke-width: 1.5; stroke-linecap: square"/>
    </g>
    <g id="text_41">
     <!-- ARC -->
     <g transform="translate(604.883636 149.960537)scale(0.1 -0.1)">
      <use xlink:href="#DejaVuSans-41"/>
      <use xlink:href="#DejaVuSans-52" x="68.408203"/>
      <use xlink:href="#DejaVuSans-43" x="132.890625"/>
     </g>
    </g>
    <g id="line2d_72">
     <path d="M 576.883636 161.138663 
L 586.883636 161.138663 
L 596.883636 161.138663 
" style="fill: none; stroke: #000000; stroke-width: 1.5; stroke-linecap: square"/>
    </g>
    <g id="text_42">
     <!-- dist -->
     <g transform="translate(604.883636 164.638663)scale(0.1 -0.1)">
      <use xlink:href="#DejaVuSans-64"/>
      <use xlink:href="#DejaVuSans-69" x="63.476562"/>
      <use xlink:href="#DejaVuSans-73" x="91.259766"/>
      <use xlink:href="#DejaVuSans-74" x="143.359375"/>
     </g>
    </g>
   </g>
  </g>
 </g>
 <defs>
  <clipPath id="p08dc38e62d">
   <rect x="129.6" y="74.6496" width="365.236364" height="479.0016"/>
  </clipPath>
  <clipPath id="p40d396cf0f">
   <rect x="567.883636" y="74.6496" width="365.236364" height="479.0016"/>
  </clipPath>
 </defs>
</svg>
