<?xml version="1.0" encoding="utf-8" standalone="no"?>
<!DOCTYPE svg PUBLIC "-//W3C//DTD SVG 1.1//EN"
  "http://www.w3.org/Graphics/SVG/1.1/DTD/svg11.dtd">
<svg xmlns:xlink="http://www.w3.org/1999/xlink" width="1036.8pt" height="622.08pt" viewBox="0 0 1036.8 622.08" xmlns="http://www.w3.org/2000/svg" version="1.1">
 <metadata>
  <rdf:RDF xmlns:dc="http://purl.org/dc/elements/1.1/" xmlns:cc="http://creativecommons.org/ns#" xmlns:rdf="http://www.w3.org/1999/02/22-rdf-syntax-ns#">
   <cc:Work>
    <dc:type rdf:resource="http://purl.org/dc/dcmitype/StillImage"/>
    <dc:date>2022-05-09T01:00:34.051334</dc:date>
    <dc:format>image/svg+xml</dc:format>
    <dc:creator>
     <cc:Agent>
      <dc:title>Matplotlib v3.5.1, https://matplotlib.org/</dc:title>
     </cc:Agent>
    </dc:creator>
   </cc:Work>
  </rdf:RDF>
 </metadata>
 <defs>
  <style type="text/css">*{stroke-linejoin: round; stroke-linecap: butt}</style>
 </defs>
 <g id="figure_1">
  <g id="patch_1">
   <path d="M 0 622.08 
L 1036.8 622.08 
L 1036.8 0 
L 0 0 
z
" style="fill: #ffffff"/>
  </g>
  <g id="axes_1">
   <g id="patch_2">
    <path d="M 129.6 553.6512 
L 494.836364 553.6512 
L 494.836364 74.6496 
L 129.6 74.6496 
z
" style="fill: #ffffff"/>
   </g>
   <g id="matplotlib.axis_1">
    <g id="xtick_1">
     <g id="line2d_1">
      <path d="M 146.201653 553.6512 
L 146.201653 74.6496 
" clip-path="url(#pa22c161ec1)" style="fill: none; stroke: #b0b0b0; stroke-width: 0.8; stroke-linecap: square"/>
     </g>
     <g id="line2d_2">
      <defs>
       <path id="m1b20193511" d="M 0 0 
L 0 3.5 
" style="stroke: #000000; stroke-width: 0.8"/>
      </defs>
      <g>
       <use xlink:href="#m1b20193511" x="146.201653" y="553.6512" style="stroke: #000000; stroke-width: 0.8"/>
      </g>
     </g>
     <g id="text_1">
      <!-- 0 -->
      <g transform="translate(143.020403 568.249638)scale(0.1 -0.1)">
       <defs>
        <path id="DejaVuSans-30" d="M 2034 4250 
Q 1547 4250 1301 3770 
Q 1056 3291 1056 2328 
Q 1056 1369 1301 889 
Q 1547 409 2034 409 
Q 2525 409 2770 889 
Q 3016 1369 3016 2328 
Q 3016 3291 2770 3770 
Q 2525 4250 2034 4250 
z
M 2034 4750 
Q 2819 4750 3233 4129 
Q 3647 3509 3647 2328 
Q 3647 1150 3233 529 
Q 2819 -91 2034 -91 
Q 1250 -91 836 529 
Q 422 1150 422 2328 
Q 422 3509 836 4129 
Q 1250 4750 2034 4750 
z
" transform="scale(0.015625)"/>
       </defs>
       <use xlink:href="#DejaVuSans-30"/>
      </g>
     </g>
    </g>
    <g id="xtick_2">
     <g id="line2d_3">
      <path d="M 212.608264 553.6512 
L 212.608264 74.6496 
" clip-path="url(#pa22c161ec1)" style="fill: none; stroke: #b0b0b0; stroke-width: 0.8; stroke-linecap: square"/>
     </g>
     <g id="line2d_4">
      <g>
       <use xlink:href="#m1b20193511" x="212.608264" y="553.6512" style="stroke: #000000; stroke-width: 0.8"/>
      </g>
     </g>
     <g id="text_2">
      <!-- 20 -->
      <g transform="translate(206.245764 568.249638)scale(0.1 -0.1)">
       <defs>
        <path id="DejaVuSans-32" d="M 1228 531 
L 3431 531 
L 3431 0 
L 469 0 
L 469 531 
Q 828 903 1448 1529 
Q 2069 2156 2228 2338 
Q 2531 2678 2651 2914 
Q 2772 3150 2772 3378 
Q 2772 3750 2511 3984 
Q 2250 4219 1831 4219 
Q 1534 4219 1204 4116 
Q 875 4013 500 3803 
L 500 4441 
Q 881 4594 1212 4672 
Q 1544 4750 1819 4750 
Q 2544 4750 2975 4387 
Q 3406 4025 3406 3419 
Q 3406 3131 3298 2873 
Q 3191 2616 2906 2266 
Q 2828 2175 2409 1742 
Q 1991 1309 1228 531 
z
" transform="scale(0.015625)"/>
       </defs>
       <use xlink:href="#DejaVuSans-32"/>
       <use xlink:href="#DejaVuSans-30" x="63.623047"/>
      </g>
     </g>
    </g>
    <g id="xtick_3">
     <g id="line2d_5">
      <path d="M 279.014876 553.6512 
L 279.014876 74.6496 
" clip-path="url(#pa22c161ec1)" style="fill: none; stroke: #b0b0b0; stroke-width: 0.8; stroke-linecap: square"/>
     </g>
     <g id="line2d_6">
      <g>
       <use xlink:href="#m1b20193511" x="279.014876" y="553.6512" style="stroke: #000000; stroke-width: 0.8"/>
      </g>
     </g>
     <g id="text_3">
      <!-- 40 -->
      <g transform="translate(272.652376 568.249638)scale(0.1 -0.1)">
       <defs>
        <path id="DejaVuSans-34" d="M 2419 4116 
L 825 1625 
L 2419 1625 
L 2419 4116 
z
M 2253 4666 
L 3047 4666 
L 3047 1625 
L 3713 1625 
L 3713 1100 
L 3047 1100 
L 3047 0 
L 2419 0 
L 2419 1100 
L 313 1100 
L 313 1709 
L 2253 4666 
z
" transform="scale(0.015625)"/>
       </defs>
       <use xlink:href="#DejaVuSans-34"/>
       <use xlink:href="#DejaVuSans-30" x="63.623047"/>
      </g>
     </g>
    </g>
    <g id="xtick_4">
     <g id="line2d_7">
      <path d="M 345.421488 553.6512 
L 345.421488 74.6496 
" clip-path="url(#pa22c161ec1)" style="fill: none; stroke: #b0b0b0; stroke-width: 0.8; stroke-linecap: square"/>
     </g>
     <g id="line2d_8">
      <g>
       <use xlink:href="#m1b20193511" x="345.421488" y="553.6512" style="stroke: #000000; stroke-width: 0.8"/>
      </g>
     </g>
     <g id="text_4">
      <!-- 60 -->
      <g transform="translate(339.058988 568.249638)scale(0.1 -0.1)">
       <defs>
        <path id="DejaVuSans-36" d="M 2113 2584 
Q 1688 2584 1439 2293 
Q 1191 2003 1191 1497 
Q 1191 994 1439 701 
Q 1688 409 2113 409 
Q 2538 409 2786 701 
Q 3034 994 3034 1497 
Q 3034 2003 2786 2293 
Q 2538 2584 2113 2584 
z
M 3366 4563 
L 3366 3988 
Q 3128 4100 2886 4159 
Q 2644 4219 2406 4219 
Q 1781 4219 1451 3797 
Q 1122 3375 1075 2522 
Q 1259 2794 1537 2939 
Q 1816 3084 2150 3084 
Q 2853 3084 3261 2657 
Q 3669 2231 3669 1497 
Q 3669 778 3244 343 
Q 2819 -91 2113 -91 
Q 1303 -91 875 529 
Q 447 1150 447 2328 
Q 447 3434 972 4092 
Q 1497 4750 2381 4750 
Q 2619 4750 2861 4703 
Q 3103 4656 3366 4563 
z
" transform="scale(0.015625)"/>
       </defs>
       <use xlink:href="#DejaVuSans-36"/>
       <use xlink:href="#DejaVuSans-30" x="63.623047"/>
      </g>
     </g>
    </g>
    <g id="xtick_5">
     <g id="line2d_9">
      <path d="M 411.828099 553.6512 
L 411.828099 74.6496 
" clip-path="url(#pa22c161ec1)" style="fill: none; stroke: #b0b0b0; stroke-width: 0.8; stroke-linecap: square"/>
     </g>
     <g id="line2d_10">
      <g>
       <use xlink:href="#m1b20193511" x="411.828099" y="553.6512" style="stroke: #000000; stroke-width: 0.8"/>
      </g>
     </g>
     <g id="text_5">
      <!-- 80 -->
      <g transform="translate(405.465599 568.249638)scale(0.1 -0.1)">
       <defs>
        <path id="DejaVuSans-38" d="M 2034 2216 
Q 1584 2216 1326 1975 
Q 1069 1734 1069 1313 
Q 1069 891 1326 650 
Q 1584 409 2034 409 
Q 2484 409 2743 651 
Q 3003 894 3003 1313 
Q 3003 1734 2745 1975 
Q 2488 2216 2034 2216 
z
M 1403 2484 
Q 997 2584 770 2862 
Q 544 3141 544 3541 
Q 544 4100 942 4425 
Q 1341 4750 2034 4750 
Q 2731 4750 3128 4425 
Q 3525 4100 3525 3541 
Q 3525 3141 3298 2862 
Q 3072 2584 2669 2484 
Q 3125 2378 3379 2068 
Q 3634 1759 3634 1313 
Q 3634 634 3220 271 
Q 2806 -91 2034 -91 
Q 1263 -91 848 271 
Q 434 634 434 1313 
Q 434 1759 690 2068 
Q 947 2378 1403 2484 
z
M 1172 3481 
Q 1172 3119 1398 2916 
Q 1625 2713 2034 2713 
Q 2441 2713 2670 2916 
Q 2900 3119 2900 3481 
Q 2900 3844 2670 4047 
Q 2441 4250 2034 4250 
Q 1625 4250 1398 4047 
Q 1172 3844 1172 3481 
z
" transform="scale(0.015625)"/>
       </defs>
       <use xlink:href="#DejaVuSans-38"/>
       <use xlink:href="#DejaVuSans-30" x="63.623047"/>
      </g>
     </g>
    </g>
    <g id="xtick_6">
     <g id="line2d_11">
      <path d="M 478.234711 553.6512 
L 478.234711 74.6496 
" clip-path="url(#pa22c161ec1)" style="fill: none; stroke: #b0b0b0; stroke-width: 0.8; stroke-linecap: square"/>
     </g>
     <g id="line2d_12">
      <g>
       <use xlink:href="#m1b20193511" x="478.234711" y="553.6512" style="stroke: #000000; stroke-width: 0.8"/>
      </g>
     </g>
     <g id="text_6">
      <!-- 100 -->
      <g transform="translate(468.690961 568.249638)scale(0.1 -0.1)">
       <defs>
        <path id="DejaVuSans-31" d="M 794 531 
L 1825 531 
L 1825 4091 
L 703 3866 
L 703 4441 
L 1819 4666 
L 2450 4666 
L 2450 531 
L 3481 531 
L 3481 0 
L 794 0 
L 794 531 
z
" transform="scale(0.015625)"/>
       </defs>
       <use xlink:href="#DejaVuSans-31"/>
       <use xlink:href="#DejaVuSans-30" x="63.623047"/>
       <use xlink:href="#DejaVuSans-30" x="127.246094"/>
      </g>
     </g>
    </g>
    <g id="text_7">
     <!-- Cache Size(%) -->
     <g transform="translate(276.162713 581.927763)scale(0.1 -0.1)">
      <defs>
       <path id="DejaVuSans-43" d="M 4122 4306 
L 4122 3641 
Q 3803 3938 3442 4084 
Q 3081 4231 2675 4231 
Q 1875 4231 1450 3742 
Q 1025 3253 1025 2328 
Q 1025 1406 1450 917 
Q 1875 428 2675 428 
Q 3081 428 3442 575 
Q 3803 722 4122 1019 
L 4122 359 
Q 3791 134 3420 21 
Q 3050 -91 2638 -91 
Q 1578 -91 968 557 
Q 359 1206 359 2328 
Q 359 3453 968 4101 
Q 1578 4750 2638 4750 
Q 3056 4750 3426 4639 
Q 3797 4528 4122 4306 
z
" transform="scale(0.015625)"/>
       <path id="DejaVuSans-61" d="M 2194 1759 
Q 1497 1759 1228 1600 
Q 959 1441 959 1056 
Q 959 750 1161 570 
Q 1363 391 1709 391 
Q 2188 391 2477 730 
Q 2766 1069 2766 1631 
L 2766 1759 
L 2194 1759 
z
M 3341 1997 
L 3341 0 
L 2766 0 
L 2766 531 
Q 2569 213 2275 61 
Q 1981 -91 1556 -91 
Q 1019 -91 701 211 
Q 384 513 384 1019 
Q 384 1609 779 1909 
Q 1175 2209 1959 2209 
L 2766 2209 
L 2766 2266 
Q 2766 2663 2505 2880 
Q 2244 3097 1772 3097 
Q 1472 3097 1187 3025 
Q 903 2953 641 2809 
L 641 3341 
Q 956 3463 1253 3523 
Q 1550 3584 1831 3584 
Q 2591 3584 2966 3190 
Q 3341 2797 3341 1997 
z
" transform="scale(0.015625)"/>
       <path id="DejaVuSans-63" d="M 3122 3366 
L 3122 2828 
Q 2878 2963 2633 3030 
Q 2388 3097 2138 3097 
Q 1578 3097 1268 2742 
Q 959 2388 959 1747 
Q 959 1106 1268 751 
Q 1578 397 2138 397 
Q 2388 397 2633 464 
Q 2878 531 3122 666 
L 3122 134 
Q 2881 22 2623 -34 
Q 2366 -91 2075 -91 
Q 1284 -91 818 406 
Q 353 903 353 1747 
Q 353 2603 823 3093 
Q 1294 3584 2113 3584 
Q 2378 3584 2631 3529 
Q 2884 3475 3122 3366 
z
" transform="scale(0.015625)"/>
       <path id="DejaVuSans-68" d="M 3513 2113 
L 3513 0 
L 2938 0 
L 2938 2094 
Q 2938 2591 2744 2837 
Q 2550 3084 2163 3084 
Q 1697 3084 1428 2787 
Q 1159 2491 1159 1978 
L 1159 0 
L 581 0 
L 581 4863 
L 1159 4863 
L 1159 2956 
Q 1366 3272 1645 3428 
Q 1925 3584 2291 3584 
Q 2894 3584 3203 3211 
Q 3513 2838 3513 2113 
z
" transform="scale(0.015625)"/>
       <path id="DejaVuSans-65" d="M 3597 1894 
L 3597 1613 
L 953 1613 
Q 991 1019 1311 708 
Q 1631 397 2203 397 
Q 2534 397 2845 478 
Q 3156 559 3463 722 
L 3463 178 
Q 3153 47 2828 -22 
Q 2503 -91 2169 -91 
Q 1331 -91 842 396 
Q 353 884 353 1716 
Q 353 2575 817 3079 
Q 1281 3584 2069 3584 
Q 2775 3584 3186 3129 
Q 3597 2675 3597 1894 
z
M 3022 2063 
Q 3016 2534 2758 2815 
Q 2500 3097 2075 3097 
Q 1594 3097 1305 2825 
Q 1016 2553 972 2059 
L 3022 2063 
z
" transform="scale(0.015625)"/>
       <path id="DejaVuSans-20" transform="scale(0.015625)"/>
       <path id="DejaVuSans-53" d="M 3425 4513 
L 3425 3897 
Q 3066 4069 2747 4153 
Q 2428 4238 2131 4238 
Q 1616 4238 1336 4038 
Q 1056 3838 1056 3469 
Q 1056 3159 1242 3001 
Q 1428 2844 1947 2747 
L 2328 2669 
Q 3034 2534 3370 2195 
Q 3706 1856 3706 1288 
Q 3706 609 3251 259 
Q 2797 -91 1919 -91 
Q 1588 -91 1214 -16 
Q 841 59 441 206 
L 441 856 
Q 825 641 1194 531 
Q 1563 422 1919 422 
Q 2459 422 2753 634 
Q 3047 847 3047 1241 
Q 3047 1584 2836 1778 
Q 2625 1972 2144 2069 
L 1759 2144 
Q 1053 2284 737 2584 
Q 422 2884 422 3419 
Q 422 4038 858 4394 
Q 1294 4750 2059 4750 
Q 2388 4750 2728 4690 
Q 3069 4631 3425 4513 
z
" transform="scale(0.015625)"/>
       <path id="DejaVuSans-69" d="M 603 3500 
L 1178 3500 
L 1178 0 
L 603 0 
L 603 3500 
z
M 603 4863 
L 1178 4863 
L 1178 4134 
L 603 4134 
L 603 4863 
z
" transform="scale(0.015625)"/>
       <path id="DejaVuSans-7a" d="M 353 3500 
L 3084 3500 
L 3084 2975 
L 922 459 
L 3084 459 
L 3084 0 
L 275 0 
L 275 525 
L 2438 3041 
L 353 3041 
L 353 3500 
z
" transform="scale(0.015625)"/>
       <path id="DejaVuSans-28" d="M 1984 4856 
Q 1566 4138 1362 3434 
Q 1159 2731 1159 2009 
Q 1159 1288 1364 580 
Q 1569 -128 1984 -844 
L 1484 -844 
Q 1016 -109 783 600 
Q 550 1309 550 2009 
Q 550 2706 781 3412 
Q 1013 4119 1484 4856 
L 1984 4856 
z
" transform="scale(0.015625)"/>
       <path id="DejaVuSans-25" d="M 4653 2053 
Q 4381 2053 4226 1822 
Q 4072 1591 4072 1178 
Q 4072 772 4226 539 
Q 4381 306 4653 306 
Q 4919 306 5073 539 
Q 5228 772 5228 1178 
Q 5228 1588 5073 1820 
Q 4919 2053 4653 2053 
z
M 4653 2450 
Q 5147 2450 5437 2106 
Q 5728 1763 5728 1178 
Q 5728 594 5436 251 
Q 5144 -91 4653 -91 
Q 4153 -91 3862 251 
Q 3572 594 3572 1178 
Q 3572 1766 3864 2108 
Q 4156 2450 4653 2450 
z
M 1428 4353 
Q 1159 4353 1004 4120 
Q 850 3888 850 3481 
Q 850 3069 1003 2837 
Q 1156 2606 1428 2606 
Q 1700 2606 1854 2837 
Q 2009 3069 2009 3481 
Q 2009 3884 1853 4118 
Q 1697 4353 1428 4353 
z
M 4250 4750 
L 4750 4750 
L 1831 -91 
L 1331 -91 
L 4250 4750 
z
M 1428 4750 
Q 1922 4750 2215 4408 
Q 2509 4066 2509 3481 
Q 2509 2891 2217 2550 
Q 1925 2209 1428 2209 
Q 931 2209 642 2551 
Q 353 2894 353 3481 
Q 353 4063 643 4406 
Q 934 4750 1428 4750 
z
" transform="scale(0.015625)"/>
       <path id="DejaVuSans-29" d="M 513 4856 
L 1013 4856 
Q 1481 4119 1714 3412 
Q 1947 2706 1947 2009 
Q 1947 1309 1714 600 
Q 1481 -109 1013 -844 
L 513 -844 
Q 928 -128 1133 580 
Q 1338 1288 1338 2009 
Q 1338 2731 1133 3434 
Q 928 4138 513 4856 
z
" transform="scale(0.015625)"/>
      </defs>
      <use xlink:href="#DejaVuSans-43"/>
      <use xlink:href="#DejaVuSans-61" x="69.824219"/>
      <use xlink:href="#DejaVuSans-63" x="131.103516"/>
      <use xlink:href="#DejaVuSans-68" x="186.083984"/>
      <use xlink:href="#DejaVuSans-65" x="249.462891"/>
      <use xlink:href="#DejaVuSans-20" x="310.986328"/>
      <use xlink:href="#DejaVuSans-53" x="342.773438"/>
      <use xlink:href="#DejaVuSans-69" x="406.25"/>
      <use xlink:href="#DejaVuSans-7a" x="434.033203"/>
      <use xlink:href="#DejaVuSans-65" x="486.523438"/>
      <use xlink:href="#DejaVuSans-28" x="548.046875"/>
      <use xlink:href="#DejaVuSans-25" x="587.060547"/>
      <use xlink:href="#DejaVuSans-29" x="682.080078"/>
     </g>
    </g>
   </g>
   <g id="matplotlib.axis_2">
    <g id="ytick_1">
     <g id="line2d_13">
      <path d="M 129.6 531.8784 
L 494.836364 531.8784 
" clip-path="url(#pa22c161ec1)" style="fill: none; stroke: #b0b0b0; stroke-width: 0.8; stroke-linecap: square"/>
     </g>
     <g id="line2d_14">
      <defs>
       <path id="m66ab14b78a" d="M 0 0 
L -3.5 0 
" style="stroke: #000000; stroke-width: 0.8"/>
      </defs>
      <g>
       <use xlink:href="#m66ab14b78a" x="129.6" y="531.8784" style="stroke: #000000; stroke-width: 0.8"/>
      </g>
     </g>
     <g id="text_8">
      <!-- 0 -->
      <g transform="translate(116.2375 535.677619)scale(0.1 -0.1)">
       <use xlink:href="#DejaVuSans-30"/>
      </g>
     </g>
    </g>
    <g id="ytick_2">
     <g id="line2d_15">
      <path d="M 129.6 444.7872 
L 494.836364 444.7872 
" clip-path="url(#pa22c161ec1)" style="fill: none; stroke: #b0b0b0; stroke-width: 0.8; stroke-linecap: square"/>
     </g>
     <g id="line2d_16">
      <g>
       <use xlink:href="#m66ab14b78a" x="129.6" y="444.7872" style="stroke: #000000; stroke-width: 0.8"/>
      </g>
     </g>
     <g id="text_9">
      <!-- 20 -->
      <g transform="translate(109.875 448.586419)scale(0.1 -0.1)">
       <use xlink:href="#DejaVuSans-32"/>
       <use xlink:href="#DejaVuSans-30" x="63.623047"/>
      </g>
     </g>
    </g>
    <g id="ytick_3">
     <g id="line2d_17">
      <path d="M 129.6 357.696 
L 494.836364 357.696 
" clip-path="url(#pa22c161ec1)" style="fill: none; stroke: #b0b0b0; stroke-width: 0.8; stroke-linecap: square"/>
     </g>
     <g id="line2d_18">
      <g>
       <use xlink:href="#m66ab14b78a" x="129.6" y="357.696" style="stroke: #000000; stroke-width: 0.8"/>
      </g>
     </g>
     <g id="text_10">
      <!-- 40 -->
      <g transform="translate(109.875 361.495219)scale(0.1 -0.1)">
       <use xlink:href="#DejaVuSans-34"/>
       <use xlink:href="#DejaVuSans-30" x="63.623047"/>
      </g>
     </g>
    </g>
    <g id="ytick_4">
     <g id="line2d_19">
      <path d="M 129.6 270.6048 
L 494.836364 270.6048 
" clip-path="url(#pa22c161ec1)" style="fill: none; stroke: #b0b0b0; stroke-width: 0.8; stroke-linecap: square"/>
     </g>
     <g id="line2d_20">
      <g>
       <use xlink:href="#m66ab14b78a" x="129.6" y="270.6048" style="stroke: #000000; stroke-width: 0.8"/>
      </g>
     </g>
     <g id="text_11">
      <!-- 60 -->
      <g transform="translate(109.875 274.404019)scale(0.1 -0.1)">
       <use xlink:href="#DejaVuSans-36"/>
       <use xlink:href="#DejaVuSans-30" x="63.623047"/>
      </g>
     </g>
    </g>
    <g id="ytick_5">
     <g id="line2d_21">
      <path d="M 129.6 183.5136 
L 494.836364 183.5136 
" clip-path="url(#pa22c161ec1)" style="fill: none; stroke: #b0b0b0; stroke-width: 0.8; stroke-linecap: square"/>
     </g>
     <g id="line2d_22">
      <g>
       <use xlink:href="#m66ab14b78a" x="129.6" y="183.5136" style="stroke: #000000; stroke-width: 0.8"/>
      </g>
     </g>
     <g id="text_12">
      <!-- 80 -->
      <g transform="translate(109.875 187.312819)scale(0.1 -0.1)">
       <use xlink:href="#DejaVuSans-38"/>
       <use xlink:href="#DejaVuSans-30" x="63.623047"/>
      </g>
     </g>
    </g>
    <g id="ytick_6">
     <g id="line2d_23">
      <path d="M 129.6 96.4224 
L 494.836364 96.4224 
" clip-path="url(#pa22c161ec1)" style="fill: none; stroke: #b0b0b0; stroke-width: 0.8; stroke-linecap: square"/>
     </g>
     <g id="line2d_24">
      <g>
       <use xlink:href="#m66ab14b78a" x="129.6" y="96.4224" style="stroke: #000000; stroke-width: 0.8"/>
      </g>
     </g>
     <g id="text_13">
      <!-- 100 -->
      <g transform="translate(103.5125 100.221619)scale(0.1 -0.1)">
       <use xlink:href="#DejaVuSans-31"/>
       <use xlink:href="#DejaVuSans-30" x="63.623047"/>
       <use xlink:href="#DejaVuSans-30" x="127.246094"/>
      </g>
     </g>
    </g>
    <g id="text_14">
     <!-- Hit Rate[1] (%) -->
     <g transform="translate(97.432812 351.635556)rotate(-90)scale(0.1 -0.1)">
      <defs>
       <path id="DejaVuSans-48" d="M 628 4666 
L 1259 4666 
L 1259 2753 
L 3553 2753 
L 3553 4666 
L 4184 4666 
L 4184 0 
L 3553 0 
L 3553 2222 
L 1259 2222 
L 1259 0 
L 628 0 
L 628 4666 
z
" transform="scale(0.015625)"/>
       <path id="DejaVuSans-74" d="M 1172 4494 
L 1172 3500 
L 2356 3500 
L 2356 3053 
L 1172 3053 
L 1172 1153 
Q 1172 725 1289 603 
Q 1406 481 1766 481 
L 2356 481 
L 2356 0 
L 1766 0 
Q 1100 0 847 248 
Q 594 497 594 1153 
L 594 3053 
L 172 3053 
L 172 3500 
L 594 3500 
L 594 4494 
L 1172 4494 
z
" transform="scale(0.015625)"/>
       <path id="DejaVuSans-52" d="M 2841 2188 
Q 3044 2119 3236 1894 
Q 3428 1669 3622 1275 
L 4263 0 
L 3584 0 
L 2988 1197 
Q 2756 1666 2539 1819 
Q 2322 1972 1947 1972 
L 1259 1972 
L 1259 0 
L 628 0 
L 628 4666 
L 2053 4666 
Q 2853 4666 3247 4331 
Q 3641 3997 3641 3322 
Q 3641 2881 3436 2590 
Q 3231 2300 2841 2188 
z
M 1259 4147 
L 1259 2491 
L 2053 2491 
Q 2509 2491 2742 2702 
Q 2975 2913 2975 3322 
Q 2975 3731 2742 3939 
Q 2509 4147 2053 4147 
L 1259 4147 
z
" transform="scale(0.015625)"/>
       <path id="DejaVuSans-5b" d="M 550 4863 
L 1875 4863 
L 1875 4416 
L 1125 4416 
L 1125 -397 
L 1875 -397 
L 1875 -844 
L 550 -844 
L 550 4863 
z
" transform="scale(0.015625)"/>
       <path id="DejaVuSans-5d" d="M 1947 4863 
L 1947 -844 
L 622 -844 
L 622 -397 
L 1369 -397 
L 1369 4416 
L 622 4416 
L 622 4863 
L 1947 4863 
z
" transform="scale(0.015625)"/>
      </defs>
      <use xlink:href="#DejaVuSans-48"/>
      <use xlink:href="#DejaVuSans-69" x="75.195312"/>
      <use xlink:href="#DejaVuSans-74" x="102.978516"/>
      <use xlink:href="#DejaVuSans-20" x="142.1875"/>
      <use xlink:href="#DejaVuSans-52" x="173.974609"/>
      <use xlink:href="#DejaVuSans-61" x="241.207031"/>
      <use xlink:href="#DejaVuSans-74" x="302.486328"/>
      <use xlink:href="#DejaVuSans-65" x="341.695312"/>
      <use xlink:href="#DejaVuSans-5b" x="403.21875"/>
      <use xlink:href="#DejaVuSans-31" x="442.232422"/>
      <use xlink:href="#DejaVuSans-5d" x="505.855469"/>
      <use xlink:href="#DejaVuSans-20" x="544.869141"/>
      <use xlink:href="#DejaVuSans-28" x="576.65625"/>
      <use xlink:href="#DejaVuSans-25" x="615.669922"/>
      <use xlink:href="#DejaVuSans-29" x="710.689453"/>
     </g>
    </g>
   </g>
   <g id="line2d_25">
    <path d="M 146.533686 514.748867 
L 147.197752 481.9869 
L 148.193851 447.189611 
L 149.521983 413.349454 
L 152.842314 361.386925 
L 156.162645 330.348492 
L 159.482975 308.833482 
L 162.803306 291.545444 
L 169.443967 265.207758 
L 179.404959 236.222936 
L 196.006612 202.663649 
L 212.608264 179.114188 
L 245.81157 147.63159 
L 279.014876 128.072213 
L 312.218182 115.704392 
L 345.421488 108.096104 
L 378.624793 103.593925 
L 411.828099 101.174531 
L 445.031405 100.145113 
L 461.633058 99.957867 
L 478.234711 99.903435 
" clip-path="url(#pa22c161ec1)" style="fill: none; stroke: #4169e1; stroke-width: 1.5; stroke-linecap: square"/>
   </g>
   <g id="line2d_26">
    <path d="M 146.533686 487.609508 
L 147.197752 429.186118 
L 148.193851 385.807298 
L 149.521983 355.59536 
L 152.842314 315.843017 
L 156.162645 291.319877 
L 159.482975 273.658653 
L 162.803306 259.512429 
L 169.443967 238.240404 
L 179.404959 215.100272 
L 196.006612 188.266602 
L 212.608264 169.247626 
L 245.81157 142.563318 
L 279.014876 125.10937 
L 312.218182 114.601817 
L 345.421488 107.202113 
L 378.624793 102.959465 
L 411.828099 100.860568 
L 445.031405 100.081537 
L 461.633058 99.947416 
L 478.234711 99.903435 
" clip-path="url(#pa22c161ec1)" style="fill: none; stroke: #d2691e; stroke-width: 1.5; stroke-linecap: square"/>
   </g>
   <g id="line2d_27">
    <path d="M 146.533686 485.896859 
L 147.197752 421.958855 
L 148.193851 377.646852 
L 149.521983 350.838003 
L 152.842314 313.245522 
L 156.162645 286.812472 
L 159.482975 269.452583 
L 162.803306 254.961043 
L 169.443967 231.300541 
L 179.404959 208.58585 
L 196.006612 180.647864 
L 212.608264 161.274427 
L 245.81157 135.58949 
L 279.014876 120.533599 
L 312.218182 111.101622 
L 345.421488 105.471176 
L 378.624793 102.355053 
L 411.828099 100.780008 
L 445.031405 100.079795 
L 461.633058 99.947416 
L 478.234711 99.903435 
" clip-path="url(#pa22c161ec1)" style="fill: none; stroke: #6b8e23; stroke-width: 1.5; stroke-linecap: square"/>
   </g>
   <g id="line2d_28">
    <path d="M 146.533686 482.683194 
L 147.197752 417.779348 
L 148.193851 373.69596 
L 149.521983 343.662995 
L 152.842314 302.054739 
L 156.162645 276.093287 
L 159.482975 257.872067 
L 162.803306 243.543387 
L 169.443967 222.474719 
L 179.404959 199.392938 
L 196.006612 174.358138 
L 212.608264 155.921366 
L 245.81157 132.917967 
L 279.014876 119.098336 
L 312.218182 110.221565 
L 345.421488 105.156776 
L 378.624793 102.24793 
L 411.828099 100.74822 
L 445.031405 100.081537 
L 461.633058 99.947416 
L 478.234711 99.903435 
" clip-path="url(#pa22c161ec1)" style="fill: none; stroke: #00bfff; stroke-width: 1.5; stroke-linecap: square"/>
   </g>
   <g id="line2d_29">
    <path d="M 146.533686 515.489883 
L 147.197752 486.945873 
L 148.193851 458.141765 
L 149.521983 430.155007 
L 152.842314 385.247301 
L 156.162645 355.983787 
L 159.482975 334.277176 
L 162.803306 316.889854 
L 169.443967 289.883743 
L 179.404959 260.085054 
L 196.006612 225.209383 
L 212.608264 200.390568 
L 245.81157 166.00914 
L 279.014876 143.257435 
L 312.218182 127.927642 
L 345.421488 117.167524 
L 378.624793 109.845767 
L 411.828099 104.775752 
L 445.031405 102.150824 
L 461.633058 101.284266 
L 478.234711 99.903435 
" clip-path="url(#pa22c161ec1)" style="fill: none; stroke: #c0c0c0; stroke-width: 1.5; stroke-linecap: square"/>
   </g>
   <g id="line2d_30">
    <path d="M 146.201653 531.8784 
L 146.397832 483.348987 
L 146.88828 425.888431 
L 147.476817 389.989531 
L 147.967264 370.379376 
L 148.653891 352.001316 
L 149.487652 335.644693 
L 150.370458 322.539031 
L 151.596577 307.686531 
L 153.06792 292.729128 
L 154.490218 280.6221 
L 155.667293 272.245296 
L 157.089591 263.546584 
L 158.609978 255.611503 
L 160.669859 246.038601 
L 162.729739 237.546609 
L 164.59344 230.817912 
L 166.898544 223.354894 
L 169.105558 216.919307 
L 171.508752 210.636447 
L 174.304303 203.897979 
L 176.903676 198.146833 
L 179.601138 192.659486 
L 182.445734 187.379374 
L 185.731733 181.777869 
L 188.527285 177.440854 
L 192.009463 172.454367 
L 195.638776 167.620607 
L 198.728596 163.844617 
L 202.357909 159.750319 
L 206.379579 155.526435 
L 210.597429 151.436251 
L 214.766234 147.740481 
L 219.425487 143.926438 
L 224.477098 140.145821 
L 228.645903 137.3083 
L 234.38414 133.710234 
L 239.877154 130.555948 
L 245.370167 127.68706 
L 250.912226 125.020778 
L 256.699508 122.47277 
L 263.418641 119.774091 
L 270.8244 117.097011 
L 276.856906 115.126996 
L 283.330815 113.205834 
L 290.883709 111.181825 
L 299.319409 109.173243 
L 309.373585 107.072614 
L 319.967255 105.185905 
L 327.863462 103.973865 
L 337.034833 102.739199 
L 347.481368 101.535902 
L 359.104977 100.428765 
L 373.180824 99.359167 
L 391.964969 98.28854 
L 402.705773 97.836532 
L 414.966964 97.433376 
L 431.49505 97.024563 
L 452.780478 96.689285 
L 478.234711 96.4224 
L 478.234711 96.4224 
" clip-path="url(#pa22c161ec1)" style="fill: none; stroke: #000000; stroke-width: 1.5; stroke-linecap: square"/>
   </g>
   <g id="patch_3">
    <path d="M 129.6 553.6512 
L 129.6 74.6496 
" style="fill: none; stroke: #000000; stroke-width: 0.8; stroke-linejoin: miter; stroke-linecap: square"/>
   </g>
   <g id="patch_4">
    <path d="M 494.836364 553.6512 
L 494.836364 74.6496 
" style="fill: none; stroke: #000000; stroke-width: 0.8; stroke-linejoin: miter; stroke-linecap: square"/>
   </g>
   <g id="patch_5">
    <path d="M 129.6 553.6512 
L 494.836364 553.6512 
" style="fill: none; stroke: #000000; stroke-width: 0.8; stroke-linejoin: miter; stroke-linecap: square"/>
   </g>
   <g id="patch_6">
    <path d="M 129.6 74.6496 
L 494.836364 74.6496 
" style="fill: none; stroke: #000000; stroke-width: 0.8; stroke-linejoin: miter; stroke-linecap: square"/>
   </g>
   <g id="text_15">
    <!-- cate_id -->
    <g transform="translate(290.722244 68.6496)scale(0.12 -0.12)">
     <defs>
      <path id="DejaVuSans-5f" d="M 3263 -1063 
L 3263 -1509 
L -63 -1509 
L -63 -1063 
L 3263 -1063 
z
" transform="scale(0.015625)"/>
      <path id="DejaVuSans-64" d="M 2906 2969 
L 2906 4863 
L 3481 4863 
L 3481 0 
L 2906 0 
L 2906 525 
Q 2725 213 2448 61 
Q 2172 -91 1784 -91 
Q 1150 -91 751 415 
Q 353 922 353 1747 
Q 353 2572 751 3078 
Q 1150 3584 1784 3584 
Q 2172 3584 2448 3432 
Q 2725 3281 2906 2969 
z
M 947 1747 
Q 947 1113 1208 752 
Q 1469 391 1925 391 
Q 2381 391 2643 752 
Q 2906 1113 2906 1747 
Q 2906 2381 2643 2742 
Q 2381 3103 1925 3103 
Q 1469 3103 1208 2742 
Q 947 2381 947 1747 
z
" transform="scale(0.015625)"/>
     </defs>
     <use xlink:href="#DejaVuSans-63"/>
     <use xlink:href="#DejaVuSans-61" x="54.980469"/>
     <use xlink:href="#DejaVuSans-74" x="116.259766"/>
     <use xlink:href="#DejaVuSans-65" x="155.46875"/>
     <use xlink:href="#DejaVuSans-5f" x="216.992188"/>
     <use xlink:href="#DejaVuSans-69" x="266.992188"/>
     <use xlink:href="#DejaVuSans-64" x="294.775391"/>
    </g>
   </g>
   <g id="legend_1">
    <g id="patch_7">
     <path d="M 136.6 170.71835 
L 190.925 170.71835 
Q 192.925 170.71835 192.925 168.71835 
L 192.925 81.6496 
Q 192.925 79.6496 190.925 79.6496 
L 136.6 79.6496 
Q 134.6 79.6496 134.6 81.6496 
L 134.6 168.71835 
Q 134.6 170.71835 136.6 170.71835 
z
" style="fill: #ffffff; opacity: 0.8; stroke: #cccccc; stroke-linejoin: miter"/>
    </g>
    <g id="line2d_31">
     <path d="M 138.6 87.748038 
L 148.6 87.748038 
L 158.6 87.748038 
" style="fill: none; stroke: #4169e1; stroke-width: 1.5; stroke-linecap: square"/>
    </g>
    <g id="text_16">
     <!-- LRU -->
     <g transform="translate(166.6 91.248038)scale(0.1 -0.1)">
      <defs>
       <path id="DejaVuSans-4c" d="M 628 4666 
L 1259 4666 
L 1259 531 
L 3531 531 
L 3531 0 
L 628 0 
L 628 4666 
z
" transform="scale(0.015625)"/>
       <path id="DejaVuSans-55" d="M 556 4666 
L 1191 4666 
L 1191 1831 
Q 1191 1081 1462 751 
Q 1734 422 2344 422 
Q 2950 422 3222 751 
Q 3494 1081 3494 1831 
L 3494 4666 
L 4128 4666 
L 4128 1753 
Q 4128 841 3676 375 
Q 3225 -91 2344 -91 
Q 1459 -91 1007 375 
Q 556 841 556 1753 
L 556 4666 
z
" transform="scale(0.015625)"/>
      </defs>
      <use xlink:href="#DejaVuSans-4c"/>
      <use xlink:href="#DejaVuSans-52" x="55.712891"/>
      <use xlink:href="#DejaVuSans-55" x="125.195312"/>
     </g>
    </g>
    <g id="line2d_32">
     <path d="M 138.6 102.426163 
L 148.6 102.426163 
L 158.6 102.426163 
" style="fill: none; stroke: #d2691e; stroke-width: 1.5; stroke-linecap: square"/>
    </g>
    <g id="text_17">
     <!-- ARC -->
     <g transform="translate(166.6 105.926163)scale(0.1 -0.1)">
      <defs>
       <path id="DejaVuSans-41" d="M 2188 4044 
L 1331 1722 
L 3047 1722 
L 2188 4044 
z
M 1831 4666 
L 2547 4666 
L 4325 0 
L 3669 0 
L 3244 1197 
L 1141 1197 
L 716 0 
L 50 0 
L 1831 4666 
z
" transform="scale(0.015625)"/>
      </defs>
      <use xlink:href="#DejaVuSans-41"/>
      <use xlink:href="#DejaVuSans-52" x="68.408203"/>
      <use xlink:href="#DejaVuSans-43" x="132.890625"/>
     </g>
    </g>
    <g id="line2d_33">
     <path d="M 138.6 117.104287 
L 148.6 117.104287 
L 158.6 117.104287 
" style="fill: none; stroke: #6b8e23; stroke-width: 1.5; stroke-linecap: square"/>
    </g>
    <g id="text_18">
     <!-- LFU -->
     <g transform="translate(166.6 120.604287)scale(0.1 -0.1)">
      <defs>
       <path id="DejaVuSans-46" d="M 628 4666 
L 3309 4666 
L 3309 4134 
L 1259 4134 
L 1259 2759 
L 3109 2759 
L 3109 2228 
L 1259 2228 
L 1259 0 
L 628 0 
L 628 4666 
z
" transform="scale(0.015625)"/>
      </defs>
      <use xlink:href="#DejaVuSans-4c"/>
      <use xlink:href="#DejaVuSans-46" x="55.712891"/>
      <use xlink:href="#DejaVuSans-55" x="113.232422"/>
     </g>
    </g>
    <g id="line2d_34">
     <path d="M 138.6 131.782413 
L 148.6 131.782413 
L 158.6 131.782413 
" style="fill: none; stroke: #00bfff; stroke-width: 1.5; stroke-linecap: square"/>
    </g>
    <g id="text_19">
     <!-- ARF -->
     <g transform="translate(166.6 135.282413)scale(0.1 -0.1)">
      <use xlink:href="#DejaVuSans-41"/>
      <use xlink:href="#DejaVuSans-52" x="68.408203"/>
      <use xlink:href="#DejaVuSans-46" x="137.890625"/>
     </g>
    </g>
    <g id="line2d_35">
     <path d="M 138.6 146.460537 
L 148.6 146.460537 
L 158.6 146.460537 
" style="fill: none; stroke: #c0c0c0; stroke-width: 1.5; stroke-linecap: square"/>
    </g>
    <g id="text_20">
     <!-- FIFO -->
     <g transform="translate(166.6 149.960537)scale(0.1 -0.1)">
      <defs>
       <path id="DejaVuSans-49" d="M 628 4666 
L 1259 4666 
L 1259 0 
L 628 0 
L 628 4666 
z
" transform="scale(0.015625)"/>
       <path id="DejaVuSans-4f" d="M 2522 4238 
Q 1834 4238 1429 3725 
Q 1025 3213 1025 2328 
Q 1025 1447 1429 934 
Q 1834 422 2522 422 
Q 3209 422 3611 934 
Q 4013 1447 4013 2328 
Q 4013 3213 3611 3725 
Q 3209 4238 2522 4238 
z
M 2522 4750 
Q 3503 4750 4090 4092 
Q 4678 3434 4678 2328 
Q 4678 1225 4090 567 
Q 3503 -91 2522 -91 
Q 1538 -91 948 565 
Q 359 1222 359 2328 
Q 359 3434 948 4092 
Q 1538 4750 2522 4750 
z
" transform="scale(0.015625)"/>
      </defs>
      <use xlink:href="#DejaVuSans-46"/>
      <use xlink:href="#DejaVuSans-49" x="57.519531"/>
      <use xlink:href="#DejaVuSans-46" x="87.011719"/>
      <use xlink:href="#DejaVuSans-4f" x="144.53125"/>
     </g>
    </g>
    <g id="line2d_36">
     <path d="M 138.6 161.138663 
L 148.6 161.138663 
L 158.6 161.138663 
" style="fill: none; stroke: #000000; stroke-width: 1.5; stroke-linecap: square"/>
    </g>
    <g id="text_21">
     <!-- dist -->
     <g transform="translate(166.6 164.638663)scale(0.1 -0.1)">
      <defs>
       <path id="DejaVuSans-73" d="M 2834 3397 
L 2834 2853 
Q 2591 2978 2328 3040 
Q 2066 3103 1784 3103 
Q 1356 3103 1142 2972 
Q 928 2841 928 2578 
Q 928 2378 1081 2264 
Q 1234 2150 1697 2047 
L 1894 2003 
Q 2506 1872 2764 1633 
Q 3022 1394 3022 966 
Q 3022 478 2636 193 
Q 2250 -91 1575 -91 
Q 1294 -91 989 -36 
Q 684 19 347 128 
L 347 722 
Q 666 556 975 473 
Q 1284 391 1588 391 
Q 1994 391 2212 530 
Q 2431 669 2431 922 
Q 2431 1156 2273 1281 
Q 2116 1406 1581 1522 
L 1381 1569 
Q 847 1681 609 1914 
Q 372 2147 372 2553 
Q 372 3047 722 3315 
Q 1072 3584 1716 3584 
Q 2034 3584 2315 3537 
Q 2597 3491 2834 3397 
z
" transform="scale(0.015625)"/>
      </defs>
      <use xlink:href="#DejaVuSans-64"/>
      <use xlink:href="#DejaVuSans-69" x="63.476562"/>
      <use xlink:href="#DejaVuSans-73" x="91.259766"/>
      <use xlink:href="#DejaVuSans-74" x="143.359375"/>
     </g>
    </g>
   </g>
  </g>
  <g id="axes_2">
   <g id="patch_8">
    <path d="M 567.883636 553.6512 
L 933.12 553.6512 
L 933.12 74.6496 
L 567.883636 74.6496 
z
" style="fill: #ffffff"/>
   </g>
   <g id="matplotlib.axis_3">
    <g id="xtick_7">
     <g id="line2d_37">
      <path d="M 584.485289 553.6512 
L 584.485289 74.6496 
" clip-path="url(#p2ac7aa25e2)" style="fill: none; stroke: #b0b0b0; stroke-width: 0.8; stroke-linecap: square"/>
     </g>
     <g id="line2d_38">
      <g>
       <use xlink:href="#m1b20193511" x="584.485289" y="553.6512" style="stroke: #000000; stroke-width: 0.8"/>
      </g>
     </g>
     <g id="text_22">
      <!-- 0 -->
      <g transform="translate(581.304039 568.249638)scale(0.1 -0.1)">
       <use xlink:href="#DejaVuSans-30"/>
      </g>
     </g>
    </g>
    <g id="xtick_8">
     <g id="line2d_39">
      <path d="M 650.891901 553.6512 
L 650.891901 74.6496 
" clip-path="url(#p2ac7aa25e2)" style="fill: none; stroke: #b0b0b0; stroke-width: 0.8; stroke-linecap: square"/>
     </g>
     <g id="line2d_40">
      <g>
       <use xlink:href="#m1b20193511" x="650.891901" y="553.6512" style="stroke: #000000; stroke-width: 0.8"/>
      </g>
     </g>
     <g id="text_23">
      <!-- 20 -->
      <g transform="translate(644.529401 568.249638)scale(0.1 -0.1)">
       <use xlink:href="#DejaVuSans-32"/>
       <use xlink:href="#DejaVuSans-30" x="63.623047"/>
      </g>
     </g>
    </g>
    <g id="xtick_9">
     <g id="line2d_41">
      <path d="M 717.298512 553.6512 
L 717.298512 74.6496 
" clip-path="url(#p2ac7aa25e2)" style="fill: none; stroke: #b0b0b0; stroke-width: 0.8; stroke-linecap: square"/>
     </g>
     <g id="line2d_42">
      <g>
       <use xlink:href="#m1b20193511" x="717.298512" y="553.6512" style="stroke: #000000; stroke-width: 0.8"/>
      </g>
     </g>
     <g id="text_24">
      <!-- 40 -->
      <g transform="translate(710.936012 568.249638)scale(0.1 -0.1)">
       <use xlink:href="#DejaVuSans-34"/>
       <use xlink:href="#DejaVuSans-30" x="63.623047"/>
      </g>
     </g>
    </g>
    <g id="xtick_10">
     <g id="line2d_43">
      <path d="M 783.705124 553.6512 
L 783.705124 74.6496 
" clip-path="url(#p2ac7aa25e2)" style="fill: none; stroke: #b0b0b0; stroke-width: 0.8; stroke-linecap: square"/>
     </g>
     <g id="line2d_44">
      <g>
       <use xlink:href="#m1b20193511" x="783.705124" y="553.6512" style="stroke: #000000; stroke-width: 0.8"/>
      </g>
     </g>
     <g id="text_25">
      <!-- 60 -->
      <g transform="translate(777.342624 568.249638)scale(0.1 -0.1)">
       <use xlink:href="#DejaVuSans-36"/>
       <use xlink:href="#DejaVuSans-30" x="63.623047"/>
      </g>
     </g>
    </g>
    <g id="xtick_11">
     <g id="line2d_45">
      <path d="M 850.111736 553.6512 
L 850.111736 74.6496 
" clip-path="url(#p2ac7aa25e2)" style="fill: none; stroke: #b0b0b0; stroke-width: 0.8; stroke-linecap: square"/>
     </g>
     <g id="line2d_46">
      <g>
       <use xlink:href="#m1b20193511" x="850.111736" y="553.6512" style="stroke: #000000; stroke-width: 0.8"/>
      </g>
     </g>
     <g id="text_26">
      <!-- 80 -->
      <g transform="translate(843.749236 568.249638)scale(0.1 -0.1)">
       <use xlink:href="#DejaVuSans-38"/>
       <use xlink:href="#DejaVuSans-30" x="63.623047"/>
      </g>
     </g>
    </g>
    <g id="xtick_12">
     <g id="line2d_47">
      <path d="M 916.518347 553.6512 
L 916.518347 74.6496 
" clip-path="url(#p2ac7aa25e2)" style="fill: none; stroke: #b0b0b0; stroke-width: 0.8; stroke-linecap: square"/>
     </g>
     <g id="line2d_48">
      <g>
       <use xlink:href="#m1b20193511" x="916.518347" y="553.6512" style="stroke: #000000; stroke-width: 0.8"/>
      </g>
     </g>
     <g id="text_27">
      <!-- 100 -->
      <g transform="translate(906.974597 568.249638)scale(0.1 -0.1)">
       <use xlink:href="#DejaVuSans-31"/>
       <use xlink:href="#DejaVuSans-30" x="63.623047"/>
       <use xlink:href="#DejaVuSans-30" x="127.246094"/>
      </g>
     </g>
    </g>
    <g id="text_28">
     <!-- Cache Size(%) -->
     <g transform="translate(714.446349 581.927763)scale(0.1 -0.1)">
      <use xlink:href="#DejaVuSans-43"/>
      <use xlink:href="#DejaVuSans-61" x="69.824219"/>
      <use xlink:href="#DejaVuSans-63" x="131.103516"/>
      <use xlink:href="#DejaVuSans-68" x="186.083984"/>
      <use xlink:href="#DejaVuSans-65" x="249.462891"/>
      <use xlink:href="#DejaVuSans-20" x="310.986328"/>
      <use xlink:href="#DejaVuSans-53" x="342.773438"/>
      <use xlink:href="#DejaVuSans-69" x="406.25"/>
      <use xlink:href="#DejaVuSans-7a" x="434.033203"/>
      <use xlink:href="#DejaVuSans-65" x="486.523438"/>
      <use xlink:href="#DejaVuSans-28" x="548.046875"/>
      <use xlink:href="#DejaVuSans-25" x="587.060547"/>
      <use xlink:href="#DejaVuSans-29" x="682.080078"/>
     </g>
    </g>
   </g>
   <g id="matplotlib.axis_4">
    <g id="ytick_7">
     <g id="line2d_49">
      <path d="M 567.883636 531.8784 
L 933.12 531.8784 
" clip-path="url(#p2ac7aa25e2)" style="fill: none; stroke: #b0b0b0; stroke-width: 0.8; stroke-linecap: square"/>
     </g>
     <g id="line2d_50">
      <g>
       <use xlink:href="#m66ab14b78a" x="567.883636" y="531.8784" style="stroke: #000000; stroke-width: 0.8"/>
      </g>
     </g>
     <g id="text_29">
      <!-- 0 -->
      <g transform="translate(554.521136 535.677619)scale(0.1 -0.1)">
       <use xlink:href="#DejaVuSans-30"/>
      </g>
     </g>
    </g>
    <g id="ytick_8">
     <g id="line2d_51">
      <path d="M 567.883636 444.7872 
L 933.12 444.7872 
" clip-path="url(#p2ac7aa25e2)" style="fill: none; stroke: #b0b0b0; stroke-width: 0.8; stroke-linecap: square"/>
     </g>
     <g id="line2d_52">
      <g>
       <use xlink:href="#m66ab14b78a" x="567.883636" y="444.7872" style="stroke: #000000; stroke-width: 0.8"/>
      </g>
     </g>
     <g id="text_30">
      <!-- 20 -->
      <g transform="translate(548.158636 448.586419)scale(0.1 -0.1)">
       <use xlink:href="#DejaVuSans-32"/>
       <use xlink:href="#DejaVuSans-30" x="63.623047"/>
      </g>
     </g>
    </g>
    <g id="ytick_9">
     <g id="line2d_53">
      <path d="M 567.883636 357.696 
L 933.12 357.696 
" clip-path="url(#p2ac7aa25e2)" style="fill: none; stroke: #b0b0b0; stroke-width: 0.8; stroke-linecap: square"/>
     </g>
     <g id="line2d_54">
      <g>
       <use xlink:href="#m66ab14b78a" x="567.883636" y="357.696" style="stroke: #000000; stroke-width: 0.8"/>
      </g>
     </g>
     <g id="text_31">
      <!-- 40 -->
      <g transform="translate(548.158636 361.495219)scale(0.1 -0.1)">
       <use xlink:href="#DejaVuSans-34"/>
       <use xlink:href="#DejaVuSans-30" x="63.623047"/>
      </g>
     </g>
    </g>
    <g id="ytick_10">
     <g id="line2d_55">
      <path d="M 567.883636 270.6048 
L 933.12 270.6048 
" clip-path="url(#p2ac7aa25e2)" style="fill: none; stroke: #b0b0b0; stroke-width: 0.8; stroke-linecap: square"/>
     </g>
     <g id="line2d_56">
      <g>
       <use xlink:href="#m66ab14b78a" x="567.883636" y="270.6048" style="stroke: #000000; stroke-width: 0.8"/>
      </g>
     </g>
     <g id="text_32">
      <!-- 60 -->
      <g transform="translate(548.158636 274.404019)scale(0.1 -0.1)">
       <use xlink:href="#DejaVuSans-36"/>
       <use xlink:href="#DejaVuSans-30" x="63.623047"/>
      </g>
     </g>
    </g>
    <g id="ytick_11">
     <g id="line2d_57">
      <path d="M 567.883636 183.5136 
L 933.12 183.5136 
" clip-path="url(#p2ac7aa25e2)" style="fill: none; stroke: #b0b0b0; stroke-width: 0.8; stroke-linecap: square"/>
     </g>
     <g id="line2d_58">
      <g>
       <use xlink:href="#m66ab14b78a" x="567.883636" y="183.5136" style="stroke: #000000; stroke-width: 0.8"/>
      </g>
     </g>
     <g id="text_33">
      <!-- 80 -->
      <g transform="translate(548.158636 187.312819)scale(0.1 -0.1)">
       <use xlink:href="#DejaVuSans-38"/>
       <use xlink:href="#DejaVuSans-30" x="63.623047"/>
      </g>
     </g>
    </g>
    <g id="ytick_12">
     <g id="line2d_59">
      <path d="M 567.883636 96.4224 
L 933.12 96.4224 
" clip-path="url(#p2ac7aa25e2)" style="fill: none; stroke: #b0b0b0; stroke-width: 0.8; stroke-linecap: square"/>
     </g>
     <g id="line2d_60">
      <g>
       <use xlink:href="#m66ab14b78a" x="567.883636" y="96.4224" style="stroke: #000000; stroke-width: 0.8"/>
      </g>
     </g>
     <g id="text_34">
      <!-- 100 -->
      <g transform="translate(541.796136 100.221619)scale(0.1 -0.1)">
       <use xlink:href="#DejaVuSans-31"/>
       <use xlink:href="#DejaVuSans-30" x="63.623047"/>
       <use xlink:href="#DejaVuSans-30" x="127.246094"/>
      </g>
     </g>
    </g>
    <g id="text_35">
     <!-- Hit Rate[1] (%) -->
     <g transform="translate(535.716449 351.635556)rotate(-90)scale(0.1 -0.1)">
      <use xlink:href="#DejaVuSans-48"/>
      <use xlink:href="#DejaVuSans-69" x="75.195312"/>
      <use xlink:href="#DejaVuSans-74" x="102.978516"/>
      <use xlink:href="#DejaVuSans-20" x="142.1875"/>
      <use xlink:href="#DejaVuSans-52" x="173.974609"/>
      <use xlink:href="#DejaVuSans-61" x="241.207031"/>
      <use xlink:href="#DejaVuSans-74" x="302.486328"/>
      <use xlink:href="#DejaVuSans-65" x="341.695312"/>
      <use xlink:href="#DejaVuSans-5b" x="403.21875"/>
      <use xlink:href="#DejaVuSans-31" x="442.232422"/>
      <use xlink:href="#DejaVuSans-5d" x="505.855469"/>
      <use xlink:href="#DejaVuSans-20" x="544.869141"/>
      <use xlink:href="#DejaVuSans-28" x="576.65625"/>
      <use xlink:href="#DejaVuSans-25" x="615.669922"/>
      <use xlink:href="#DejaVuSans-29" x="710.689453"/>
     </g>
    </g>
   </g>
   <g id="line2d_61">
    <path d="M 584.817322 528.495791 
L 585.481388 522.452563 
L 586.477488 514.609521 
L 587.80562 505.9473 
L 591.12595 489.340227 
L 594.446281 476.698722 
L 597.766612 466.478134 
L 601.086942 457.624007 
L 607.727603 442.751443 
L 617.688595 424.970468 
L 634.290248 402.896333 
L 650.891901 386.161759 
L 684.095207 361.98829 
L 717.298512 345.388272 
L 750.501818 333.761161 
L 783.705124 325.666034 
L 816.90843 320.156209 
L 850.111736 316.565439 
L 883.315041 314.743927 
L 899.916694 314.301503 
L 916.518347 314.166076 
" clip-path="url(#p2ac7aa25e2)" style="fill: none; stroke: #4169e1; stroke-width: 1.5; stroke-linecap: square"/>
   </g>
   <g id="line2d_62">
    <path d="M 584.817322 510.054477 
L 585.481388 494.446559 
L 586.477488 480.812039 
L 587.80562 468.92322 
L 591.12595 449.775784 
L 594.446281 436.88019 
L 597.766612 426.868621 
L 601.086942 418.903695 
L 607.727603 406.147012 
L 617.688595 392.249869 
L 634.290248 376.273859 
L 650.891901 364.597107 
L 684.095207 348.39466 
L 717.298512 337.492148 
L 750.501818 329.60125 
L 783.705124 323.736093 
L 816.90843 319.405918 
L 850.111736 316.371226 
L 883.315041 314.719976 
L 899.916694 314.299326 
L 916.518347 314.166076 
" clip-path="url(#p2ac7aa25e2)" style="fill: none; stroke: #d2691e; stroke-width: 1.5; stroke-linecap: square"/>
   </g>
   <g id="line2d_63">
    <path d="M 584.817322 514.161089 
L 585.481388 498.970206 
L 586.477488 486.111539 
L 587.80562 474.596776 
L 591.12595 456.090767 
L 594.446281 443.151627 
L 597.766612 433.378688 
L 601.086942 425.393296 
L 607.727603 412.673191 
L 617.688595 398.312287 
L 634.290248 380.75296 
L 650.891901 367.948376 
L 684.095207 350.064198 
L 717.298512 338.115286 
L 750.501818 329.758885 
L 783.705124 323.736964 
L 816.90843 319.405918 
L 850.111736 316.371226 
L 883.315041 314.719976 
L 899.916694 314.299326 
L 916.518347 314.166076 
" clip-path="url(#p2ac7aa25e2)" style="fill: none; stroke: #6b8e23; stroke-width: 1.5; stroke-linecap: square"/>
   </g>
   <g id="line2d_64">
    <path d="M 584.817322 509.766989 
L 585.481388 493.741512 
L 586.477488 479.739511 
L 587.80562 467.790163 
L 591.12595 448.388857 
L 594.446281 435.571209 
L 597.766612 425.837897 
L 601.086942 418.07241 
L 607.727603 405.674107 
L 617.688595 392.181502 
L 634.290248 376.305212 
L 650.891901 364.604945 
L 684.095207 348.39466 
L 717.298512 337.492148 
L 750.501818 329.60125 
L 783.705124 323.736093 
L 816.90843 319.405918 
L 850.111736 316.371226 
L 883.315041 314.719976 
L 899.916694 314.299326 
L 916.518347 314.166076 
" clip-path="url(#p2ac7aa25e2)" style="fill: none; stroke: #00bfff; stroke-width: 1.5; stroke-linecap: square"/>
   </g>
   <g id="line2d_65">
    <path d="M 584.817322 528.60378 
L 585.481388 523.126692 
L 586.477488 516.313156 
L 587.80562 508.961701 
L 591.12595 494.773064 
L 594.446281 483.923808 
L 597.766612 474.991735 
L 601.086942 467.163107 
L 607.727603 453.879521 
L 617.688595 437.8874 
L 634.290248 417.572506 
L 650.891901 401.896526 
L 684.095207 378.516893 
L 717.298512 361.408262 
L 750.501818 348.654627 
L 783.705124 339.061096 
L 816.90843 331.601735 
L 850.111736 324.399292 
L 883.315041 318.188383 
L 899.916694 315.708897 
L 916.518347 314.166076 
" clip-path="url(#p2ac7aa25e2)" style="fill: none; stroke: #c0c0c0; stroke-width: 1.5; stroke-linecap: square"/>
   </g>
   <g id="line2d_66">
    <path d="M 584.485289 531.8784 
L 584.642901 513.758483 
L 584.982433 498.318732 
L 585.48977 485.059316 
L 586.230781 471.843095 
L 587.087059 460.607173 
L 588.065664 450.371428 
L 589.473191 438.47472 
L 590.54746 430.902172 
L 592.325885 419.97633 
L 593.374278 414.453502 
L 594.933929 406.863983 
L 597.175779 397.094645 
L 600.357811 385.025156 
L 605.504109 368.531234 
L 614.302922 345.762165 
L 631.622963 311.932012 
L 675.632711 254.392779 
L 916.518347 96.4224 
L 916.518347 96.4224 
" clip-path="url(#p2ac7aa25e2)" style="fill: none; stroke: #000000; stroke-width: 1.5; stroke-linecap: square"/>
   </g>
   <g id="patch_9">
    <path d="M 567.883636 553.6512 
L 567.883636 74.6496 
" style="fill: none; stroke: #000000; stroke-width: 0.8; stroke-linejoin: miter; stroke-linecap: square"/>
   </g>
   <g id="patch_10">
    <path d="M 933.12 553.6512 
L 933.12 74.6496 
" style="fill: none; stroke: #000000; stroke-width: 0.8; stroke-linejoin: miter; stroke-linecap: square"/>
   </g>
   <g id="patch_11">
    <path d="M 567.883636 553.6512 
L 933.12 553.6512 
" style="fill: none; stroke: #000000; stroke-width: 0.8; stroke-linejoin: miter; stroke-linecap: square"/>
   </g>
   <g id="patch_12">
    <path d="M 567.883636 74.6496 
L 933.12 74.6496 
" style="fill: none; stroke: #000000; stroke-width: 0.8; stroke-linejoin: miter; stroke-linecap: square"/>
   </g>
   <g id="text_36">
    <!-- campaign_id -->
    <g transform="translate(712.441193 68.6496)scale(0.12 -0.12)">
     <defs>
      <path id="DejaVuSans-6d" d="M 3328 2828 
Q 3544 3216 3844 3400 
Q 4144 3584 4550 3584 
Q 5097 3584 5394 3201 
Q 5691 2819 5691 2113 
L 5691 0 
L 5113 0 
L 5113 2094 
Q 5113 2597 4934 2840 
Q 4756 3084 4391 3084 
Q 3944 3084 3684 2787 
Q 3425 2491 3425 1978 
L 3425 0 
L 2847 0 
L 2847 2094 
Q 2847 2600 2669 2842 
Q 2491 3084 2119 3084 
Q 1678 3084 1418 2786 
Q 1159 2488 1159 1978 
L 1159 0 
L 581 0 
L 581 3500 
L 1159 3500 
L 1159 2956 
Q 1356 3278 1631 3431 
Q 1906 3584 2284 3584 
Q 2666 3584 2933 3390 
Q 3200 3197 3328 2828 
z
" transform="scale(0.015625)"/>
      <path id="DejaVuSans-70" d="M 1159 525 
L 1159 -1331 
L 581 -1331 
L 581 3500 
L 1159 3500 
L 1159 2969 
Q 1341 3281 1617 3432 
Q 1894 3584 2278 3584 
Q 2916 3584 3314 3078 
Q 3713 2572 3713 1747 
Q 3713 922 3314 415 
Q 2916 -91 2278 -91 
Q 1894 -91 1617 61 
Q 1341 213 1159 525 
z
M 3116 1747 
Q 3116 2381 2855 2742 
Q 2594 3103 2138 3103 
Q 1681 3103 1420 2742 
Q 1159 2381 1159 1747 
Q 1159 1113 1420 752 
Q 1681 391 2138 391 
Q 2594 391 2855 752 
Q 3116 1113 3116 1747 
z
" transform="scale(0.015625)"/>
      <path id="DejaVuSans-67" d="M 2906 1791 
Q 2906 2416 2648 2759 
Q 2391 3103 1925 3103 
Q 1463 3103 1205 2759 
Q 947 2416 947 1791 
Q 947 1169 1205 825 
Q 1463 481 1925 481 
Q 2391 481 2648 825 
Q 2906 1169 2906 1791 
z
M 3481 434 
Q 3481 -459 3084 -895 
Q 2688 -1331 1869 -1331 
Q 1566 -1331 1297 -1286 
Q 1028 -1241 775 -1147 
L 775 -588 
Q 1028 -725 1275 -790 
Q 1522 -856 1778 -856 
Q 2344 -856 2625 -561 
Q 2906 -266 2906 331 
L 2906 616 
Q 2728 306 2450 153 
Q 2172 0 1784 0 
Q 1141 0 747 490 
Q 353 981 353 1791 
Q 353 2603 747 3093 
Q 1141 3584 1784 3584 
Q 2172 3584 2450 3431 
Q 2728 3278 2906 2969 
L 2906 3500 
L 3481 3500 
L 3481 434 
z
" transform="scale(0.015625)"/>
      <path id="DejaVuSans-6e" d="M 3513 2113 
L 3513 0 
L 2938 0 
L 2938 2094 
Q 2938 2591 2744 2837 
Q 2550 3084 2163 3084 
Q 1697 3084 1428 2787 
Q 1159 2491 1159 1978 
L 1159 0 
L 581 0 
L 581 3500 
L 1159 3500 
L 1159 2956 
Q 1366 3272 1645 3428 
Q 1925 3584 2291 3584 
Q 2894 3584 3203 3211 
Q 3513 2838 3513 2113 
z
" transform="scale(0.015625)"/>
     </defs>
     <use xlink:href="#DejaVuSans-63"/>
     <use xlink:href="#DejaVuSans-61" x="54.980469"/>
     <use xlink:href="#DejaVuSans-6d" x="116.259766"/>
     <use xlink:href="#DejaVuSans-70" x="213.671875"/>
     <use xlink:href="#DejaVuSans-61" x="277.148438"/>
     <use xlink:href="#DejaVuSans-69" x="338.427734"/>
     <use xlink:href="#DejaVuSans-67" x="366.210938"/>
     <use xlink:href="#DejaVuSans-6e" x="429.6875"/>
     <use xlink:href="#DejaVuSans-5f" x="493.066406"/>
     <use xlink:href="#DejaVuSans-69" x="543.066406"/>
     <use xlink:href="#DejaVuSans-64" x="570.849609"/>
    </g>
   </g>
   <g id="legend_2">
    <g id="patch_13">
     <path d="M 574.883636 170.71835 
L 629.208636 170.71835 
Q 631.208636 170.71835 631.208636 168.71835 
L 631.208636 81.6496 
Q 631.208636 79.6496 629.208636 79.6496 
L 574.883636 79.6496 
Q 572.883636 79.6496 572.883636 81.6496 
L 572.883636 168.71835 
Q 572.883636 170.71835 574.883636 170.71835 
z
" style="fill: #ffffff; opacity: 0.8; stroke: #cccccc; stroke-linejoin: miter"/>
    </g>
    <g id="line2d_67">
     <path d="M 576.883636 87.748038 
L 586.883636 87.748038 
L 596.883636 87.748038 
" style="fill: none; stroke: #4169e1; stroke-width: 1.5; stroke-linecap: square"/>
    </g>
    <g id="text_37">
     <!-- LRU -->
     <g transform="translate(604.883636 91.248038)scale(0.1 -0.1)">
      <use xlink:href="#DejaVuSans-4c"/>
      <use xlink:href="#DejaVuSans-52" x="55.712891"/>
      <use xlink:href="#DejaVuSans-55" x="125.195312"/>
     </g>
    </g>
    <g id="line2d_68">
     <path d="M 576.883636 102.426163 
L 586.883636 102.426163 
L 596.883636 102.426163 
" style="fill: none; stroke: #d2691e; stroke-width: 1.5; stroke-linecap: square"/>
    </g>
    <g id="text_38">
     <!-- ARC -->
     <g transform="translate(604.883636 105.926163)scale(0.1 -0.1)">
      <use xlink:href="#DejaVuSans-41"/>
      <use xlink:href="#DejaVuSans-52" x="68.408203"/>
      <use xlink:href="#DejaVuSans-43" x="132.890625"/>
     </g>
    </g>
    <g id="line2d_69">
     <path d="M 576.883636 117.104287 
L 586.883636 117.104287 
L 596.883636 117.104287 
" style="fill: none; stroke: #6b8e23; stroke-width: 1.5; stroke-linecap: square"/>
    </g>
    <g id="text_39">
     <!-- LFU -->
     <g transform="translate(604.883636 120.604287)scale(0.1 -0.1)">
      <use xlink:href="#DejaVuSans-4c"/>
      <use xlink:href="#DejaVuSans-46" x="55.712891"/>
      <use xlink:href="#DejaVuSans-55" x="113.232422"/>
     </g>
    </g>
    <g id="line2d_70">
     <path d="M 576.883636 131.782413 
L 586.883636 131.782413 
L 596.883636 131.782413 
" style="fill: none; stroke: #00bfff; stroke-width: 1.5; stroke-linecap: square"/>
    </g>
    <g id="text_40">
     <!-- ARF -->
     <g transform="translate(604.883636 135.282413)scale(0.1 -0.1)">
      <use xlink:href="#DejaVuSans-41"/>
      <use xlink:href="#DejaVuSans-52" x="68.408203"/>
      <use xlink:href="#DejaVuSans-46" x="137.890625"/>
     </g>
    </g>
    <g id="line2d_71">
     <path d="M 576.883636 146.460537 
L 586.883636 146.460537 
L 596.883636 146.460537 
" style="fill: none; stroke: #c0c0c0; stroke-width: 1.5; stroke-linecap: square"/>
    </g>
    <g id="text_41">
     <!-- FIFO -->
     <g transform="translate(604.883636 149.960537)scale(0.1 -0.1)">
      <use xlink:href="#DejaVuSans-46"/>
      <use xlink:href="#DejaVuSans-49" x="57.519531"/>
      <use xlink:href="#DejaVuSans-46" x="87.011719"/>
      <use xlink:href="#DejaVuSans-4f" x="144.53125"/>
     </g>
    </g>
    <g id="line2d_72">
     <path d="M 576.883636 161.138663 
L 586.883636 161.138663 
L 596.883636 161.138663 
" style="fill: none; stroke: #000000; stroke-width: 1.5; stroke-linecap: square"/>
    </g>
    <g id="text_42">
     <!-- dist -->
     <g transform="translate(604.883636 164.638663)scale(0.1 -0.1)">
      <use xlink:href="#DejaVuSans-64"/>
      <use xlink:href="#DejaVuSans-69" x="63.476562"/>
      <use xlink:href="#DejaVuSans-73" x="91.259766"/>
      <use xlink:href="#DejaVuSans-74" x="143.359375"/>
     </g>
    </g>
   </g>
  </g>
 </g>
 <defs>
  <clipPath id="pa22c161ec1">
   <rect x="129.6" y="74.6496" width="365.236364" height="479.0016"/>
  </clipPath>
  <clipPath id="p2ac7aa25e2">
   <rect x="567.883636" y="74.6496" width="365.236364" height="479.0016"/>
  </clipPath>
 </defs>
</svg>
